<svg width="108" height="56" viewBox="0 0 108 56" fill="none" xmlns="http://www.w3.org/2000/svg">
<path d="M14.1749 27.2749C14.0299 31.6336 12.7951 35.8791 12.2733 40.2095C12.0823 41.7909 11.9973 43.4538 12.6271 44.9202C13.2568 46.3867 14.7746 47.5737 16.3419 47.3331C17.6509 47.1261 18.6415 46.0205 19.266 44.8565C23.9325 36.27 14.6897 25.5448 17.6651 16.2366C18.2966 14.2642 19.9364 12.198 22.1459 12.9074C22.8555 13.1449 23.4656 13.6124 23.8794 14.2359C26.0323 17.3811 24.9974 21.2923 24.3924 24.8956C24.1253 26.4965 24.0103 28.2566 24.2757 29.8664C24.6914 32.4013 28.392 32.2863 28.622 29.7266C28.7989 27.802 28.4557 25.6934 28.0789 23.7936C27.3183 19.962 27.0176 15.154 30.697 13.2364C30.996 13.075 31.3262 12.9797 31.6653 12.9568C32.0043 12.9339 32.3443 12.984 32.6623 13.1037C34.6718 13.9051 33.9961 16.9406 34.709 18.5344C34.801 18.7408 34.9519 18.9153 35.1428 19.0362C35.3336 19.157 35.556 19.2188 35.7818 19.2137C36.0077 19.2086 36.227 19.1368 36.4122 19.0075C36.5974 18.8782 36.7403 18.697 36.8229 18.4867C37.419 16.9795 36.9114 14.365 38.5317 13.9104C39.9593 13.5106 40.8491 15.4299 41.0083 16.9052C41.8927 25.4918 39.5188 34.0924 39.6249 42.732C39.6833 47.4321 41.0224 52.8699 45.3139 54.7857C45.7738 54.9909 46.3028 55.1483 46.7751 54.975C47.2474 54.8016 47.5676 54.3045 47.771 53.8234C49.0606 50.7861 47.8134 47.3402 46.7981 44.202C44.0849 35.8107 43.0387 26.9699 43.7183 18.1771C43.8404 16.6081 44.6523 14.5348 46.1949 14.8462C47.61 15.1292 47.7409 17.0591 47.6401 18.4938C47.5393 19.9284 48.0664 21.9008 49.4993 21.7769C50.6367 21.6797 51.1161 20.2203 50.9445 19.0917C50.7729 17.9631 50.2369 16.8451 50.4616 15.7306C50.6862 14.6162 52.3031 13.7848 52.9558 14.7153L54.7354 21.662C54.8058 21.9545 54.9447 22.2261 55.1405 22.4545C56.1594 23.6007 57.6807 22.3147 57.8753 21.0393C58.0522 19.8842 57.6612 18.6954 57.8753 17.5474C57.8824 17.5073 57.8912 17.4666 57.9018 17.4253C58.2715 15.9854 60.3784 16.0844 60.6614 17.5421C61.8183 23.3773 63.2429 29.1547 64.9352 34.8743C65.085 35.4026 65.3783 35.879 65.7825 36.2506C67.7178 37.9859 70.028 35.2971 69.7344 33.1142C69.4743 31.1312 68.0839 29.4967 67.3923 27.6198C67.137 26.9038 67.0428 26.1404 67.1163 25.3839C67.249 24.0164 68.8853 23.3195 69.9378 24.1951C70.7745 24.8885 72.0729 25.0955 72.945 24.4003C73.3554 24.0713 73.6526 23.6025 74.1267 23.3602C75.8709 22.4545 77.1711 25.1645 77.3268 27.1245C77.6699 31.416 78.2207 35.6833 78.979 39.9265C79.2319 41.3416 80.0244 43.1318 81.436 42.8912C82.4974 42.7143 82.9609 41.4425 83.0882 40.3687C83.955 33.0169 78.9542 25.1557 82.2338 18.5203C83.1183 16.739 85.1243 15.1062 86.9463 15.8987C87.7406 16.2525 88.2925 16.9778 88.7312 17.7243C92.6105 24.3455 89.858 32.6383 88.388 40.1688C87.875 42.8028 87.9582 46.2682 90.4471 47.2712C92.936 48.2742 95.5506 45.5854 95.7681 42.9284C95.9857 40.2714 94.7191 37.7559 93.9178 35.214C92.6495 31.186 92.538 26.8998 92.4372 22.6756C92.3947 20.8571 92.4372 18.8192 93.7268 17.5456C95.0623 16.2224 97.2877 16.1976 98.6798 14.9311C99.7164 13.9882 116 -0.5 100.424 11.1791C101.328 7.436 101.611 2.36263 98.0519 0.894397C94.7527 -0.46947 91.4784 2.70404 88.0749 3.7778C82.2197 5.62636 76.276 1.06775 70.1412 0.857248C64.6486 0.669738 59.6743 3.96 54.2861 5.0426C46.2055 6.66651 37.948 3.22942 29.7117 3.54253C24.3924 3.74419 19.2395 5.5326 13.9043 5.48838C10.492 5.46008 6.40744 3.67874 5.36552 8.08167C-5.99582 6.44205 8.00304 13.6167 10.2832 15.8828C13.2834 18.8652 14.3129 23.1337 14.1749 27.2749Z" fill="url(#paint0_linear_72_138)"/>
<defs>
<linearGradient id="paint0_linear_72_138" x1="0.972535" y1="5.88067" x2="101.009" y2="4.28434" gradientUnits="userSpaceOnUse">
<stop stop-color="#C848DD"/>
<stop offset="0.251531" stop-color="#C647DD"/>
<stop offset="0.642138" stop-color="#BB2FD5"/>
<stop offset="0.825865" stop-color="#B521D1"/>
<stop offset="1" stop-color="#A80DCD"/>
<stop offset="1" stop-color="#A90DCE"/>
</linearGradient>
</defs>
</svg>
