<svg width="12" height="12" viewBox="0 0 12 12" fill="none" xmlns="http://www.w3.org/2000/svg">
    <path d="M10.3363 3.67099L10.337 3.67037C10.6031 3.40419 10.7527 3.04316 10.7527 2.66671C10.7527 2.29026 10.6031 1.92923 10.337 1.66305C10.0708 1.39686 9.70974 1.24731 9.33329 1.24731C8.95685 1.24731 8.59582 1.39686 8.32963 1.66305L8.32901 1.66366L5.99996 3.99814L3.67091 1.66366L3.67029 1.66305C3.4041 1.39686 3.04307 1.24731 2.66663 1.24731C2.29018 1.24731 1.92915 1.39686 1.66296 1.66305C1.39677 1.92923 1.24723 2.29026 1.24723 2.66671C1.24723 3.04316 1.39677 3.40418 1.66296 3.67037L1.66358 3.67099L3.99806 6.00004L1.66514 8.32754C1.66482 8.32786 1.6645 8.32818 1.66418 8.32849C1.53185 8.45999 1.4268 8.61634 1.35505 8.78856L2.04673 9.07672L1.35505 8.78856C1.28312 8.96119 1.24609 9.14636 1.24609 9.33337C1.24609 9.52039 1.28312 9.70556 1.35505 9.87819L2.04737 9.58976L1.35505 9.87819C1.42657 10.0499 1.53121 10.2058 1.66296 10.337C1.7942 10.4688 1.95012 10.5734 2.12181 10.645C2.29445 10.7169 2.47961 10.7539 2.66663 10.7539C2.85364 10.7539 3.03881 10.7169 3.21144 10.645C3.38375 10.5732 3.54017 10.468 3.6717 10.3356C3.67196 10.3354 3.67221 10.3351 3.67246 10.3349L5.99996 8.00194L8.32746 10.3349C8.32776 10.3352 8.32805 10.3355 8.32835 10.3358C8.45986 10.4681 8.61623 10.5732 8.78847 10.645L9.07185 9.96478L8.78848 10.645C8.96111 10.7169 9.14628 10.7539 9.33329 10.7539C9.52031 10.7539 9.70547 10.7169 9.87811 10.645L9.59474 9.96478L9.87811 10.645C10.0498 10.5734 10.2057 10.4688 10.337 10.337C10.4687 10.2058 10.5733 10.0499 10.6449 9.87819L9.9647 9.59482L10.6449 9.87819C10.7168 9.70555 10.7538 9.52039 10.7538 9.33337C10.7538 9.14636 10.7168 8.96119 10.6449 8.78856L9.9647 9.07193L10.6449 8.78856C10.5731 8.61626 10.468 8.45986 10.3356 8.32833C10.3353 8.32807 10.335 8.3278 10.3348 8.32754L8.00186 6.00004L10.3363 3.67099Z" fill="#FFFDF7" stroke="#062C34" stroke-width="1.5"/>
</svg>
