<svg xmlns="http://www.w3.org/2000/svg" width="96" height="96" viewBox="0 0 96 96" fill="none">
    <circle cx="48" cy="48" r="48" fill="#FFFDF7"/>
    <path d="M75.937 30.9999C73.8442 31.9266 71.6245 32.535 69.3516 32.8048C71.7413 31.3702 73.5286 29.1163 74.3808 26.4625C72.1317 27.802 69.6701 28.7469 67.1024 29.2564C65.373 27.4268 63.0898 26.2168 60.6048 25.8128C58.1198 25.4088 55.5709 25.8332 53.3509 27.0207C51.131 28.2082 49.3631 30.0929 48.3199 32.3842C47.2767 34.6755 47.016 37.2463 47.578 39.7004C43.0193 39.4725 38.5595 38.2884 34.4883 36.2248C30.417 34.1613 26.8253 31.2645 23.9464 27.7225C22.4816 30.2468 22.0332 33.2342 22.6923 36.0773C23.3515 38.9204 25.0686 41.4058 27.4947 43.028C25.671 42.9729 23.887 42.4814 22.2923 41.5947C22.2923 41.6422 22.2923 41.6897 22.2923 41.74C22.2943 44.3902 23.2139 46.958 24.8947 49.0071C26.5755 51.0561 28.9138 52.46 31.5125 52.9802C29.8243 53.44 28.0533 53.5069 26.3352 53.1758C27.0672 55.454 28.493 57.4464 30.4133 58.8742C32.3336 60.302 34.6521 61.0938 37.0446 61.1387C32.9802 64.3272 27.9611 66.0553 22.7952 66.045C21.8802 66.0457 20.9659 65.9926 20.0571 65.8857C25.2992 69.2544 31.4002 71.043 37.6314 71.0378C58.7176 71.0378 70.2484 53.567 70.2484 38.4179C70.2484 37.9206 70.2484 37.4261 70.2177 36.9343C72.4618 35.312 74.3986 33.3023 75.937 30.9999Z" fill="black"/>
</svg>
