<svg width="14" height="12" viewBox="0 0 14 12" fill="none" xmlns="http://www.w3.org/2000/svg">
<path d="M11.8287 1.60184C10.9098 1.18644 9.95314 0.884342 8.95872 0.720703C8.83284 0.94728 8.69438 1.2368 8.59367 1.47596C7.53632 1.31232 6.46637 1.31232 5.40901 1.47596C5.29572 1.21162 5.16984 0.959868 5.03138 0.720703C4.03696 0.884342 3.06771 1.18644 2.16141 1.61442C0.348791 4.32076 -0.142126 6.95157 0.0970389 9.55721C1.16699 10.3502 2.35022 10.9544 3.62157 11.3321C3.91108 10.9418 4.16284 10.539 4.37683 10.1111C3.96143 9.96001 3.57122 9.77119 3.19359 9.54462C3.29429 9.46909 3.38241 9.39357 3.48311 9.31804C5.71111 10.3754 8.30416 10.3754 10.5322 9.31804C10.6329 9.39357 10.721 9.46909 10.8217 9.54462C10.4441 9.77119 10.0412 9.96001 9.62586 10.1111C9.83985 10.539 10.0916 10.9418 10.3811 11.3321C11.6525 10.9418 12.8483 10.3502 13.9056 9.55721C14.1826 6.53618 13.4021 3.91796 11.8287 1.60184ZM4.67893 7.94599C3.98661 7.94599 3.43276 7.31661 3.43276 6.54877C3.43276 5.78092 3.98661 5.13895 4.67893 5.13895C5.38384 5.13895 5.93769 5.76833 5.93769 6.54877C5.9251 7.31661 5.38384 7.94599 4.67893 7.94599ZM9.31117 7.94599C8.61885 7.94599 8.06499 7.31661 8.06499 6.54877C8.06499 5.78092 8.61885 5.13895 9.31117 5.13895C10.0161 5.13895 10.5699 5.76833 10.5573 6.54877C10.5448 7.3292 10.0035 7.94599 9.31117 7.94599Z" fill="black"/>
</svg>
