<svg width="14" height="12" viewBox="0 0 14 12" fill="none" xmlns="http://www.w3.org/2000/svg">
<path d="M13.9843 1.74997C13.461 1.98166 12.9061 2.13375 12.3379 2.2012C12.9353 1.84255 13.3821 1.27907 13.5952 0.615613C13.0329 0.950492 12.4175 1.18673 11.7756 1.31411C11.3432 0.856712 10.7724 0.5542 10.1512 0.453198C9.52995 0.352195 8.89273 0.458308 8.33774 0.755183C7.78274 1.05206 7.34079 1.52322 7.07998 2.09604C6.81918 2.66887 6.754 3.31157 6.89449 3.9251C5.75482 3.86813 4.63988 3.57209 3.62207 3.0562C2.60425 2.54031 1.70632 1.81612 0.986592 0.930636C0.6204 1.56171 0.508299 2.30856 0.673082 3.01934C0.837866 3.73011 1.26716 4.35145 1.87369 4.75701C1.41774 4.74322 0.971752 4.62034 0.573081 4.39868C0.573081 4.41055 0.573081 4.42243 0.573081 4.435C0.573584 5.09756 0.803465 5.7395 1.22366 6.25176C1.64386 6.76403 2.22846 7.115 2.87813 7.24506C2.45608 7.35999 2.01332 7.37672 1.58381 7.29396C1.7668 7.86351 2.12326 8.3616 2.60333 8.71855C3.08339 9.0755 3.66303 9.27344 4.26115 9.28468C3.24504 10.0818 1.99027 10.5138 0.698811 10.5112C0.47005 10.5114 0.241477 10.4981 0.0142822 10.4714C1.3248 11.3136 2.85004 11.7607 4.40784 11.7595C9.67941 11.7595 12.5621 7.39175 12.5621 3.60449C12.5621 3.48015 12.5621 3.35652 12.5544 3.23358C13.1155 2.82799 13.5996 2.32559 13.9843 1.74997Z" fill="black"/>
</svg>
