<svg width="58" height="58" viewBox="0 0 58 58" fill="none" xmlns="http://www.w3.org/2000/svg">
<path d="M10.9465 15.8238C17.5624 14.2188 14.4769 18.1668 16.7479 18.2752C19.147 18.3939 20.7579 15.5219 23.2637 16.4328C23.6359 16.573 23.9678 16.7715 24.239 17.0159C29.1653 21.2852 27.9501 27.8175 25.6102 33.1898C23.3359 38.4113 20.1766 43.7862 21.4738 49.2089C22.1639 52.0481 24.0348 54.6267 26.7925 56.5398C27.7941 57.2288 28.9584 57.8403 30.2769 57.9732C33.9568 58.3435 36.5299 54.8187 36.0816 51.9261C35.6334 49.0335 33.3854 46.5266 32.1998 43.7656C29.0388 36.4115 33.6432 28.0174 30.3623 20.6982C29.8861 19.6337 29.2375 18.5384 29.492 17.4288C29.7465 16.3192 31.4625 15.3645 32.6235 16.0302C32.927 16.2228 33.1721 16.4661 33.341 16.7424C35.6284 20.035 34.2146 24.0656 33.2852 27.7439C32.8041 29.6431 32.5807 31.7655 33.0159 33.6685C33.5643 36.0773 38.1195 35.6606 37.9109 33.2195C37.8157 32.1035 37.5726 30.9655 37.3871 29.8921C36.6925 25.8757 37.1424 21.7974 37.594 17.7642C37.7286 16.5528 38.7434 14.9 40.1425 15.42C41.1589 15.798 41.0407 16.9824 41.7008 17.6972C42.5415 18.6106 44.5022 18.4248 45.4398 17.5681C46.5663 16.5437 46.517 14.9684 46.1951 13.704C46.0826 13.2864 46.1514 12.8512 46.3906 12.468C47.0967 11.3713 48.6665 11.7339 49.5565 12.3919C50.2724 12.9196 50.6888 11.6138 51.5 12.0486C53.078 12.8937 55.7947 12.2616 57 11.0978C58.2053 9.93404 57.9506 9.34647 57.9506 7.9215C57.9506 -4.27316 49.4826 0.896211 43.6729 2.59927C40.0078 3.67142 37.4331 6.20279 34.5381 8.27614C31.6431 10.3495 27.666 12.0938 23.9665 11.0978C20.8597 10.263 18.0747 7.59233 15.0221 8.54192C12.6001 9.29669 12.0483 10.1056 9.27487 9.80889C7.62131 9.63213 6.08269 8.50579 4.3306 8.90575C2.62091 9.28604 1.40652 10.5454 0.74707 12.0486C0.74707 12.0486 4.3306 17.4288 10.9465 15.8238Z" fill="#AC5CFD"/>
</svg>
