<svg width="41" height="65" viewBox="0 0 41 65" fill="none" xmlns="http://www.w3.org/2000/svg">
<path d="M13.6346 55.6413C14.5386 55.4722 15.2274 54.6778 15.513 53.8035C15.7985 52.9293 15.7511 51.9847 15.6483 51.0712C15.1665 46.6269 13.6346 41.8687 15.6605 37.8899C16.2126 36.8073 17.6079 35.7665 18.5227 36.5677C19.1344 37.109 19.0154 38.0564 18.9545 38.8683C18.8936 39.6803 19.1223 40.717 19.9221 40.8577C20.8342 41.0188 21.3769 39.8482 21.4107 38.9238C21.4446 37.9995 21.4107 36.8736 22.1929 36.3837C22.9751 35.8938 24.0497 36.4865 24.434 37.3175C24.8184 38.1484 24.7169 39.112 24.6478 40.0241C24.5125 41.8013 24.5274 43.5868 24.6925 45.3616C24.7845 46.3468 25.2095 47.5972 26.1988 47.5905C27.0107 47.5905 27.5033 46.6783 27.6874 45.8826C28.4087 42.8336 27.5399 39.2229 29.5509 36.8154C29.85 36.4567 30.3264 36.1225 30.75 36.316C31.0206 36.4419 31.1668 36.7504 31.275 37.0346C32.6284 40.6331 32.5634 44.6132 32.041 48.4241C31.5186 52.235 30.5524 55.9783 30.1816 59.8041C30.0706 60.9287 30.0178 62.1048 30.4387 63.1482C30.8596 64.1916 31.884 65.0807 33.01 64.9941C33.6636 64.944 34.2591 64.5881 34.726 64.1226C36.8399 62.0506 36.4271 58.6024 35.8601 55.6968L32.7474 39.7426C32.5269 38.6126 32.3063 37.4623 32.4308 36.3187C32.5553 35.1752 33.0831 34.0181 34.0547 33.4091C35.4284 32.5538 37.3027 32.9652 38.7034 32.1478C40.1041 31.3304 40.5642 29.2409 39.6345 27.9065C39.2149 27.3043 38.5735 26.859 38.2663 26.1918C37.1836 23.856 40.9079 21.3388 39.9119 18.9665C39.3855 17.7147 37.8549 17.3249 36.5895 16.8337C35.155 16.2748 33.7624 15.2855 33.2996 13.8171C32.6744 11.8399 33.8964 9.8086 34.9588 8.02764C36.0211 6.24667 36.9725 3.9677 35.8858 2.19891C34.8789 0.561401 32.4714 0.270438 30.7432 1.11626C29.015 1.96208 27.8417 3.61447 26.8849 5.28311C25.9281 6.95175 25.0917 8.72324 23.7235 10.0766C23.1375 10.6531 22.4027 11.1592 21.5799 11.1673C20.4715 11.1755 19.5675 10.2796 18.9707 9.34576C18.3739 8.41198 17.9219 7.34692 17.076 6.63913C16.2302 5.93135 14.7754 5.75813 14.1082 6.64591C13.6494 7.26031 13.7415 8.11154 13.5669 8.85722C13.1677 10.5191 11.4476 11.5219 9.78438 11.9144C8.12116 12.3068 6.36591 12.2892 4.75952 12.8712C3.15314 13.4531 1.65908 14.9255 1.85125 16.6225C2.05695 18.4346 3.96648 19.4862 5.67166 20.1412C7.37683 20.7962 9.32561 21.5554 9.92242 23.2822C10.5274 25.0415 9.33373 26.9619 7.83696 28.0743C6.34019 29.1867 4.52269 29.816 3.04757 30.9582C1.59799 32.0873 0.550687 33.6533 0.0608133 35.4242C-0.100231 36.0142 -0.194965 36.6422 -0.0420401 37.2336C0.405907 38.9644 2.77151 39.4963 4.41037 38.7817C6.04924 38.0672 7.1806 36.5677 8.44324 35.3024C8.83976 34.9045 9.28501 34.5093 9.83581 34.3943C10.7425 34.2035 11.6587 34.8612 12.062 35.6948C12.4653 36.5285 12.468 37.4934 12.4409 38.4191C12.3218 42.0121 11.5139 45.3819 10.9036 48.8978C10.5395 50.9183 10.0835 56.3058 13.6346 55.6413Z" fill="#C0FF59"/>
</svg>
