<svg width="70" height="71" viewBox="0 0 70 71" fill="none" xmlns="http://www.w3.org/2000/svg">
<path d="M13.0543 19.5737C21.0694 17.6292 17.3314 22.4122 20.0827 22.5435C22.9892 22.6873 24.9408 19.2079 27.9766 20.3114C28.4275 20.4814 28.8296 20.7218 29.1582 21.0179C35.1264 26.1902 33.6542 34.104 30.8194 40.6127C28.0641 46.9385 24.2365 53.4503 25.8081 60.0199C26.6443 63.4596 28.9108 66.5836 32.2517 68.9013C33.4653 69.736 34.8757 70.4769 36.4732 70.6379C40.9314 71.0865 44.0487 66.8162 43.5056 63.3118C42.9625 59.8073 40.2391 56.7703 38.8027 53.4253C34.9732 44.5157 40.5514 34.3463 36.5766 25.479C35.9997 24.1894 35.2139 22.8624 35.5223 21.5181C35.8306 20.1739 37.9095 19.0172 39.316 19.8238C39.6837 20.0571 39.9807 20.3518 40.1854 20.6866C42.9566 24.6756 41.2437 29.5586 40.1177 34.0149C39.5348 36.3158 39.2643 38.8871 39.7914 41.1926C40.4559 44.1109 45.9744 43.606 45.7218 40.6487C45.6064 39.2966 45.312 37.918 45.0872 36.6175C44.2457 31.7516 44.7907 26.8107 45.3378 21.9245C45.501 20.4568 46.7304 18.4545 48.4253 19.0844C49.6568 19.5424 49.5135 20.9773 50.3133 21.8433C51.3318 22.9499 53.7071 22.7248 54.8431 21.6869C56.2078 20.4459 56.1481 18.5373 55.7582 17.0055C55.6219 16.4996 55.7052 15.9724 55.9949 15.5081C56.8504 14.1795 58.7522 14.6187 59.8304 15.4159C60.6978 16.0552 61.3145 16.9055 62.2973 17.4322C64.209 18.4561 67.028 17.8605 68.4882 16.4506C69.9484 15.0407 70 11.7264 70 9.99999C70 -4.7739 59.7409 1.48882 52.7025 3.55208C48.2622 4.851 45.1429 7.91777 41.6356 10.4296C38.1283 12.9415 33.3101 15.0548 28.828 13.8481C25.0641 12.8368 21.6901 9.60121 17.9919 10.7516C15.0576 11.666 14.3891 12.6461 11.0291 12.2866C9.02577 12.0724 7.16173 10.7079 5.03907 11.1924C2.96777 11.6531 1.49653 13.1789 0.697601 15C0.697601 15 5.03907 21.5181 13.0543 19.5737Z" fill="#FFFDF7"/>
</svg>
