<svg width="61" height="17" viewBox="0 0 61 17" fill="none" xmlns="http://www.w3.org/2000/svg">
<mask id="mask0_72_94" style="mask-type:alpha" maskUnits="userSpaceOnUse" x="0" y="0" width="61" height="17">
<path d="M30.5366 3.35339V12.7177C30.5366 12.7891 30.4831 12.8604 30.3939 12.8604H29.4129C28.967 12.8604 28.5389 12.6285 28.2892 12.254L23.8657 5.42246L24.0084 8.82929V12.7356C24.0084 12.8069 23.9549 12.8783 23.8657 12.8783H22.5814C22.5101 12.8783 22.4387 12.8247 22.4387 12.7356V3.35339C22.4387 3.28204 22.4922 3.21069 22.5814 3.21069H23.5446C23.9905 3.21069 24.4186 3.44257 24.6683 3.81715L29.0919 10.6308L28.9492 7.22398V3.35339C28.9492 3.28204 29.0027 3.21069 29.0919 3.21069H30.3761C30.4831 3.21069 30.5366 3.2642 30.5366 3.35339Z" fill="white"/>
<path d="M43.7002 12.8426H42.3446C42.2554 12.8426 42.1841 12.7534 42.2198 12.6642L45.8228 3.33555C45.8585 3.2642 45.9298 3.21069 46.0012 3.21069H47.7135C47.8027 3.21069 47.874 3.2642 47.8919 3.33555L51.5128 12.6642C51.5484 12.7534 51.4771 12.8426 51.3879 12.8426H50.0323C49.9788 12.8426 49.9253 12.8069 49.9074 12.7534L47 5.08356C46.9644 4.97654 46.786 4.97654 46.7503 5.08356L43.8429 12.7534C43.8072 12.8069 43.7537 12.8426 43.7002 12.8426Z" fill="white"/>
<path d="M60.9662 12.6285L58.255 9.16819C59.789 8.8828 60.6808 7.84827 60.6808 6.26079C60.6808 4.44143 59.5036 3.21069 57.3988 3.21069H53.6174C53.5104 3.21069 53.4212 3.29988 53.4212 3.4069C53.4212 4.12037 53.992 4.69115 54.7055 4.69115H57.2561C58.5225 4.69115 59.129 5.33328 59.129 6.27863C59.129 7.22398 58.5404 7.86611 57.2561 7.86611H53.6531C53.5461 7.86611 53.4569 7.95529 53.4569 8.06231V12.6999C53.4569 12.7712 53.5104 12.8426 53.5996 12.8426H54.8838C54.9552 12.8426 55.0265 12.7891 55.0265 12.6999V9.25738H56.507L58.8614 12.3253C59.1112 12.6642 59.5036 12.8426 59.9316 12.8426H60.9127C60.984 12.8426 61.0375 12.7177 60.9662 12.6285Z" fill="white"/>
<path d="M39.6334 3.21094H33.658C33.551 3.21094 33.4797 3.28228 33.4797 3.38931C33.4797 4.10278 34.0683 4.69139 34.7818 4.69139H39.6334C39.7047 4.69139 39.7761 4.63788 39.7761 4.5487V3.33579C39.7582 3.26445 39.7047 3.21094 39.6334 3.21094ZM39.6334 11.3624H35.1742C35.1028 11.3624 35.0315 11.3089 35.0315 11.2197V8.8117C35.0315 8.74035 35.085 8.66901 35.1742 8.66901H39.2945C39.3658 8.66901 39.4372 8.6155 39.4372 8.52631V7.31341C39.4372 7.24206 39.3837 7.17071 39.2945 7.17071H33.6759C33.5689 7.17071 33.4797 7.2599 33.4797 7.36692V12.6288C33.4797 12.7358 33.5689 12.825 33.6759 12.825H39.6334C39.7047 12.825 39.7761 12.7715 39.7761 12.6823V11.4694C39.7582 11.4159 39.7047 11.3624 39.6334 11.3624Z" fill="white"/>
<path d="M12.8782 0.820494L9.52487 5.79697C9.29299 6.13587 9.73891 6.54611 10.06 6.26073L13.3598 3.389C13.449 3.31765 13.5738 3.37116 13.5738 3.49602V12.4679C13.5738 12.5928 13.4133 12.6463 13.3419 12.5571L3.35332 0.606452C3.03226 0.214042 2.5685 0 2.05124 0H1.6945C0.766984 0 0 0.766983 0 1.71233V14.3408C0 15.2862 0.766983 16.0531 1.71234 16.0531C2.30095 16.0531 2.85389 15.7499 3.17496 15.2326L6.52828 10.2562C6.76016 9.91728 6.31424 9.50703 5.99317 9.79242L2.69336 12.6463C2.60418 12.7177 2.47932 12.6641 2.47932 12.5393V3.5852C2.47932 3.46034 2.63985 3.40683 2.7112 3.49602L12.6998 15.4467C13.0209 15.8391 13.5025 16.0531 14.0019 16.0531H14.3586C15.304 16.0531 16.071 15.2862 16.071 14.3408V1.71233C16.0531 0.766983 15.2862 0 14.3408 0C13.7522 0 13.1993 0.303226 12.8782 0.820494Z" fill="white"/>
</mask>
<g mask="url(#mask0_72_94)">
<rect x="-0.884064" width="61.8839" height="19.4492" fill="#C0FF59"/>
</g>
</svg>
