<svg width="18" height="16" viewBox="0 0 18 16" fill="none" xmlns="http://www.w3.org/2000/svg">
    <path d="M14.529 5.4345C14.6249 5.31779 14.675 5.2276 14.6999 5.16665H13.9086C13.884 5.47235 13.8462 5.76482 13.7973 6.0445C13.8535 6.01078 13.9084 5.97585 13.9619 5.93976L14.529 5.4345ZM14.529 5.4345C14.381 5.61462 14.1741 5.79616 13.9619 5.93972L14.529 5.4345ZM6.72393 10.6396C6.89712 10.7869 7.04894 10.9001 7.16667 10.9817V12.0833H6.33333C5.75694 12.0833 5.19763 12.2412 4.77028 12.5727C4.33152 12.913 4.05556 13.421 4.05556 14.0416V14.3541C4.05556 14.8321 4.4603 15.1666 4.88889 15.1666H13.1111C13.5397 15.1666 13.9444 14.8321 13.9444 14.3541V14.0416C13.9444 13.421 13.6685 12.913 13.2297 12.5727C12.8024 12.2412 12.2431 12.0833 11.6667 12.0833H10.8333V10.9817C10.9511 10.9001 11.1029 10.7869 11.2761 10.6396C11.6339 10.3352 12.0847 9.88321 12.5139 9.25996C13.6217 9.1072 14.6771 8.71851 15.5603 8.12011C16.7272 7.33238 17.5 6.24255 17.5 5.08331V3.62498C17.5 2.97258 16.948 2.49998 16.3333 2.49998H13.9444V1.95831C13.9444 1.30591 13.3925 0.833313 12.7778 0.833313H5.22222C4.60752 0.833313 4.05556 1.30591 4.05556 1.95831V2.49998H1.66667C1.05197 2.49998 0.5 2.97258 0.5 3.62498V5.08331C0.5 6.24188 1.26922 7.33174 2.43954 8.12002C3.3249 8.71816 4.3803 9.10701 5.48607 9.25988C5.91526 9.88317 6.36611 10.3352 6.72393 10.6396ZM4.03821 5.93982C3.74068 5.73859 3.54068 5.53597 3.41957 5.36786C3.36176 5.28763 3.32484 5.21934 3.30296 5.16665H4.08864C4.1132 5.47172 4.15088 5.76363 4.19966 6.04278C4.14461 6.00962 4.09077 5.97529 4.03821 5.93982Z" fill="#FFC700" stroke="#062C34"/>
</svg>
