<svg width="45" height="33" viewBox="0 0 45 33" fill="none" xmlns="http://www.w3.org/2000/svg">
<path d="M11.6392 17.0326C11.6392 16.2756 8.98978 16.2756 8.98978 17.0326V21.0068H5.01562C4.30607 21.0068 4.30607 23.6562 5.01562 23.6562H8.98978V27.6304C8.98978 28.3875 11.6392 28.3875 11.6392 27.6304V23.6562H15.6134C16.3229 23.6562 16.3229 21.0068 15.6134 21.0068H11.6392V17.0326Z" fill="black"/>
<path d="M31.9362 17.5054C30.7534 17.5054 29.8072 18.4515 29.8072 19.6343C29.8072 20.8172 30.7534 21.7633 31.9362 21.7633C33.119 21.7633 34.0651 20.8172 34.0651 19.6343C34.0651 18.4988 33.119 17.5054 31.9362 17.5054Z" fill="black"/>
<path d="M37.3298 22.8992C36.147 22.8992 35.2008 23.8453 35.2008 25.0281C35.2008 26.211 36.147 27.1571 37.3298 27.1571C38.5126 27.1571 39.4588 26.211 39.4588 25.0281C39.4588 23.8926 38.5126 22.8992 37.3298 22.8992Z" fill="black"/>
<path d="M31.9362 22.8992C30.7534 22.8992 29.8072 23.8453 29.8072 25.0281C29.8072 26.211 30.7534 27.1571 31.9362 27.1571C33.119 27.1571 34.0651 26.211 34.0651 25.0281C34.0651 23.8926 33.119 22.8992 31.9362 22.8992Z" fill="black"/>
<path d="M37.3298 17.5054C36.147 17.5054 35.2008 18.4515 35.2008 19.6343C35.2008 20.8172 36.147 21.7633 37.3298 21.7633C38.5126 21.7633 39.4588 20.8172 39.4588 19.6343C39.4588 18.4988 38.5126 17.5054 37.3298 17.5054Z" fill="black"/>
<path d="M34.4437 11.7335H26.5426V10.1249C26.5426 9.46257 25.9749 8.89489 25.3125 8.89489H24.7449L24.7445 7.38072C24.7445 7.00218 24.4607 6.71836 24.0822 6.71836H23.3726V0H21.6222V6.71836H20.9126C20.5341 6.71836 20.2503 7.00219 20.2503 7.38072V8.89489L19.6348 8.89456C18.9724 8.89456 18.4047 9.46221 18.4047 10.1246V11.7331H10.5983C4.82622 11.7331 0.0476625 16.3697 0.00035002 22.1892C-0.0468433 28.0085 4.68437 32.7872 10.5037 32.7872C13.2478 32.7872 15.7554 31.6991 17.6478 29.9482C18.9726 28.7182 20.6758 27.9611 22.521 27.9611C24.3189 27.9611 26.0222 28.6235 27.3469 29.901C29.2393 31.7462 31.8415 32.8343 34.6804 32.7871C40.216 32.6924 44.758 28.2449 44.9946 22.7095C45.184 16.7011 40.4053 11.7331 34.4439 11.7331L34.4437 11.7335ZM10.3144 29.7122C6.29268 29.7122 2.98089 26.4004 2.98089 22.3787C2.98089 18.3098 6.24553 15.0452 10.3144 15.0452C14.3361 15.0452 17.6479 18.357 17.6479 22.3787C17.6479 26.4001 14.3361 29.7122 10.3144 29.7122ZM34.633 29.7122C30.6113 29.7122 27.2995 26.4004 27.2995 22.3787C27.2995 18.3098 30.5641 15.0452 34.633 15.0452C38.6547 15.0452 41.9665 18.357 41.9665 22.3787C41.9662 26.4001 38.6544 29.7122 34.633 29.7122Z" fill="black"/>
</svg>
