<svg width="161" height="171" viewBox="0 0 161 171" fill="none" xmlns="http://www.w3.org/2000/svg">
<path d="M40.6492 116.368C43.8785 114.983 47.8094 115.077 50.7494 117.001C53.6894 118.925 55.3746 122.787 54.4018 126.143C53.6099 128.909 51.3099 130.963 48.9774 132.652C46.645 134.341 44.1208 135.907 42.4682 138.257C40.8155 140.608 40.2984 144.083 42.1825 146.264C44.6813 149.157 49.7404 147.909 52.1525 144.936C54.5645 141.964 55.1829 137.99 56.2027 134.301C57.1393 130.913 59.4574 127 62.9435 127.376C65.2 127.614 66.9213 129.781 67.2142 132.026C67.5072 134.272 66.7043 136.539 65.5797 138.51C64.4948 140.391 63.1206 142.192 62.8277 144.336C62.5348 146.481 63.9668 149.063 66.1294 148.969C67.7928 148.893 68.9826 147.338 69.6842 145.83C70.7318 143.566 71.2429 141.091 71.1777 138.597C71.0981 135.65 70.4147 132.138 72.6242 130.207C74.5227 128.566 77.687 129.271 79.307 131.198C80.9271 133.126 81.202 135.852 80.8512 138.337C80.5004 140.821 79.5927 143.19 79.0431 145.638C78.2663 149.298 78.3097 153.084 79.17 156.725C80.0304 160.365 81.6864 163.771 84.019 166.695C86.1418 169.317 89.9823 171.588 92.6981 169.588C93.6094 168.909 94.1735 167.856 94.564 166.786C96.2492 162.19 95.1788 157.022 93.2694 152.505C91.36 147.989 88.6406 143.855 86.8541 139.295C85.9537 136.995 85.292 134.464 85.9031 132.063C86.5143 129.661 88.778 127.549 91.2299 127.868C94.3362 128.273 95.761 131.882 96.5638 134.912C97.7572 139.428 98.953 143.942 100.151 148.455C101.319 152.87 102.95 157.857 107.138 159.665C108.411 160.219 109.904 160.389 111.184 159.872C114.222 158.61 114.439 154.212 112.964 151.268C111.004 147.359 107.207 144.73 104.53 141.266C101.854 137.802 100.553 132.337 103.757 129.332C104.147 128.913 104.68 128.655 105.25 128.609C105.973 128.609 106.599 129.137 107.123 129.654C109.676 132.185 111.951 135.028 114.891 137.089C117.831 139.15 121.697 140.344 125.042 139.024C126.344 138.518 127.573 137.545 127.91 136.185C128.517 133.693 125.971 131.614 123.653 130.518C118.091 127.886 111.687 126.54 107.319 122.201C106.494 121.38 105.706 120.263 106.017 119.138C106.302 118.086 107.416 117.514 108.447 117.153C111.101 116.224 113.924 115.875 116.725 116.129C118.236 116.267 119.755 116.578 121.252 116.35C122.749 116.122 124.279 115.193 124.633 113.721C125.136 111.613 122.977 109.692 120.833 109.381C118.688 109.07 116.551 109.797 114.399 110.036C111.952 110.279 109.482 109.975 107.167 109.146C105.995 108.741 104.668 107.924 104.751 106.684C104.839 106.095 105.122 105.552 105.554 105.143C109.676 100.601 118.091 100.2 119.889 94.3376C120.153 93.477 120.174 92.4066 119.48 91.8352C118.475 91.0071 117.017 91.8786 115.951 92.6235C112.834 94.8019 109.129 95.9823 105.326 96.0084C103.663 96.0084 101.883 95.748 100.625 94.6378C98.7806 92.9924 98.7842 89.9656 99.9884 87.8067C101.193 85.6478 103.301 84.1651 105.384 82.8307C114.587 76.9254 125.132 71.8156 130.441 62.2578C131.112 61.1679 131.544 59.9474 131.707 58.6777C131.84 56.9889 131.171 55.3218 130.26 53.897C129.131 52.1483 127.628 50.6724 125.858 49.5761C124.089 48.4797 122.098 47.7903 120.03 47.5577C117.957 47.3582 115.867 47.6469 113.926 48.4004C111.985 49.154 110.247 50.3515 108.852 51.8972C102.672 58.9236 105.435 70.7994 99.3809 77.9343C96.9472 80.802 92.481 82.4763 89.3855 80.3427C86.6155 78.4333 86.2105 74.4374 86.988 71.1683C87.7655 67.8992 89.4326 64.847 89.8593 61.5128C89.9786 60.5943 89.9894 59.6179 89.57 58.797C88.5249 56.7575 85.2955 56.8551 83.6863 58.486C82.077 60.1169 81.7371 62.6013 81.7154 64.8904C81.6937 67.1795 81.8962 69.5554 81.0754 71.6926C80.2545 73.8298 77.9799 75.6488 75.7739 75.0196C74.0743 74.535 73.0148 72.7703 72.7182 71.0417C72.4217 69.3131 72.7182 67.5158 72.8231 65.7511C73.304 57.0106 68.3389 48.1978 60.6109 44.0861C58.3146 42.8602 55.4108 42.0646 53.1904 43.4207C51.1183 44.6864 50.4167 47.3768 50.4022 49.8034C50.3881 53.6718 51.632 57.4401 53.9462 60.5401C56.8103 64.3552 61.1172 66.8974 63.9415 70.7415C66.7658 74.5856 67.3951 80.9285 63.3449 83.4491C59.2006 86.0311 54.0836 82.7475 49.6681 80.661C41.3507 76.7301 30.1005 77.8294 24.564 85.1849C22.9801 87.2859 21.935 90.1789 23.1175 92.5295C24.3001 94.8801 27.2618 95.7841 29.9017 96.1819C33.8381 96.7969 37.8295 96.9848 41.8064 96.7425C44.3377 96.587 46.9162 96.2651 49.3246 97.0282C51.733 97.7912 53.8991 100.037 53.6026 102.543C53.241 105.599 49.7224 107.128 46.6811 107.606C40.7324 108.521 34.6787 107.696 28.6649 107.577C22.651 107.457 16.2973 108.177 11.4226 111.707C9.82416 112.864 8.38487 114.372 7.78819 116.256C5.30382 124.107 16.2647 128.692 22.4449 128.157C29.9776 127.484 34.1146 119.167 40.6492 116.368Z" fill="#AC5CFD"/>
<path d="M88.0721 32.4897L89.9789 22.4411C90.4803 19.8045 91.1318 16.912 93.2943 15.3225C93.7302 14.9765 94.2354 14.7283 94.7757 14.5947C95.3159 14.4611 95.8786 14.4453 96.4255 14.5482C97.9024 14.8893 98.9053 16.3662 99.185 17.8636C99.4647 19.361 99.1577 20.8926 98.8439 22.3865C97.8956 27.0425 97.6125 33.5233 94.5495 37.3947C93.4 38.8614 92.0356 39.6186 90.1971 38.8853C87.4752 37.8074 87.6116 34.9286 88.0721 32.4897Z" fill="#AC5CFD"/>
<path d="M143.582 28.5403C143.582 26.9951 142.995 25.5011 142.218 24.1674C138.919 18.5701 128.799 15.8141 125.995 23.6695C124.048 29.127 132.261 35.2257 137.04 34.9256C140.331 34.7448 143.561 31.9887 143.582 28.5403Z" fill="#AC5CFD"/>
<path d="M48.0855 19.2043C49.3237 21.6193 50.729 24.0001 52.7312 25.8284C53.7238 26.7322 54.9892 27.5338 56.3229 27.3599C57.6566 27.1859 58.6526 26.1422 59.1301 24.9415C59.6077 23.7409 59.6247 22.4004 59.5463 21.1076C59.2836 16.6734 58.0625 12.3586 56.3604 8.26885C54.7846 4.49294 48.1162 -4.01054 44.0128 2.2076C41.0078 6.7612 46.0526 15.2511 48.0855 19.2043Z" fill="#AC5CFD"/>
<path d="M135.672 89.7666C133.601 91.5846 132.305 94.7124 133.625 97.1342C134.676 99.075 137.019 99.9277 139.212 100.204C142.797 100.64 146.429 99.9661 149.619 98.2734C151.03 97.5791 152.256 96.5583 153.194 95.2957C156.018 91.1821 152.133 86.8161 147.866 86.2089C144.069 85.6632 138.503 87.2834 135.672 89.7666Z" fill="#AC5CFD"/>
<path d="M140.713 129.716C144.302 132.786 148.255 135.681 152.873 136.64C154.156 136.941 155.487 136.98 156.786 136.756C158.093 136.525 159.273 135.83 160.108 134.798C160.602 134.136 160.904 133.35 160.981 132.528C161.057 131.705 160.905 130.877 160.541 130.135C160.133 129.397 159.583 128.745 158.924 128.218C157.338 126.854 155.449 125.943 153.576 125.039C147.931 122.311 141.979 119.619 135.709 119.797C134.56 119.831 133.37 120.138 133.257 121.475C133.168 122.498 133.864 122.959 134.502 123.641C136.455 125.782 138.529 127.81 140.713 129.716Z" fill="#AC5CFD"/>
<path d="M64.4922 135.514C61.6236 139.416 58.7414 143.336 56.497 147.626C54.2526 151.917 52.6597 156.631 52.5505 161.471C52.5267 162.495 52.6119 163.614 53.3316 164.333C53.6338 164.608 53.9962 164.807 54.3896 164.915C54.783 165.024 55.1965 165.038 55.5965 164.957C56.395 164.787 57.1412 164.428 57.7727 163.91C60.2115 162.051 61.6373 159.203 63.179 156.553C64.3626 154.53 65.6622 152.559 66.5592 150.393C67.5279 148.049 67.9987 145.536 68.7968 143.131C69.2198 141.852 69.7383 140.59 69.9531 139.259C70.168 137.929 70.035 136.48 69.271 135.378C68.5069 134.276 66.9515 133.672 65.727 134.221C65.1399 134.559 64.6517 135.045 64.3114 135.63C64.4206 135.415 64.3694 135.736 64.4922 135.514Z" fill="#AC5CFD"/>
<path d="M1.83693 112.255C3.08874 113.708 4.78398 114.895 6.6941 115.072C7.91863 115.185 9.14317 114.881 10.3745 114.84C11.7526 114.794 13.1214 115.081 14.3653 115.676C15.1805 116.065 15.9344 116.58 16.7769 116.897C17.6194 117.214 18.6188 117.303 19.3931 116.842C20.3891 116.252 20.7199 114.885 20.3822 113.773C20.0445 112.661 19.1713 111.798 18.2231 111.136C16.064 109.638 13.2329 108.854 11.8924 106.593C11.1351 105.31 11.0055 103.751 11.0533 102.261C11.1045 100.617 11.3228 98.8497 10.5178 97.4273C10.1853 96.88 9.73914 96.4104 9.20955 96.0503C8.67995 95.6901 8.07922 95.4479 7.44795 95.3398C6.18401 95.1278 4.88612 95.267 3.69592 95.7423C2.97165 95.9791 2.31283 96.3822 1.77214 96.9191C1.2059 97.6057 0.813904 98.419 0.629487 99.2897C-0.0356464 101.776 0.148534 104.205 0.0223296 106.739C-0.054262 107.733 0.0666302 108.732 0.37808 109.678C0.689529 110.625 1.18535 111.501 1.83693 112.255Z" fill="#AC5CFD"/>
<path d="M30.0284 66.6879C31.4883 65.9852 33.1528 65.5964 34.3262 64.4776C34.814 64.0078 35.1899 63.4343 35.4261 62.7996C35.6622 62.1649 35.7526 61.4852 35.6906 60.8108C35.4859 58.8086 33.9032 57.1372 32.0477 56.3766C30.1921 55.616 28.1012 55.5921 26.1024 55.8206C22.555 56.2333 18.9122 57.4886 16.6371 60.2548C16.0751 60.8986 15.6586 61.656 15.416 62.4754C15.2095 63.3918 15.22 64.3437 15.4466 65.2553C15.873 67.3934 17.0913 69.2915 18.8576 70.5695C20.4403 71.6576 23.3703 72.4524 25.0928 71.204C25.8193 70.6753 26.2764 69.7373 26.8801 69.0789C27.7699 68.0911 28.838 67.2799 30.0284 66.6879Z" fill="#AC5CFD"/>
</svg>
