<svg width="10" height="14" viewBox="0 0 10 14" fill="none" xmlns="http://www.w3.org/2000/svg">
    <mask id="path-1-outside-1_221_133" maskUnits="userSpaceOnUse" x="0" y="0" width="10" height="14" fill="black">
        <rect fill="white" width="10" height="14"/>
        <path d="M4.90403 10.6595C4.55024 10.6595 4.24924 10.7727 3.99972 10.9997C3.75002 11.2267 3.62527 11.5024 3.62527 11.8256C3.62527 12.1915 3.7515 12.4781 4.0036 12.687C4.25662 12.8956 4.55024 13 4.88705 13C5.22958 13 5.52801 12.8971 5.78343 12.6907C6.03885 12.4849 6.16582 12.1968 6.16582 11.8258C6.16582 11.5024 6.04402 11.2269 5.80022 10.9999C5.55587 10.7727 5.25745 10.6595 4.90403 10.6595ZM8.51001 2.62447C8.18594 2.12397 7.72179 1.72263 7.12956 1.4332C6.54157 1.14509 5.85651 1 5.09209 1C4.26972 1 3.53797 1.17452 2.91787 1.51925C2.29648 1.86378 1.81757 2.30617 1.49239 2.83517C1.16499 3.36585 1 3.89934 1 4.42121C1 4.70051 1.11368 4.96051 1.33792 5.19426C1.56326 5.42933 1.84378 5.54855 2.17117 5.54855C2.72852 5.54855 3.11055 5.21488 3.30451 4.56236C3.48113 4.02118 3.69872 3.60935 3.95045 3.33623C4.18741 3.07904 4.57165 2.94895 5.09228 2.94895C5.54129 2.94895 5.89545 3.07679 6.17652 3.33998C6.45335 3.60016 6.58789 3.91058 6.58789 4.28812C6.58957 4.47093 6.54421 4.65101 6.45631 4.81055C6.36289 4.98089 6.24662 5.13723 6.11082 5.27506C5.96687 5.42127 5.72954 5.6419 5.40509 5.92983C5.02713 6.26631 4.72206 6.56192 4.49931 6.8058C4.26376 7.06693 4.07456 7.36756 3.94011 7.69433C3.79967 8.03249 3.72862 8.43514 3.72862 8.89159C3.72862 9.28168 3.83566 9.58367 4.04734 9.78949C4.25681 9.99381 4.51758 10.0975 4.82301 10.0975C5.40694 10.0975 5.77365 9.77337 5.88253 9.16715C5.93901 8.91502 5.98016 8.73882 6.00803 8.63815C6.03331 8.54705 6.06985 8.4537 6.11691 8.36035C6.1625 8.26999 6.23484 8.16708 6.33173 8.05386C6.43305 7.93558 6.57091 7.79593 6.73904 7.64015C7.36818 7.06917 7.81185 6.65546 8.05804 6.41065C8.31199 6.15777 8.53345 5.85504 8.71708 5.50975C8.90459 5.15546 9 4.7395 9 4.27293C8.99963 3.6817 8.83464 3.12759 8.5089 2.62503"/>
    </mask>
    <path d="M4.90403 10.6595C4.55024 10.6595 4.24924 10.7727 3.99972 10.9997C3.75002 11.2267 3.62527 11.5024 3.62527 11.8256C3.62527 12.1915 3.7515 12.4781 4.0036 12.687C4.25662 12.8956 4.55024 13 4.88705 13C5.22958 13 5.52801 12.8971 5.78343 12.6907C6.03885 12.4849 6.16582 12.1968 6.16582 11.8258C6.16582 11.5024 6.04402 11.2269 5.80022 10.9999C5.55587 10.7727 5.25745 10.6595 4.90403 10.6595ZM8.51001 2.62447C8.18594 2.12397 7.72179 1.72263 7.12956 1.4332C6.54157 1.14509 5.85651 1 5.09209 1C4.26972 1 3.53797 1.17452 2.91787 1.51925C2.29648 1.86378 1.81757 2.30617 1.49239 2.83517C1.16499 3.36585 1 3.89934 1 4.42121C1 4.70051 1.11368 4.96051 1.33792 5.19426C1.56326 5.42933 1.84378 5.54855 2.17117 5.54855C2.72852 5.54855 3.11055 5.21488 3.30451 4.56236C3.48113 4.02118 3.69872 3.60935 3.95045 3.33623C4.18741 3.07904 4.57165 2.94895 5.09228 2.94895C5.54129 2.94895 5.89545 3.07679 6.17652 3.33998C6.45335 3.60016 6.58789 3.91058 6.58789 4.28812C6.58957 4.47093 6.54421 4.65101 6.45631 4.81055C6.36289 4.98089 6.24662 5.13723 6.11082 5.27506C5.96687 5.42127 5.72954 5.6419 5.40509 5.92983C5.02713 6.26631 4.72206 6.56192 4.49931 6.8058C4.26376 7.06693 4.07456 7.36756 3.94011 7.69433C3.79967 8.03249 3.72862 8.43514 3.72862 8.89159C3.72862 9.28168 3.83566 9.58367 4.04734 9.78949C4.25681 9.99381 4.51758 10.0975 4.82301 10.0975C5.40694 10.0975 5.77365 9.77337 5.88253 9.16715C5.93901 8.91502 5.98016 8.73882 6.00803 8.63815C6.03331 8.54705 6.06985 8.4537 6.11691 8.36035C6.1625 8.26999 6.23484 8.16708 6.33173 8.05386C6.43305 7.93558 6.57091 7.79593 6.73904 7.64015C7.36818 7.06917 7.81185 6.65546 8.05804 6.41065C8.31199 6.15777 8.53345 5.85504 8.71708 5.50975C8.90459 5.15546 9 4.7395 9 4.27293C8.99963 3.6817 8.83464 3.12759 8.5089 2.62503" fill="#FFC700"/>
    <path d="M3.99972 10.9997L4.67241 11.7396L4.67268 11.7394L3.99972 10.9997ZM4.0036 12.687L3.36569 13.4571L3.36741 13.4585L4.0036 12.687ZM5.78343 12.6907L5.15597 11.912L5.15494 11.9129L5.78343 12.6907ZM5.80022 10.9999L6.48168 10.268L6.48115 10.2675L5.80022 10.9999ZM4.90403 9.65946C4.35175 9.65946 3.90403 10.1072 3.90403 10.6595C3.90403 11.2117 4.35175 11.6595 4.90403 11.6595V9.65946ZM7.12956 1.4332L6.68954 2.33119L6.69048 2.33165L7.12956 1.4332ZM2.91787 1.51925L3.40279 2.39381L3.40376 2.39327L2.91787 1.51925ZM1.49239 2.83517L2.34346 3.36022L2.3443 3.35885L1.49239 2.83517ZM1.33792 5.19426L2.0598 4.50225L2.05957 4.50201L1.33792 5.19426ZM3.30451 4.56236L2.35386 4.25211C2.35112 4.26051 2.34848 4.26895 2.34596 4.27743L3.30451 4.56236ZM3.95045 3.33623L4.68576 4.01396L4.68587 4.01383L3.95045 3.33623ZM6.17652 3.33998L6.86139 2.6113L6.86002 2.61002L6.17652 3.33998ZM6.58789 4.28812H5.58785L5.58793 4.29728L6.58789 4.28812ZM6.45631 4.81055L5.58046 4.32796L5.57949 4.32972L6.45631 4.81055ZM6.11082 5.27506L5.39848 4.57323L5.39823 4.57348L6.11082 5.27506ZM5.40509 5.92983L4.74133 5.18189L4.74017 5.18292L5.40509 5.92983ZM4.49931 6.8058L3.76094 6.13137L3.75676 6.136L4.49931 6.8058ZM3.94011 7.69433L4.86364 8.07788L4.86489 8.07483L3.94011 7.69433ZM4.04734 9.78949L4.7456 9.07365L4.74445 9.07253L4.04734 9.78949ZM5.88253 9.16715L4.90671 8.94857C4.90361 8.96244 4.90079 8.97637 4.89828 8.99036L5.88253 9.16715ZM6.00803 8.63815L5.04445 8.37073L5.04428 8.37135L6.00803 8.63815ZM6.11691 8.36035L5.22411 7.90991L5.22397 7.91019L6.11691 8.36035ZM6.33173 8.05386L5.57227 7.40331L5.57196 7.40368L6.33173 8.05386ZM6.73904 7.64015L6.06696 6.89961L6.0594 6.90661L6.73904 7.64015ZM8.05804 6.41065L8.76316 7.11974L8.76365 7.11925L8.05804 6.41065ZM8.71708 5.50975L9.59999 5.97929L9.60093 5.97752L8.71708 5.50975ZM9 4.27293H10V4.27231L9 4.27293ZM4.90403 9.65946C4.31475 9.65946 3.77007 9.85669 3.32677 10.26L4.67268 11.7394C4.7284 11.6887 4.78573 11.6595 4.90403 11.6595V9.65946ZM3.32704 10.2598C2.87866 10.6674 2.62527 11.2077 2.62527 11.8256H4.62527C4.62527 11.8095 4.62679 11.8002 4.62763 11.7962C4.62843 11.7923 4.62916 11.7905 4.6297 11.7893C4.62975 11.7892 4.63688 11.7719 4.67241 11.7396L3.32704 10.2598ZM2.62527 11.8256C2.62527 12.4509 2.85621 13.035 3.36569 13.4571L4.64151 11.9168C4.63386 11.9105 4.63207 11.9077 4.63305 11.909C4.6334 11.9095 4.63395 11.9103 4.63452 11.9112C4.6351 11.9122 4.63537 11.9128 4.63537 11.9128C4.63536 11.9128 4.63485 11.9116 4.63404 11.909C4.63323 11.9064 4.63202 11.902 4.63075 11.8954C4.6282 11.8822 4.62527 11.8596 4.62527 11.8256H2.62527ZM3.36741 13.4585C3.80385 13.8184 4.32373 14 4.88705 14V12C4.77676 12 4.70939 11.9728 4.63979 11.9154L3.36741 13.4585ZM4.88705 14C5.44748 14 5.97032 13.8253 6.41192 13.4685L5.15494 11.9129C5.08569 11.9688 5.01169 12 4.88705 12V14ZM6.41088 13.4694C6.93561 13.0465 7.16582 12.4531 7.16582 11.8258H5.16582C5.16582 11.8968 5.15393 11.9201 5.15569 11.9161C5.15631 11.9147 5.158 11.9116 5.1603 11.9086C5.1625 11.9058 5.16213 11.9071 5.15597 11.912L6.41088 13.4694ZM7.16582 11.8258C7.16582 11.2161 6.92212 10.6781 6.48168 10.268L5.11876 11.7317C5.1521 11.7628 5.15928 11.7798 5.15997 11.7814C5.16039 11.7823 5.16582 11.793 5.16582 11.8258H7.16582ZM6.48115 10.2675C6.0398 9.85716 5.49323 9.65946 4.90403 9.65946V11.6595C5.02168 11.6595 5.07195 11.6882 5.11929 11.7322L6.48115 10.2675ZM9.34941 2.08096C8.91694 1.41305 8.30731 0.895753 7.56863 0.534756L6.69048 2.33165C7.13626 2.54951 7.45493 2.83488 7.67061 3.16798L9.34941 2.08096ZM7.56957 0.535215C6.82277 0.169281 5.9827 0 5.09209 0V2C5.73032 2 6.26037 2.1209 6.68954 2.33119L7.56957 0.535215ZM5.09209 0C4.12731 0 3.22311 0.205419 2.43199 0.645224L3.40376 2.39327C3.85283 2.14362 4.41213 2 5.09209 2V0ZM2.43296 0.644683C1.68277 1.06064 1.06792 1.61613 0.640476 2.31148L2.3443 3.35885C2.56722 2.99621 2.91019 2.66693 3.40279 2.39381L2.43296 0.644683ZM0.64132 2.31011C0.235036 2.96866 0 3.68159 0 4.42121H2C2 4.11708 2.09494 3.76303 2.34345 3.36022L0.64132 2.31011ZM0 4.42121C0 4.99978 0.244169 5.49862 0.616264 5.88652L2.05957 4.50201C2.01729 4.45793 2.00408 4.43097 2.00115 4.42427C1.99958 4.42069 1.99958 4.41983 1.99984 4.42106C2.0001 4.42231 2 4.42272 2 4.42121H0ZM0.616031 5.88628C1.03125 6.31942 1.57308 6.54855 2.17117 6.54855V4.54855C2.13127 4.54855 2.11357 4.54184 2.10752 4.53927C2.10159 4.53675 2.08566 4.52923 2.0598 4.50225L0.616031 5.88628ZM2.17117 6.54855C2.66476 6.54855 3.14036 6.39438 3.5309 6.05423C3.90537 5.72807 4.13046 5.29339 4.26306 4.84729L2.34596 4.27743C2.2846 4.48385 2.2217 4.54227 2.21732 4.54608C2.21593 4.54729 2.21638 4.54672 2.21847 4.54549C2.2194 4.54495 2.22034 4.54446 2.22119 4.54407C2.2216 4.54388 2.22194 4.54373 2.22219 4.54363C2.22243 4.54353 2.22256 4.54349 2.22255 4.54349C2.22253 4.5435 2.22235 4.54356 2.22198 4.54367C2.22161 4.54379 2.22102 4.54395 2.2202 4.54416C2.21858 4.54457 2.21588 4.54518 2.21197 4.54582C2.20419 4.54708 2.19092 4.54855 2.17117 4.54855V6.54855ZM4.25517 4.87261C4.40819 4.40374 4.5686 4.14107 4.68576 4.01396L3.21513 2.6585C2.82883 3.07763 2.55407 3.63862 2.35386 4.25211L4.25517 4.87261ZM4.68587 4.01383C4.65686 4.04532 4.71325 3.94895 5.09228 3.94895V1.94895C4.43005 1.94895 3.71796 2.11277 3.21502 2.65862L4.68587 4.01383ZM5.09228 3.94895C5.33219 3.94895 5.42752 4.00859 5.49303 4.06993L6.86002 2.61002C6.36338 2.14499 5.7504 1.94895 5.09228 1.94895V3.94895ZM5.49166 4.06865C5.56854 4.1409 5.58789 4.18811 5.58789 4.28812H7.58789C7.58789 3.63306 7.33817 3.05942 6.86139 2.6113L5.49166 4.06865ZM5.58793 4.29728C5.58804 4.3089 5.5851 4.31954 5.58046 4.32796L7.33216 5.29313C7.50332 4.98249 7.59109 4.63296 7.58785 4.27895L5.58793 4.29728ZM5.57949 4.32972C5.53026 4.4195 5.46925 4.5014 5.39848 4.57323L6.82317 5.97689C7.02399 5.77306 7.19553 5.54229 7.33312 5.29137L5.57949 4.32972ZM5.39823 4.57348C5.27883 4.69475 5.06216 4.89717 4.74133 5.18189L6.06886 6.67777C6.39692 6.38663 6.65491 6.14779 6.82342 5.97663L5.39823 4.57348ZM4.74017 5.18292C4.34755 5.53245 4.01512 5.85312 3.76095 6.13139L5.23766 7.48021C5.429 7.27073 5.70671 7.00017 6.07002 6.67674L4.74017 5.18292ZM3.75676 6.136C3.44394 6.4828 3.19325 6.8814 3.01533 7.31383L4.86489 8.07483C4.95587 7.85371 5.08358 7.65105 5.24185 7.47559L3.75676 6.136ZM3.01659 7.31078C2.81481 7.79663 2.72861 8.33509 2.72861 8.89159H4.72862C4.72862 8.53519 4.78452 8.26836 4.86363 8.07788L3.01659 7.31078ZM2.72861 8.89159C2.72861 9.46088 2.88822 10.0572 3.35022 10.5064L4.74445 9.07253C4.75755 9.08526 4.75723 9.09272 4.75102 9.07523C4.74331 9.0535 4.72862 8.99719 4.72862 8.89159H2.72861ZM3.34907 10.5053C3.7539 10.9002 4.26891 11.0975 4.82301 11.0975V9.09748C4.78513 9.09748 4.7701 9.09144 4.76831 9.09072C4.76656 9.09003 4.76471 9.08914 4.76206 9.08741C4.75934 9.08562 4.75378 9.08162 4.7456 9.07365L3.34907 10.5053ZM4.82301 11.0975C5.30519 11.0975 5.79438 10.9597 6.19135 10.6105C6.58215 10.2668 6.78378 9.80602 6.86678 9.34393L4.89828 8.99036C4.8854 9.06208 4.86935 9.10013 4.86183 9.11491C4.85523 9.12788 4.85624 9.12129 4.87047 9.10876C4.87691 9.1031 4.8838 9.09826 4.89023 9.09459C4.89658 9.09096 4.90035 9.08969 4.90006 9.08979C4.89943 9.09 4.87692 9.09748 4.82301 9.09748V11.0975ZM6.85835 9.38572C6.91605 9.12812 6.95178 8.97721 6.97178 8.90496L5.04428 8.37135C5.00854 8.50042 4.96196 8.70192 4.90671 8.94857L6.85835 9.38572ZM6.97161 8.90558C6.97777 8.88336 6.98943 8.85104 7.00986 8.81051L5.22397 7.91019C5.15028 8.05635 5.08885 8.21074 5.04445 8.37073L6.97161 8.90558ZM7.00972 8.81079C7.00626 8.81765 7.00903 8.81093 7.02376 8.78993C7.03805 8.76956 7.05993 8.74095 7.09151 8.70405L5.57196 7.40368C5.44605 7.5508 5.319 7.72182 5.22411 7.90991L7.00972 8.81079ZM7.0912 8.70441C7.15817 8.62623 7.26573 8.51541 7.41868 8.3737L6.0594 6.90661C5.8761 7.07644 5.70794 7.24493 5.57227 7.40331L7.0912 8.70441ZM7.41109 8.38066C8.04024 7.80967 8.4991 7.38231 8.76316 7.11974L7.35293 5.70156C7.12459 5.92861 6.69613 6.32867 6.06699 6.89965L7.41109 8.38066ZM8.76365 7.11925C9.09443 6.78987 9.37376 6.40468 9.59999 5.97929L7.83417 5.0402C7.69314 5.30539 7.52955 5.52568 7.35243 5.70205L8.76365 7.11925ZM9.60093 5.97752C9.87607 5.45765 10 4.87642 10 4.27293H8C8 4.60259 7.9331 4.85327 7.83323 5.04197L9.60093 5.97752ZM10 4.27231C9.99951 3.48588 9.77735 2.74348 9.34806 2.08113L7.66975 3.16893C7.89193 3.51171 7.99975 3.87753 8 4.27356L10 4.27231Z" fill="#062C34" mask="url(#path-1-outside-1_221_133)"/>
</svg>
