<svg xmlns="http://www.w3.org/2000/svg" width="96" height="96" viewBox="0 0 96 96" fill="none">
    <circle cx="48" cy="48" r="48" fill="#FFFDF7"/>
    <path d="M67.3148 30.4073C63.6392 28.7458 59.8125 27.5374 55.8349 26.8828C55.3314 27.7891 54.7775 28.9472 54.3747 29.9038C50.1453 29.2493 45.8655 29.2493 41.636 29.9038C41.1829 28.8465 40.6794 27.8395 40.1255 26.8828C36.1478 27.5374 32.2709 28.7458 28.6456 30.4577C21.3952 41.283 19.4315 51.8063 20.3882 62.2288C24.6679 65.4009 29.4009 67.8177 34.4863 69.3282C35.6443 67.7674 36.6513 66.1562 37.5073 64.4442C35.8457 63.84 34.2849 63.0848 32.7744 62.1785C33.1772 61.8764 33.5296 61.5743 33.9324 61.2722C42.8445 65.5016 53.2166 65.5016 62.1287 61.2722C62.5315 61.5743 62.8839 61.8764 63.2867 62.1785C61.7762 63.0848 60.165 63.84 58.5034 64.4442C59.3594 66.1562 60.3664 67.7674 61.5245 69.3282C66.6099 67.7674 71.3931 65.4009 75.6226 62.2288C76.7303 50.1447 73.6086 39.6718 67.3148 30.4073ZM38.7157 55.784C35.9464 55.784 33.731 53.2664 33.731 50.1951C33.731 47.1237 35.9464 44.5558 38.7157 44.5558C41.5353 44.5558 43.7508 47.0733 43.7508 50.1951C43.7004 53.2664 41.5353 55.784 38.7157 55.784ZM57.2447 55.784C54.4754 55.784 52.26 53.2664 52.26 50.1951C52.26 47.1237 54.4754 44.5558 57.2447 44.5558C60.0643 44.5558 62.2797 47.0733 62.2294 50.1951C62.179 53.3168 60.0139 55.784 57.2447 55.784Z" fill="black"/>
</svg>
