<svg width="62" height="40" viewBox="0 0 62 40" fill="none" xmlns="http://www.w3.org/2000/svg">
    <mask id="path-1-outside-1_388_91" maskUnits="userSpaceOnUse" x="0" y="0" width="62" height="40" fill="black">
        <rect fill="white" width="62" height="40"/>
        <path d="M60 20C60 15.7972 56.593 12.3902 52.3902 12.3902H30.4359C27.4614 12.3902 25.036 10.006 24.985 7.03201V7.03201C24.8976 1.93654 18.4891 -0.263746 15.2902 3.70341L2.11636 20.0411C2.07762 20.0891 2 20.0617 2 20V20C2 19.9383 2.07761 19.9109 2.11635 19.9589L15.2902 36.2966C18.4891 40.2637 24.8976 38.0635 24.985 32.968V32.968C25.036 29.994 27.4614 27.6098 30.4359 27.6098H52.3902C56.593 27.6098 60 24.2028 60 20V20Z"/>
    </mask>
    <g filter="url(#filter0_ii_388_91)">
        <path d="M60 20C60 15.7972 56.593 12.3902 52.3902 12.3902H30.4359C27.4614 12.3902 25.036 10.006 24.985 7.03201V7.03201C24.8976 1.93654 18.4891 -0.263746 15.2902 3.70341L2.11636 20.0411C2.07762 20.0891 2 20.0617 2 20V20C2 19.9383 2.07761 19.9109 2.11635 19.9589L15.2902 36.2966C18.4891 40.2637 24.8976 38.0635 24.985 32.968V32.968C25.036 29.994 27.4614 27.6098 30.4359 27.6098H52.3902C56.593 27.6098 60 24.2028 60 20V20Z" fill="#FFC700"/>
    </g>
    <path d="M15.2902 36.2966L14.1225 37.2381L15.2902 36.2966ZM15.2902 3.70341L16.4579 4.64497L15.2902 3.70341ZM2.11636 19.9589L3.28403 19.0174L2.11636 19.9589ZM2.11636 20.0411L3.28403 20.9826L2.11636 20.0411ZM52.3902 13.8902H30.4359V10.8902H52.3902V13.8902ZM16.4579 4.64497L3.28403 20.9826L0.948677 19.0995L14.1225 2.76186L16.4579 4.64497ZM30.4359 26.1098H52.3902V29.1098H30.4359V26.1098ZM3.28403 19.0174L16.4579 35.355L14.1225 37.2381L0.948677 20.9005L3.28403 19.0174ZM16.4579 35.355C18.7767 38.2306 23.4219 36.6358 23.4852 32.9423L26.4848 32.9937C26.3734 39.4912 18.2016 42.2968 14.1225 37.2381L16.4579 35.355ZM30.4359 29.1098C28.2798 29.1098 26.5217 30.838 26.4848 32.9937L23.4852 32.9423C23.5502 29.15 26.643 26.1098 30.4359 26.1098V29.1098ZM23.4852 7.05772C23.4219 3.36424 18.7767 1.76935 16.4579 4.64497L14.1225 2.76186C18.2016 -2.29684 26.3734 0.508838 26.4848 7.0063L23.4852 7.05772ZM30.4359 13.8902C26.643 13.8902 23.5502 10.85 23.4852 7.05772L26.4848 7.0063C26.5217 9.16203 28.2798 10.8902 30.4359 10.8902V13.8902ZM61.5 20C61.5 25.0312 57.4214 29.1098 52.3902 29.1098V26.1098C55.7646 26.1098 58.5 23.3743 58.5 20H61.5ZM0.5 20C0.5 18.5233 2.35708 17.8678 3.28403 19.0174L0.948677 20.9005C1.79815 21.954 3.5 21.3533 3.5 20H0.5ZM3.5 20C3.5 18.6466 1.79807 18.0461 0.948677 19.0995L3.28403 20.9826C2.35716 22.1321 0.5 21.4769 0.5 20H3.5ZM58.5 20C58.5 16.6257 55.7646 13.8902 52.3902 13.8902V10.8902C57.4214 10.8902 61.5 14.9688 61.5 20H58.5Z" fill="#062C34" mask="url(#path-1-outside-1_388_91)"/>
    <defs>
        <filter id="filter0_ii_388_91" x="0.5" y="0.160889" width="61" height="39.6782" filterUnits="userSpaceOnUse" color-interpolation-filters="sRGB">
            <feFlood flood-opacity="0" result="BackgroundImageFix"/>
            <feBlend mode="normal" in="SourceGraphic" in2="BackgroundImageFix" result="shape"/>
            <feColorMatrix in="SourceAlpha" type="matrix" values="0 0 0 0 0 0 0 0 0 0 0 0 0 0 0 0 0 0 127 0" result="hardAlpha"/>
            <feOffset dy="4"/>
            <feComposite in2="hardAlpha" operator="arithmetic" k2="-1" k3="1"/>
            <feColorMatrix type="matrix" values="0 0 0 0 1 0 0 0 0 0.85098 0 0 0 0 0.482353 0 0 0 1 0"/>
            <feBlend mode="normal" in2="shape" result="effect1_innerShadow_388_91"/>
            <feColorMatrix in="SourceAlpha" type="matrix" values="0 0 0 0 0 0 0 0 0 0 0 0 0 0 0 0 0 0 127 0" result="hardAlpha"/>
            <feOffset dy="-4"/>
            <feComposite in2="hardAlpha" operator="arithmetic" k2="-1" k3="1"/>
            <feColorMatrix type="matrix" values="0 0 0 0 0.905882 0 0 0 0 0.639216 0 0 0 0 0 0 0 0 1 0"/>
            <feBlend mode="normal" in2="effect1_innerShadow_388_91" result="effect2_innerShadow_388_91"/>
        </filter>
    </defs>
</svg>
