<svg width="19" height="14" viewBox="0 0 19 14" fill="none" xmlns="http://www.w3.org/2000/svg">
    <mask id="path-1-outside-1_389_355" maskUnits="userSpaceOnUse" x="0" y="0" width="19" height="14" fill="black">
        <rect fill="white" width="19" height="14"/>
        <path d="M2 7C2 5.94931 2.85175 5.09756 3.90244 5.09756H9.66625C10.4243 5.09756 11.0426 4.49014 11.0561 3.73218V3.73218C11.0789 2.44484 12.6886 1.87771 13.5133 2.86643L16.9703 7.01076C16.9804 7.02281 17 7.0157 17 7V7C17 6.9843 16.9804 6.97719 16.9703 6.98925L13.5133 11.1336C12.6886 12.1223 11.0789 11.5552 11.0561 10.2678V10.2678C11.0426 9.50986 10.4243 8.90244 9.66625 8.90244H3.90244C2.85175 8.90244 2 8.05069 2 7V7Z"/>
    </mask>
    <g filter="url(#filter0_ii_389_355)">
        <path d="M2 7C2 5.94931 2.85175 5.09756 3.90244 5.09756H9.66625C10.4243 5.09756 11.0426 4.49014 11.0561 3.73218V3.73218C11.0789 2.44484 12.6886 1.87771 13.5133 2.86643L16.9703 7.01076C16.9804 7.02281 17 7.0157 17 7V7C17 6.9843 16.9804 6.97719 16.9703 6.98925L13.5133 11.1336C12.6886 12.1223 11.0789 11.5552 11.0561 10.2678V10.2678C11.0426 9.50986 10.4243 8.90244 9.66625 8.90244H3.90244C2.85175 8.90244 2 8.05069 2 7V7Z" fill="#FFC700"/>
    </g>
    <path d="M13.5133 11.1336L12.3614 10.1727L13.5133 11.1336ZM13.5133 2.86643L12.3614 3.82726L13.5133 2.86643ZM16.9703 6.98924L15.8184 6.02841L16.9703 6.98924ZM16.9703 7.01076L18.1222 6.04992L16.9703 7.01076ZM3.90244 6.59756H9.66625V3.59756H3.90244V6.59756ZM12.3614 3.82726L15.8184 7.97159L18.1222 6.04992L14.6652 1.90559L12.3614 3.82726ZM9.66625 7.40244H3.90244V10.4024H9.66625V7.40244ZM15.8184 6.02841L12.3614 10.1727L14.6652 12.0944L18.1222 7.95008L15.8184 6.02841ZM12.3614 10.1727C12.3588 10.1759 12.3641 10.169 12.3789 10.1598C12.3932 10.1508 12.4098 10.1439 12.4262 10.1399C12.4573 10.1322 12.4758 10.1371 12.4824 10.1395C12.489 10.1418 12.5065 10.1496 12.5259 10.175C12.5362 10.1885 12.5448 10.2042 12.5504 10.2202C12.5561 10.2367 12.5559 10.2453 12.5558 10.2412L9.5563 10.2944C9.60377 12.9709 12.9504 14.1501 14.6652 12.0944L12.3614 10.1727ZM9.66625 10.4024C9.60628 10.4024 9.55737 10.3544 9.5563 10.2944L12.5558 10.2412C12.5279 8.66533 11.2424 7.40244 9.66625 7.40244V10.4024ZM12.5558 3.75877C12.5559 3.75469 12.5561 3.76331 12.5504 3.77977C12.5448 3.79577 12.5362 3.81153 12.5259 3.82499C12.5065 3.85044 12.489 3.85822 12.4824 3.86054C12.4758 3.86287 12.4573 3.86776 12.4262 3.86011C12.4098 3.85607 12.3932 3.84916 12.3789 3.8402C12.3641 3.83098 12.3588 3.82413 12.3614 3.82726L14.6652 1.90559C12.9504 -0.150053 9.60377 1.02906 9.5563 3.70558L12.5558 3.75877ZM9.66625 6.59756C11.2424 6.59756 12.5279 5.33467 12.5558 3.75877L9.5563 3.70558C9.55737 3.64562 9.60628 3.59756 9.66625 3.59756V6.59756ZM0.5 7C0.5 8.87912 2.02332 10.4024 3.90244 10.4024V7.40244C3.68018 7.40244 3.5 7.22226 3.5 7H0.5ZM18.5 7C18.5 5.58172 16.7269 4.93929 15.8184 6.02841L18.1222 7.95008C17.2338 9.01508 15.5 8.38688 15.5 7H18.5ZM15.5 7C15.5 5.61298 17.2339 4.98502 18.1222 6.04992L15.8184 7.97159C16.7269 9.0606 18.5 8.41842 18.5 7H15.5ZM3.5 7C3.5 6.77774 3.68018 6.59756 3.90244 6.59756V3.59756C2.02332 3.59756 0.5 5.12088 0.5 7H3.5Z" fill="#062C34" mask="url(#path-1-outside-1_389_355)"/>
    <defs>
        <filter id="filter0_ii_389_355" x="0.5" y="0.861328" width="18" height="12.2773" filterUnits="userSpaceOnUse" color-interpolation-filters="sRGB">
            <feFlood flood-opacity="0" result="BackgroundImageFix"/>
            <feBlend mode="normal" in="SourceGraphic" in2="BackgroundImageFix" result="shape"/>
            <feColorMatrix in="SourceAlpha" type="matrix" values="0 0 0 0 0 0 0 0 0 0 0 0 0 0 0 0 0 0 127 0" result="hardAlpha"/>
            <feOffset dy="4"/>
            <feComposite in2="hardAlpha" operator="arithmetic" k2="-1" k3="1"/>
            <feColorMatrix type="matrix" values="0 0 0 0 1 0 0 0 0 0.85098 0 0 0 0 0.482353 0 0 0 1 0"/>
            <feBlend mode="normal" in2="shape" result="effect1_innerShadow_389_355"/>
            <feColorMatrix in="SourceAlpha" type="matrix" values="0 0 0 0 0 0 0 0 0 0 0 0 0 0 0 0 0 0 127 0" result="hardAlpha"/>
            <feOffset dy="-4"/>
            <feComposite in2="hardAlpha" operator="arithmetic" k2="-1" k3="1"/>
            <feColorMatrix type="matrix" values="0 0 0 0 0.905882 0 0 0 0 0.639216 0 0 0 0 0 0 0 0 1 0"/>
            <feBlend mode="normal" in2="effect1_innerShadow_389_355" result="effect2_innerShadow_389_355"/>
        </filter>
    </defs>
</svg>
