<svg width="24" height="24" viewBox="0 0 24 24" fill="none" xmlns="http://www.w3.org/2000/svg">
<circle cx="12" cy="12" r="12" fill="#FFFDF7"/>
<path d="M18.9843 7.74997C18.461 7.98166 17.9061 8.13375 17.3379 8.2012C17.9353 7.84255 18.3821 7.27907 18.5952 6.61561C18.0329 6.95049 17.4175 7.18673 16.7756 7.31411C16.3432 6.85671 15.7724 6.5542 15.1512 6.4532C14.53 6.3522 13.8927 6.45831 13.3377 6.75518C12.7827 7.05206 12.3408 7.52322 12.08 8.09604C11.8192 8.66887 11.754 9.31157 11.8945 9.9251C10.7548 9.86813 9.63988 9.57209 8.62207 9.0562C7.60425 8.54031 6.70632 7.81612 5.98659 6.93064C5.6204 7.56171 5.5083 8.30856 5.67308 9.01934C5.83787 9.73011 6.26716 10.3514 6.87369 10.757C6.41774 10.7432 5.97175 10.6203 5.57308 10.3987C5.57308 10.4106 5.57308 10.4224 5.57308 10.435C5.57358 11.0976 5.80346 11.7395 6.22366 12.2518C6.64386 12.764 7.22846 13.115 7.87813 13.2451C7.45608 13.36 7.01332 13.3767 6.58381 13.294C6.7668 13.8635 7.12326 14.3616 7.60333 14.7186C8.08339 15.0755 8.66303 15.2734 9.26115 15.2847C8.24504 16.0818 6.99027 16.5138 5.69881 16.5112C5.47005 16.5114 5.24148 16.4981 5.01428 16.4714C6.3248 17.3136 7.85004 17.7607 9.40784 17.7595C14.6794 17.7595 17.5621 13.3917 17.5621 9.60449C17.5621 9.48015 17.5621 9.35652 17.5544 9.23358C18.1155 8.82799 18.5996 8.32559 18.9843 7.74997Z" fill="black"/>
</svg>
