<svg width="48" height="59" viewBox="0 0 48 59" fill="none" xmlns="http://www.w3.org/2000/svg">
    <g filter="url(#filter0_ii_1_10)">
        <ellipse cx="24.0002" cy="35.3511" rx="22.234" ry="21.6489" fill="#FF5959"/>
    </g>
    <path d="M24.0002 57.75C36.6749 57.75 46.9842 47.7404 46.9842 35.3511C46.9842 22.9617 36.6749 12.9521 24.0002 12.9521C11.3254 12.9521 1.01611 22.9617 1.01611 35.3511C1.01611 47.7404 11.3254 57.75 24.0002 57.75Z" stroke="#062C34" stroke-width="1.5"/>
    <g filter="url(#filter1_ii_1_10)">
        <ellipse cx="24.0002" cy="6.09574" rx="9.3617" ry="4.09574" fill="#FF5959"/>
    </g>
    <path d="M24.0002 10.9415C26.6637 10.9415 29.111 10.4706 30.9205 9.67899C31.8241 9.28366 32.6025 8.79356 33.1654 8.21129C33.7318 7.62542 34.1119 6.9094 34.1119 6.09574C34.1119 5.28209 33.7318 4.56607 33.1654 3.9802C32.6025 3.39793 31.8241 2.90783 30.9205 2.5125C29.111 1.72086 26.6637 1.25 24.0002 1.25C21.3366 1.25 18.8893 1.72086 17.0798 2.5125C16.1762 2.90783 15.3979 3.39793 14.8349 3.9802C14.2685 4.56607 13.8885 5.28209 13.8885 6.09574C13.8885 6.9094 14.2685 7.62542 14.8349 8.21129C15.3979 8.79356 16.1762 9.28366 17.0798 9.67899C18.8893 10.4706 21.3366 10.9415 24.0002 10.9415Z" stroke="#062C34" stroke-width="1.5"/>
    <defs>
        <filter id="filter0_ii_1_10" x="0.266113" y="12.2021" width="47.4681" height="46.2979" filterUnits="userSpaceOnUse" color-interpolation-filters="sRGB">
            <feFlood flood-opacity="0" result="BackgroundImageFix"/>
            <feBlend mode="normal" in="SourceGraphic" in2="BackgroundImageFix" result="shape"/>
            <feColorMatrix in="SourceAlpha" type="matrix" values="0 0 0 0 0 0 0 0 0 0 0 0 0 0 0 0 0 0 127 0" result="hardAlpha"/>
            <feOffset dy="-4"/>
            <feComposite in2="hardAlpha" operator="arithmetic" k2="-1" k3="1"/>
            <feColorMatrix type="matrix" values="0 0 0 0 0.839216 0 0 0 0 0.145098 0 0 0 0 0.0509804 0 0 0 1 0"/>
            <feBlend mode="normal" in2="shape" result="effect1_innerShadow_1_10"/>
            <feColorMatrix in="SourceAlpha" type="matrix" values="0 0 0 0 0 0 0 0 0 0 0 0 0 0 0 0 0 0 127 0" result="hardAlpha"/>
            <feOffset dy="4"/>
            <feComposite in2="hardAlpha" operator="arithmetic" k2="-1" k3="1"/>
            <feColorMatrix type="matrix" values="0 0 0 0 1 0 0 0 0 0.592157 0 0 0 0 0.592157 0 0 0 1 0"/>
            <feBlend mode="normal" in2="effect1_innerShadow_1_10" result="effect2_innerShadow_1_10"/>
        </filter>
        <filter id="filter1_ii_1_10" x="13.1385" y="0.5" width="21.7234" height="11.1915" filterUnits="userSpaceOnUse" color-interpolation-filters="sRGB">
            <feFlood flood-opacity="0" result="BackgroundImageFix"/>
            <feBlend mode="normal" in="SourceGraphic" in2="BackgroundImageFix" result="shape"/>
            <feColorMatrix in="SourceAlpha" type="matrix" values="0 0 0 0 0 0 0 0 0 0 0 0 0 0 0 0 0 0 127 0" result="hardAlpha"/>
            <feOffset dy="-4"/>
            <feComposite in2="hardAlpha" operator="arithmetic" k2="-1" k3="1"/>
            <feColorMatrix type="matrix" values="0 0 0 0 0.839216 0 0 0 0 0.145098 0 0 0 0 0.0509804 0 0 0 1 0"/>
            <feBlend mode="normal" in2="shape" result="effect1_innerShadow_1_10"/>
            <feColorMatrix in="SourceAlpha" type="matrix" values="0 0 0 0 0 0 0 0 0 0 0 0 0 0 0 0 0 0 127 0" result="hardAlpha"/>
            <feOffset dy="4"/>
            <feComposite in2="hardAlpha" operator="arithmetic" k2="-1" k3="1"/>
            <feColorMatrix type="matrix" values="0 0 0 0 1 0 0 0 0 0.592157 0 0 0 0 0.592157 0 0 0 1 0"/>
            <feBlend mode="normal" in2="effect1_innerShadow_1_10" result="effect2_innerShadow_1_10"/>
        </filter>
    </defs>
</svg>
