<svg width="76" height="50" viewBox="0 0 76 50" fill="none" xmlns="http://www.w3.org/2000/svg">
<path d="M7.42606 24.5141C7.31151 28.5136 6.33643 32.4093 5.92432 36.3829C5.77345 37.834 5.7064 39.3599 6.20372 40.7055C6.70103 42.0511 7.89963 43.1403 9.13734 42.9195C10.1711 42.7296 10.9534 41.7151 11.4465 40.6471C15.1317 32.768 7.83258 22.9266 10.1823 14.3853C10.681 12.5754 11.976 10.6795 13.7208 11.3304C14.2812 11.5483 14.763 11.9773 15.0898 12.5494C16.7899 15.4355 15.9727 19.0244 15.4949 22.3308C15.284 23.7998 15.1932 25.4149 15.4027 26.892C15.731 29.2181 18.6535 29.1126 18.8351 26.7638C18.9748 24.9978 18.7038 23.0629 18.4062 21.3196C17.8055 17.8037 17.568 13.3919 20.4737 11.6323C20.7099 11.4842 20.9706 11.3967 21.2383 11.3757C21.5061 11.3547 21.7746 11.4007 22.0257 11.5106C23.6127 12.2459 23.079 15.0313 23.642 16.4938C23.7147 16.6831 23.8338 16.8433 23.9846 16.9542C24.1353 17.0651 24.3109 17.1218 24.4893 17.1171C24.6676 17.1124 24.8408 17.0466 24.9871 16.9279C25.1333 16.8092 25.2462 16.6429 25.3114 16.45C25.7822 15.067 25.3812 12.6679 26.6609 12.2508C27.7882 11.8839 28.4909 13.6451 28.6166 14.9988C29.3151 22.8779 27.4404 30.7699 27.5242 38.6976C27.5703 43.0104 28.6278 48.0002 32.0168 49.7581C32.38 49.9464 32.7977 50.0909 33.1707 49.9318C33.5437 49.7727 33.7966 49.3166 33.9572 48.8751C34.9756 46.088 33.9907 42.926 33.1889 40.0465C31.0463 32.3466 30.22 24.2342 30.7568 16.1659C30.8532 14.7261 31.4944 12.8237 32.7125 13.1094C33.8301 13.3691 33.9335 15.1401 33.8538 16.4565C33.7742 17.7729 34.1905 19.5828 35.322 19.4691C36.2203 19.3799 36.5989 18.0407 36.4634 17.0051C36.3279 15.9695 35.9046 14.9437 36.082 13.921C36.2594 12.8984 37.5362 12.1355 38.0517 12.9893L39.4571 19.3636C39.5127 19.632 39.6223 19.8812 39.777 20.0908C40.5816 21.1427 41.783 19.9626 41.9367 18.7923C42.0764 17.7323 41.7676 16.6415 41.9367 15.5881C41.9423 15.5513 41.9492 15.5139 41.9576 15.4761C42.2496 14.1548 43.9134 14.2457 44.1369 15.5832C45.0505 20.9376 46.1755 26.239 47.512 31.4873C47.6303 31.9721 47.8619 32.4092 48.1811 32.7502C49.7094 34.3425 51.5338 31.8753 51.3019 29.8722C51.0966 28.0526 49.9986 26.5528 49.4523 24.8306C49.2507 24.1736 49.1763 23.4731 49.2344 22.7788C49.3392 21.5241 50.6314 20.8846 51.4626 21.6881C52.1233 22.3244 53.1487 22.5143 53.8374 21.8764C54.1615 21.5744 54.3962 21.1443 54.7706 20.9219C56.148 20.0908 57.1748 22.5776 57.2977 24.3761C57.5687 28.314 58.0036 32.2297 58.6025 36.1232C58.8022 37.4218 59.4281 39.0644 60.5428 38.8437C61.381 38.6814 61.747 37.5143 61.8476 36.529C62.5321 29.783 58.5829 22.5695 61.1729 16.4808C61.8714 14.8463 63.4555 13.348 64.8944 14.0752C65.5216 14.3999 65.9575 15.0654 66.3039 15.7504C69.3675 21.826 67.1938 29.4356 66.0329 36.3456C65.6278 38.7625 65.6934 41.9424 67.659 42.8627C69.6245 43.7831 71.6892 41.3158 71.861 38.8778C72.0329 36.4397 71.0326 34.1315 70.3998 31.799C69.3982 28.103 69.3102 24.1699 69.2306 20.2937C69.197 18.6251 69.2306 16.7551 70.2489 15.5864C71.3036 14.3723 73.061 14.3496 74.1604 13.1873C74.9791 12.3222 75.278 10.9944 75.5378 9.74454C76.2517 6.30984 76.4752 1.6545 73.6645 0.307238C71.0592 -0.944251 68.4734 1.96777 65.7856 2.95306C61.1617 4.6493 56.4679 0.466311 51.6232 0.27315C47.2857 0.10109 43.3574 3.12025 39.1022 4.11365C32.7209 5.60375 26.1999 2.44987 19.6956 2.73717C15.4949 2.92222 11.4256 4.56327 7.21233 4.52269C4.51758 4.49672 1.29199 2.86216 0.469177 6.90231C1.5 9 2.55205 11.9813 4.35274 14.0606C6.72199 16.7973 7.53502 20.7141 7.42606 24.5141Z" fill="url(#paint0_linear_72_144)"/>
<defs>
<linearGradient id="paint0_linear_72_144" x1="-3" y1="4.88265" x2="76.0052" y2="3.79765" gradientUnits="userSpaceOnUse">
<stop stop-color="#259A27"/>
<stop offset="0.251531" stop-color="#37A23B"/>
<stop offset="0.642138" stop-color="#4AAD4F"/>
<stop offset="0.825865" stop-color="#51B257"/>
<stop offset="1" stop-color="#54B45A"/>
</linearGradient>
</defs>
</svg>
