<svg width="33" height="57" viewBox="0 0 33 57" fill="none" xmlns="http://www.w3.org/2000/svg">
<path d="M16.2909 1.80882C18.8775 2.17396 21.5473 2.07459 24.0693 1.51932C26.1282 1.06383 28.213 0.299039 30.3185 0.612124C32.424 0.925209 33.9779 3.11115 32.2712 4.0636C31.2625 4.62942 29.6296 4.46156 28.8514 5.19523C28.624 5.43195 28.4747 5.70367 28.415 5.98926C28.156 6.90966 28.2752 7.87532 27.8867 8.77213C27.4982 9.66895 26.3328 10.5082 25.0703 10.3055C22.869 9.95092 22.8288 7.02848 20.5822 6.91626C18.8743 6.83139 18.1582 8.45622 18.0132 9.69724C17.0588 17.8073 16.1058 25.9852 17.3838 34.0726C18.2553 39.5959 20.1653 45.0589 20.0837 50.6189C20.0539 52.7049 19.501 55.0917 16.9837 56.146C16.7244 56.2593 16.4414 56.3408 16.1459 56.3874C14.4988 56.6251 13.538 55.484 13.1327 54.4524C11.8158 51.1074 13.2738 47.5683 14.065 44.1366C16.3401 34.264 13.0006 24.1237 14.3033 14.1578C14.5623 12.1397 14.965 9.93677 13.3036 8.26478C13.1266 8.08294 12.8655 7.95369 12.5681 7.90078C11.4209 7.71217 10.9366 8.88907 10.9573 9.73119L11.1438 17.0934C11.1658 17.9534 11.1735 18.8569 10.6167 19.6151C10.0599 20.3733 8.73397 20.907 7.66957 20.5354C6.45108 20.1101 6.33194 18.9031 6.38633 17.9195C6.4951 15.9806 6.60301 14.0411 6.71005 12.101C6.7735 10.9807 6.76703 9.72176 5.69227 8.91925C5.46334 8.75793 5.16218 8.66217 4.84411 8.64954C1.77651 8.42604 -0.266375 6.71497 0.79932 4.60825C1.34624 3.50243 2.3887 1.93236 3.62303 1.17511C6.95608 -0.88446 12.7093 1.29865 16.2909 1.80882Z" fill="url(#paint0_linear_72_131)"/>
<defs>
<linearGradient id="paint0_linear_72_131" x1="1.25212" y1="0.30664" x2="33" y2="7.68987" gradientUnits="userSpaceOnUse">
<stop stop-color="#8967D6"/>
<stop offset="1" stop-color="#9473DB"/>
</linearGradient>
</defs>
</svg>
