<svg width="33" height="57" viewBox="0 0 33 57" fill="none" xmlns="http://www.w3.org/2000/svg">
<path d="M16.7091 1.80882C14.1225 2.17396 11.4527 2.07459 8.93065 1.51932C6.87178 1.06383 4.787 0.299039 2.68151 0.612124C0.576017 0.925209 -0.977863 3.11115 0.728804 4.0636C1.73752 4.62942 3.37038 4.46156 4.14861 5.19523C4.37597 5.43195 4.5253 5.70367 4.58499 5.98926C4.84397 6.90966 4.72483 7.87532 5.1133 8.77213C5.50177 9.66895 6.66717 10.5082 7.92969 10.3055C10.131 9.95092 10.1712 7.02848 12.4178 6.91626C14.1257 6.83139 14.8418 8.45622 14.9868 9.69724C15.9412 17.8073 16.8942 25.9852 15.6162 34.0726C14.7447 39.5959 12.8347 45.0589 12.9163 50.6189C12.9461 52.7049 13.499 55.0917 16.0163 56.146C16.2756 56.2593 16.5586 56.3408 16.8541 56.3874C18.5012 56.6251 19.462 55.484 19.8673 54.4524C21.1842 51.1074 19.7262 47.5683 18.935 44.1366C16.6599 34.264 19.9994 24.1237 18.6967 14.1578C18.4377 12.1397 18.035 9.93677 19.6964 8.26478C19.8734 8.08294 20.1345 7.95369 20.4319 7.90078C21.5791 7.71217 22.0634 8.88907 22.0427 9.73119L21.8562 17.0934C21.8342 17.9534 21.8265 18.8569 22.3833 19.6151C22.9401 20.3733 24.266 20.907 25.3304 20.5354C26.5489 20.1101 26.6681 18.9031 26.6137 17.9195C26.5049 15.9806 26.397 14.0411 26.2899 12.101C26.2265 10.9807 26.233 9.72176 27.3077 8.91925C27.5367 8.75793 27.8378 8.66217 28.1559 8.64954C31.2235 8.42604 33.2664 6.71497 32.2007 4.60825C31.6538 3.50243 30.6113 1.93236 29.377 1.17511C26.0439 -0.88446 20.2907 1.29865 16.7091 1.80882Z" fill="url(#paint0_linear_72_124)"/>
<defs>
<linearGradient id="paint0_linear_72_124" x1="31.7479" y1="0.30664" x2="-1.45993e-06" y2="7.68987" gradientUnits="userSpaceOnUse">
<stop stop-color="#D53F31"/>
<stop offset="1" stop-color="#DF574B"/>
</linearGradient>
</defs>
</svg>
