<svg width="232" height="127" viewBox="0 0 232 127" fill="none" xmlns="http://www.w3.org/2000/svg">
<path d="M30.9987 62.4052C30.663 72.4946 27.8049 82.3219 26.5969 92.3458C26.1547 96.0065 25.9581 99.8555 27.4159 103.25C28.8736 106.645 32.3868 109.392 36.0148 108.835C39.0449 108.356 41.3379 105.797 42.7834 103.103C53.5852 83.2268 32.1903 58.4005 39.0776 36.854C40.5395 32.2884 44.3353 27.5058 49.4496 29.1478C51.0922 29.6975 52.5044 30.7797 53.4624 32.2229C58.4457 39.5033 56.0503 48.5568 54.6499 56.8977C54.0316 60.6035 53.7654 64.6777 54.3796 68.4039C55.3419 74.2717 63.9081 74.0055 64.4404 68.0804C64.8498 63.6254 64.0555 58.7445 63.1833 54.3467C61.4226 45.4775 60.7264 34.3481 69.2435 29.9094C69.9357 29.5358 70.7 29.3151 71.4848 29.2621C72.2696 29.2092 73.0566 29.3251 73.7927 29.6023C78.4443 31.4572 76.8802 38.4838 78.5303 42.1731C78.7433 42.6507 79.0926 43.0548 79.5344 43.3345C79.9763 43.6142 80.4909 43.7572 81.0137 43.7453C81.5365 43.7335 82.0442 43.5675 82.4729 43.2681C82.9017 42.9687 83.2324 42.5493 83.4235 42.0625C84.8035 38.5738 83.6283 32.5218 87.3791 31.4695C90.6835 30.5441 92.7431 34.9869 93.1117 38.4019C95.159 58.2777 89.6639 78.1862 89.9096 98.1849C90.0447 109.065 93.1444 121.652 103.078 126.086C104.143 126.561 105.367 126.926 106.46 126.524C107.554 126.123 108.295 124.973 108.766 123.859C111.751 116.828 108.864 108.852 106.514 101.588C100.233 82.1637 97.8116 61.6992 99.3848 41.346C99.6673 37.7139 101.547 32.9149 105.117 33.6356C108.393 34.2907 108.696 38.7581 108.463 42.0789C108.229 45.3997 109.45 49.9654 112.766 49.6787C115.399 49.4535 116.509 46.0754 116.112 43.4629C115.715 40.8505 114.474 38.2626 114.994 35.683C115.514 33.1033 119.257 31.1788 120.767 33.3326L124.887 49.4126C125.05 50.0896 125.371 50.7183 125.824 51.247C128.183 53.9004 131.704 50.9235 132.155 47.9712C132.564 45.2974 131.659 42.5457 132.155 39.8882C132.171 39.7954 132.192 39.7013 132.216 39.6057C133.072 36.2726 137.949 36.5019 138.604 39.876C141.282 53.3831 144.58 66.7565 148.497 79.9961C148.844 81.2189 149.523 82.3216 150.458 83.1818C154.938 87.1987 160.286 80.9747 159.606 75.9218C159.004 71.3316 155.786 67.5481 154.185 63.2036C153.594 61.5463 153.376 59.7791 153.546 58.0279C153.853 54.8627 157.64 53.2493 160.077 55.2762C162.014 56.8814 165.019 57.3605 167.038 55.7512C167.988 54.9896 168.676 53.9045 169.773 53.3435C173.811 51.247 176.82 57.5201 177.181 62.0571C177.975 71.9909 179.25 81.8688 181.005 91.6906C181.591 94.9664 183.425 99.1103 186.693 98.5534C189.149 98.1439 190.222 95.1998 190.517 92.7143C192.523 75.6966 180.948 57.4997 188.539 42.1403C190.587 38.017 195.23 34.2375 199.448 36.072C201.286 36.8909 202.564 38.5697 203.579 40.2977C212.559 55.6243 206.188 74.8204 202.785 92.2516C201.597 98.3487 201.79 106.37 207.551 108.692C213.312 111.014 219.364 104.79 219.868 98.6394C220.372 92.4891 217.44 86.6664 215.585 80.7823C212.649 71.4586 212.391 61.5371 212.158 51.7589C212.059 47.5495 212.158 42.8323 215.143 39.8841C218.234 36.8213 223.385 36.764 226.608 33.8321C229.008 31.6496 229.884 28.3002 230.645 25.1472C232.738 16.4828 233.393 4.7391 225.154 1.34048C217.518 -1.81656 209.938 5.52938 202.06 8.01488C188.507 12.2939 174.748 1.74176 160.548 1.25448C147.834 0.820443 136.319 8.43664 123.847 10.9426C105.142 14.7016 86.0278 6.74552 66.9627 7.47028C54.6499 7.93708 42.7219 12.0769 30.3722 11.9745C22.4735 11.909 13.0188 7.78557 10.607 17.9774C-15.6919 14.182 16.7122 30.7898 21.9903 36.0351C28.935 42.9388 31.3181 52.8194 30.9987 62.4052Z" fill="#C0FF59"/>
</svg>
