<svg width="42" height="51" viewBox="0 0 42 51" fill="none" xmlns="http://www.w3.org/2000/svg">
    <g filter="url(#filter0_ii_1_5)">
        <ellipse cx="21" cy="30.5" rx="19" ry="18.5" fill="#B2D0DB"/>
    </g>
    <path d="M21 49.75C31.8886 49.75 40.75 41.1502 40.75 30.5C40.75 19.8498 31.8886 11.25 21 11.25C10.1114 11.25 1.25 19.8498 1.25 30.5C1.25 41.1502 10.1114 49.75 21 49.75Z" stroke="#062C34" stroke-width="1.5"/>
    <g filter="url(#filter1_ii_1_5)">
        <ellipse cx="21" cy="5.5" rx="8" ry="3.5" fill="#B2D0DB"/>
    </g>
    <path d="M21 9.75C23.2876 9.75 25.3944 9.34582 26.9575 8.66199C27.7379 8.32056 28.4165 7.89465 28.9105 7.38366C29.408 6.86905 29.75 6.2314 29.75 5.5C29.75 4.7686 29.408 4.13095 28.9105 3.61635C28.4165 3.10535 27.7379 2.67944 26.9575 2.33801C25.3944 1.65418 23.2876 1.25 21 1.25C18.7124 1.25 16.6056 1.65418 15.0425 2.33801C14.2621 2.67944 13.5835 3.10535 13.0895 3.61635C12.592 4.13095 12.25 4.7686 12.25 5.5C12.25 6.2314 12.592 6.86905 13.0895 7.38366C13.5835 7.89465 14.2621 8.32056 15.0425 8.66199C16.6056 9.34582 18.7124 9.75 21 9.75Z" stroke="#062C34" stroke-width="1.5"/>
    <defs>
        <filter id="filter0_ii_1_5" x="0.5" y="10.5" width="41" height="40" filterUnits="userSpaceOnUse" color-interpolation-filters="sRGB">
            <feFlood flood-opacity="0" result="BackgroundImageFix"/>
            <feBlend mode="normal" in="SourceGraphic" in2="BackgroundImageFix" result="shape"/>
            <feColorMatrix in="SourceAlpha" type="matrix" values="0 0 0 0 0 0 0 0 0 0 0 0 0 0 0 0 0 0 127 0" result="hardAlpha"/>
            <feOffset dy="4"/>
            <feComposite in2="hardAlpha" operator="arithmetic" k2="-1" k3="1"/>
            <feColorMatrix type="matrix" values="0 0 0 0 0.816111 0 0 0 0 0.908626 0 0 0 0 0.941667 0 0 0 1 0"/>
            <feBlend mode="normal" in2="shape" result="effect1_innerShadow_1_5"/>
            <feColorMatrix in="SourceAlpha" type="matrix" values="0 0 0 0 0 0 0 0 0 0 0 0 0 0 0 0 0 0 127 0" result="hardAlpha"/>
            <feOffset dy="-4"/>
            <feComposite in2="hardAlpha" operator="arithmetic" k2="-1" k3="1"/>
            <feColorMatrix type="matrix" values="0 0 0 0 0.569201 0 0 0 0 0.745404 0 0 0 0 0.808333 0 0 0 1 0"/>
            <feBlend mode="normal" in2="effect1_innerShadow_1_5" result="effect2_innerShadow_1_5"/>
        </filter>
        <filter id="filter1_ii_1_5" x="11.5" y="0.5" width="19" height="10" filterUnits="userSpaceOnUse" color-interpolation-filters="sRGB">
            <feFlood flood-opacity="0" result="BackgroundImageFix"/>
            <feBlend mode="normal" in="SourceGraphic" in2="BackgroundImageFix" result="shape"/>
            <feColorMatrix in="SourceAlpha" type="matrix" values="0 0 0 0 0 0 0 0 0 0 0 0 0 0 0 0 0 0 127 0" result="hardAlpha"/>
            <feOffset dy="4"/>
            <feComposite in2="hardAlpha" operator="arithmetic" k2="-1" k3="1"/>
            <feColorMatrix type="matrix" values="0 0 0 0 0.816111 0 0 0 0 0.908626 0 0 0 0 0.941667 0 0 0 1 0"/>
            <feBlend mode="normal" in2="shape" result="effect1_innerShadow_1_5"/>
            <feColorMatrix in="SourceAlpha" type="matrix" values="0 0 0 0 0 0 0 0 0 0 0 0 0 0 0 0 0 0 127 0" result="hardAlpha"/>
            <feOffset dy="-4"/>
            <feComposite in2="hardAlpha" operator="arithmetic" k2="-1" k3="1"/>
            <feColorMatrix type="matrix" values="0 0 0 0 0.569201 0 0 0 0 0.745404 0 0 0 0 0.808333 0 0 0 1 0"/>
            <feBlend mode="normal" in2="effect1_innerShadow_1_5" result="effect2_innerShadow_1_5"/>
        </filter>
    </defs>
</svg>
