<svg width="177" height="126" viewBox="0 0 177 126" fill="none" xmlns="http://www.w3.org/2000/svg">
<path d="M4.9237 124.724C5.04332 124.973 5.34205 125.078 5.59094 124.958L9.6468 123.009C9.89568 122.889 10.0005 122.591 9.88085 122.342C9.76123 122.093 9.4625 121.988 9.21361 122.108L5.6084 123.84L3.87563 120.235C3.75601 119.986 3.45727 119.881 3.20838 120.001C2.9595 120.121 2.8547 120.419 2.97433 120.668L4.9237 124.724ZM170.197 2.33012C169.924 2.36869 169.733 2.62162 169.772 2.89506C169.81 3.16849 170.063 3.35889 170.337 3.32031L170.197 2.33012ZM157.946 5.16206C158.219 5.11909 158.406 4.86312 158.363 4.59034C158.32 4.31756 158.064 4.13127 157.791 4.17425L157.946 5.16206ZM145.424 6.26772C145.152 6.3173 144.972 6.57772 145.022 6.84937C145.071 7.12103 145.332 7.30105 145.603 7.25146L145.424 6.26772ZM133.332 9.69369C133.602 9.63506 133.773 9.36877 133.715 9.09892C133.656 8.82908 133.39 8.65786 133.12 8.7165L133.332 9.69369ZM120.915 11.6366C120.648 11.7069 120.489 11.9804 120.559 12.2475C120.629 12.5145 120.903 12.674 121.17 12.6037L120.915 11.6366ZM109.17 16.1031C109.433 16.0183 109.577 15.7366 109.492 15.4738C109.408 15.2109 109.126 15.0666 108.863 15.1513L109.17 16.1031ZM97.0386 19.3842C96.7819 19.486 96.6563 19.7766 96.7581 20.0333C96.8599 20.29 97.1505 20.4156 97.4072 20.3138L97.0386 19.3842ZM85.9783 25.3464C86.2265 25.2253 86.3296 24.926 86.2085 24.6778C86.0875 24.4296 85.7881 24.3265 85.5399 24.4476L85.9783 25.3464ZM74.4851 30.4261C74.2481 30.5678 74.1709 30.8748 74.3126 31.1118C74.4544 31.3488 74.7614 31.426 74.9984 31.2843L74.4851 30.4261ZM64.5887 38.1679C64.8118 38.0052 64.8607 37.6924 64.698 37.4693C64.5353 37.2462 64.2225 37.1973 63.9994 37.36L64.5887 38.1679ZM54.1962 45.2356C53.9893 45.4184 53.9696 45.7344 54.1524 45.9414C54.3352 46.1484 54.6512 46.168 54.8582 45.9852L54.1962 45.2356ZM45.8944 54.6646C46.0838 54.4638 46.0746 54.1473 45.8738 53.9578C45.6729 53.7684 45.3565 53.7776 45.167 53.9784L45.8944 54.6646ZM36.9555 63.4767C36.7839 63.6931 36.8202 64.0075 37.0365 64.1792C37.2529 64.3508 37.5674 64.3145 37.739 64.0981L36.9555 63.4767ZM30.379 74.1774C30.5332 73.9483 30.4724 73.6376 30.2433 73.4834C30.0142 73.3293 29.7035 73.3901 29.5493 73.6192L30.379 74.1774ZM22.8996 84.3111C22.7619 84.5505 22.8443 84.8561 23.0837 84.9938C23.3231 85.1315 23.6288 85.0491 23.7664 84.8097L22.8996 84.3111ZM17.8969 95.8007C18.0196 95.5533 17.9185 95.2533 17.6711 95.1306C17.4237 95.008 17.1237 95.1091 17.001 95.3565L17.8969 95.8007ZM11.7213 106.79C11.6122 107.044 11.7295 107.338 11.9831 107.447C12.2368 107.556 12.5309 107.439 12.64 107.185L11.7213 106.79ZM7.99427 118.752C8.09126 118.493 7.96029 118.205 7.70175 118.108C7.4432 118.011 7.15498 118.142 7.05799 118.4L7.99427 118.752ZM176.41 1.47134C174.328 1.75377 172.257 2.03948 170.197 2.33012L170.337 3.32031C172.395 3.02996 174.464 2.7445 176.544 2.46226L176.41 1.47134ZM157.791 4.17425C153.619 4.83149 149.496 5.52439 145.424 6.26772L145.603 7.25146C149.666 6.50982 153.781 5.81826 157.946 5.16206L157.791 4.17425ZM133.12 8.7165C128.993 9.61326 124.924 10.5811 120.915 11.6366L121.17 12.6037C125.163 11.5522 129.218 10.5877 133.332 9.69369L133.12 8.7165ZM108.863 15.1513C104.853 16.4443 100.91 17.8491 97.0386 19.3842L97.4072 20.3138C101.257 18.7873 105.179 17.3898 109.17 16.1031L108.863 15.1513ZM85.5399 24.4476C81.7782 26.2822 78.0922 28.2687 74.4851 30.4261L74.9984 31.2843C78.5799 29.1422 82.2409 27.1692 85.9783 25.3464L85.5399 24.4476ZM63.9994 37.36C60.6528 39.801 57.3841 42.4204 54.1962 45.2356L54.8582 45.9852C58.0225 43.1908 61.2669 40.5908 64.5887 38.1679L63.9994 37.36ZM45.167 53.9784C42.3567 56.9573 39.6188 60.1188 36.9555 63.4767L37.739 64.0981C40.3848 60.7623 43.1041 57.6224 45.8944 54.6646L45.167 53.9784ZM29.5493 73.6192C27.2692 77.0083 25.0521 80.5689 22.8996 84.3111L23.7664 84.8097C25.9076 81.0872 28.1124 77.5465 30.379 74.1774L29.5493 73.6192ZM17.001 95.3565C15.1879 99.0128 13.4276 102.822 11.7213 106.79L12.64 107.185C14.3394 103.233 16.0921 99.4402 17.8969 95.8007L17.001 95.3565ZM7.05799 118.4C6.32805 120.346 5.60953 122.327 4.90254 124.342L5.84616 124.673C6.55083 122.664 7.26691 120.691 7.99427 118.752L7.05799 118.4ZM4.47304 124.941C4.71229 125.439 5.30976 125.648 5.80754 125.409L13.9192 121.51C14.417 121.271 14.6266 120.673 14.3874 120.176C14.1481 119.678 13.5506 119.468 13.0529 119.708L5.84245 123.173L2.37692 115.963C2.13768 115.465 1.5402 115.255 1.04242 115.495C0.544647 115.734 0.33507 116.331 0.574316 116.829L4.47304 124.941ZM170.127 1.83502C169.58 1.91217 169.2 2.41803 169.277 2.9649C169.354 3.51177 169.86 3.89256 170.407 3.81541L170.127 1.83502ZM158.024 5.65597C158.57 5.57002 158.942 5.05808 158.856 4.51252C158.771 3.96697 158.259 3.59439 157.713 3.68034L158.024 5.65597ZM145.334 5.77585C144.791 5.87502 144.431 6.39585 144.53 6.93916C144.629 7.48247 145.15 7.84251 145.693 7.74333L145.334 5.77585ZM133.438 10.1823C133.978 10.065 134.321 9.53245 134.203 8.99276C134.086 8.45306 133.553 8.11063 133.014 8.2279L133.438 10.1823ZM120.788 11.1531C120.254 11.2937 119.935 11.8407 120.076 12.3748C120.216 12.9089 120.763 13.2278 121.297 13.0872L120.788 11.1531ZM109.323 16.5789C109.849 16.4095 110.138 15.846 109.968 15.3203C109.799 14.7947 109.235 14.506 108.71 14.6754L109.323 16.5789ZM96.8543 18.9194C96.3409 19.123 96.0897 19.7042 96.2933 20.2176C96.4968 20.731 97.0781 20.9822 97.5915 20.7786L96.8543 18.9194ZM86.1975 25.7958C86.6939 25.5537 86.9 24.955 86.6579 24.4586C86.4158 23.9622 85.8171 23.7561 85.3208 23.9982L86.1975 25.7958ZM74.2285 29.997C73.7545 30.2804 73.6001 30.8945 73.8835 31.3685C74.167 31.8424 74.7811 31.9969 75.255 31.7134L74.2285 29.997ZM64.8833 38.5719C65.3295 38.2464 65.4274 37.6208 65.102 37.1747C64.7765 36.7284 64.151 36.6306 63.7048 36.956L64.8833 38.5719ZM53.8653 44.8608C53.4513 45.2264 53.4121 45.8584 53.7776 46.2723C54.1432 46.6863 54.7752 46.7255 55.1891 46.36L53.8653 44.8608ZM46.2581 55.0077C46.637 54.606 46.6186 53.9731 46.2169 53.5941C45.8151 53.2152 45.1822 53.2336 44.8033 53.6353L46.2581 55.0077ZM36.5638 63.166C36.2206 63.5987 36.2931 64.2277 36.7258 64.5709C37.1585 64.9141 37.7875 64.8415 38.1307 64.4088L36.5638 63.166ZM30.7939 74.4565C31.1022 73.9983 30.9806 73.3769 30.5224 73.0686C30.0642 72.7603 29.4428 72.8819 29.1345 73.3401L30.7939 74.4565ZM22.4662 84.0618C22.1908 84.5405 22.3557 85.1519 22.8344 85.4272C23.3132 85.7026 23.9245 85.5377 24.1999 85.059L22.4662 84.0618ZM18.3449 96.0229C18.5902 95.5281 18.388 94.9281 17.8932 94.6827C17.3984 94.4373 16.7984 94.6395 16.5531 95.1343L18.3449 96.0229ZM11.2619 106.593C11.0438 107.1 11.2783 107.688 11.7857 107.907C12.293 108.125 12.8812 107.89 13.0993 107.383L11.2619 106.593ZM8.46242 118.927C8.6564 118.41 8.39446 117.834 7.87737 117.64C7.36027 117.446 6.78383 117.708 6.58985 118.225L8.46242 118.927ZM176.343 0.975878C174.26 1.25841 172.189 1.54424 170.127 1.83502L170.407 3.81541C172.464 3.5252 174.532 3.23986 176.612 2.95772L176.343 0.975878ZM157.713 3.68034C153.538 4.3381 149.411 5.03167 145.334 5.77585L145.693 7.74333C149.751 7.00253 153.863 6.31165 158.024 5.65597L157.713 3.68034ZM133.014 8.2279C128.88 9.12602 124.804 10.0955 120.788 11.1531L121.297 13.0872C125.282 12.0378 129.33 11.075 133.438 10.1823L133.014 8.2279ZM108.71 14.6754C104.69 15.9715 100.737 17.3799 96.8543 18.9194L97.5915 20.7786C101.43 19.2565 105.342 17.8626 109.323 16.5789L108.71 14.6754ZM85.3208 23.9982C81.5469 25.8388 77.8483 27.832 74.2285 29.997L75.255 31.7134C78.8238 29.579 82.4722 27.6126 86.1975 25.7958L85.3208 23.9982ZM63.7048 36.956C60.3458 39.406 57.065 42.0352 53.8653 44.8608L55.1891 46.36C58.3417 43.576 61.574 40.9857 64.8833 38.5719L63.7048 36.956ZM44.8033 53.6353C41.9831 56.6248 39.2358 59.7971 36.5638 63.166L38.1307 64.4088C40.7678 61.084 43.4777 57.955 46.2581 55.0077L44.8033 53.6353ZM29.1345 73.3401C26.8476 76.7393 24.6243 80.3098 22.4662 84.0618L24.1999 85.059C26.3354 81.3463 28.534 77.8156 30.7939 74.4565L29.1345 73.3401ZM16.5531 95.1343C14.7357 98.7991 12.9717 102.616 11.2619 106.593L13.0993 107.383C14.7953 103.438 16.5442 99.6539 18.3449 96.0229L16.5531 95.1343ZM6.58985 118.225C5.85863 120.174 5.13888 122.158 4.43072 124.177L6.31798 124.839C7.02148 122.833 7.73634 120.863 8.46242 118.927L6.58985 118.225Z" fill="url(#paint0_linear_72_188)"/>
<defs>
<linearGradient id="paint0_linear_72_188" x1="173.769" y1="-2.90922" x2="21.9399" y2="144.824" gradientUnits="userSpaceOnUse">
<stop stop-color="#AC5CFD"/>
<stop offset="1" stop-color="#AC5CFD"/>
</linearGradient>
</defs>
</svg>
