<svg width="287" height="111" viewBox="0 0 287 111" fill="none" xmlns="http://www.w3.org/2000/svg">
<path d="M285.906 103.799C286.097 103.599 286.089 103.282 285.889 103.092L282.63 99.9886C282.43 99.7982 282.114 99.8059 281.923 100.006C281.733 100.206 281.74 100.522 281.94 100.713L284.837 103.471L282.079 106.368C281.888 106.568 281.896 106.884 282.096 107.075C282.296 107.265 282.612 107.258 282.803 107.058L285.906 103.799ZM4.62336 6.02304C4.80158 6.23398 5.11705 6.2605 5.32798 6.08229C5.53892 5.90407 5.56544 5.5886 5.38723 5.37767L4.62336 6.02304ZM13.3465 14.5476C13.1625 14.3416 12.8465 14.3237 12.6405 14.5077C12.4345 14.6916 12.4166 15.0077 12.6005 15.2136L13.3465 14.5476ZM20.8559 24.1746C21.0463 24.3746 21.3628 24.3824 21.5628 24.192C21.7628 24.0016 21.7706 23.6851 21.5802 23.4851L20.8559 24.1746ZM30.1266 32.145C29.9289 31.9522 29.6124 31.956 29.4195 32.1537C29.2267 32.3513 29.2306 32.6679 29.4282 32.8607L30.1266 32.145ZM38.3198 41.1875C38.5254 41.3719 38.8415 41.3547 39.0259 41.1492C39.2103 40.9436 39.1932 40.6275 38.9876 40.4431L38.3198 41.1875ZM48.214 48.3437C48.0001 48.1692 47.6851 48.2012 47.5106 48.4151C47.336 48.6291 47.368 48.9441 47.582 49.1186L48.214 48.3437ZM57.2272 56.586C57.4499 56.7493 57.7628 56.7012 57.9261 56.4785C58.0894 56.2558 58.0412 55.9429 57.8185 55.7796L57.2272 56.586ZM67.7984 62.6855C67.567 62.5348 67.2572 62.6001 67.1065 62.8315C66.9557 63.0629 67.0211 63.3726 67.2525 63.5234L67.7984 62.6855ZM77.6604 69.8873C77.9 70.0245 78.2055 69.9414 78.3427 69.7018C78.4799 69.4621 78.3968 69.1566 78.1571 69.0194L77.6604 69.8873ZM88.8671 74.7414C88.6198 74.6184 88.3197 74.7192 88.1967 74.9664C88.0738 75.2137 88.1745 75.5138 88.4218 75.6368L88.8671 74.7414ZM99.4881 80.7484C99.742 80.857 100.036 80.7392 100.144 80.4853C100.253 80.2314 100.135 79.9375 99.8813 79.8289L99.4881 80.7484ZM111.182 84.2962C110.922 84.2017 110.635 84.3355 110.541 84.5949C110.446 84.8544 110.58 85.1414 110.84 85.2359L111.182 84.2962ZM122.393 89.1071C122.657 89.1882 122.936 89.04 123.017 88.776C123.098 88.5121 122.95 88.2323 122.686 88.1512L122.393 89.1071ZM134.376 91.4404C134.109 91.3718 133.836 91.5329 133.768 91.8004C133.699 92.0679 133.86 92.3404 134.128 92.409L134.376 91.4404ZM146.022 95.1907C146.292 95.248 146.557 95.0755 146.614 94.8053C146.672 94.5352 146.499 94.2698 146.229 94.2125L146.022 95.1907ZM158.143 96.5033C157.871 96.4561 157.612 96.6385 157.565 96.9105C157.518 97.1826 157.7 97.4414 157.972 97.4886L158.143 96.5033ZM170.002 99.3663C170.275 99.4045 170.528 99.2138 170.566 98.9403C170.605 98.6668 170.414 98.4141 170.14 98.3759L170.002 99.3663ZM182.204 99.8793C181.93 99.849 181.683 100.047 181.653 100.321C181.622 100.596 181.82 100.843 182.095 100.873L182.204 99.8793ZM194.229 102.054C194.504 102.077 194.746 101.873 194.77 101.598C194.793 101.323 194.589 101.081 194.314 101.057L194.229 102.054ZM206.451 101.951C206.175 101.934 205.938 102.143 205.921 102.419C205.903 102.694 206.113 102.932 206.388 102.949L206.451 101.951ZM218.559 103.595C218.835 103.607 219.068 103.393 219.081 103.117C219.093 102.841 218.879 102.608 218.603 102.596L218.559 103.595ZM230.76 103.025C230.484 103.017 230.254 103.235 230.247 103.511C230.239 103.787 230.457 104.017 230.733 104.024L230.76 103.025ZM242.905 104.266C243.181 104.269 243.408 104.048 243.411 103.772C243.415 103.496 243.194 103.269 242.918 103.266L242.905 104.266ZM255.073 103.344C254.797 103.344 254.573 103.567 254.573 103.843C254.573 104.12 254.797 104.344 255.073 104.344L255.073 103.344ZM267.238 104.279C267.514 104.276 267.736 104.05 267.733 103.774C267.73 103.498 267.504 103.276 267.228 103.279L267.238 104.279ZM279.384 103.091C279.108 103.097 278.889 103.325 278.894 103.601C278.9 103.877 279.128 104.097 279.404 104.091L279.384 103.091ZM0.697776 1.318C2.00846 2.90829 3.31677 4.47656 4.62336 6.02304L5.38723 5.37767C4.08334 3.83439 2.77764 2.26925 1.46946 0.681997L0.697776 1.318ZM12.6005 15.2136C15.3518 18.2949 18.1015 21.2812 20.8559 24.1746L21.5802 23.4851C18.8335 20.5998 16.091 17.6214 13.3465 14.5476L12.6005 15.2136ZM29.4282 32.8607C32.3768 35.7379 35.3382 38.5126 38.3198 41.1875L38.9876 40.4431C36.0168 37.778 33.0657 35.0129 30.1266 32.145L29.4282 32.8607ZM47.582 49.1186C50.7632 51.7136 53.9754 54.2017 57.2272 56.586L57.8185 55.7796C54.581 53.4058 51.3824 50.9282 48.214 48.3437L47.582 49.1186ZM67.2525 63.5234C70.6681 65.7488 74.1343 67.869 77.6604 69.8873L78.1571 69.0194C74.6479 67.0108 71.1981 64.9006 67.7984 62.6855L67.2525 63.5234ZM88.4218 75.6368C92.0399 77.4362 95.7256 79.139 99.4881 80.7484L99.8813 79.8289C96.1363 78.227 92.4679 76.5323 88.8671 74.7414L88.4218 75.6368ZM110.84 85.2359C114.609 86.6087 118.457 87.8981 122.393 89.1071L122.686 88.1512C118.767 86.9471 114.935 85.663 111.182 84.2962L110.84 85.2359ZM134.128 92.409C138.006 93.4044 141.968 94.3308 146.022 95.1907L146.229 94.2125C142.189 93.3554 138.24 92.4322 134.376 91.4404L134.128 92.409ZM157.972 97.4886C161.897 98.169 165.905 98.7943 170.002 99.3663L170.14 98.3759C166.053 97.8053 162.056 97.1817 158.143 96.5033L157.972 97.4886ZM182.095 100.873C186.057 101.31 190.101 101.703 194.229 102.054L194.314 101.057C190.193 100.708 186.158 100.315 182.204 99.8793L182.095 100.873ZM206.388 102.949C210.367 103.199 214.423 103.414 218.559 103.595L218.603 102.596C214.473 102.415 210.424 102.201 206.451 101.951L206.388 102.949ZM230.733 104.024C234.718 104.133 238.774 104.213 242.905 104.266L242.918 103.266C238.791 103.213 234.74 103.133 230.76 103.025L230.733 104.024ZM255.073 104.344C259.06 104.345 263.115 104.323 267.238 104.279L267.228 103.279C263.108 103.323 259.057 103.345 255.073 103.344L255.073 104.344ZM279.404 104.091C281.439 104.05 283.489 104.004 285.556 103.954L285.532 102.954C283.466 103.005 281.417 103.05 279.384 103.091L279.404 104.091ZM286.268 104.144C286.649 103.744 286.634 103.111 286.234 102.73L279.716 96.5233C279.316 96.1424 278.683 96.1579 278.302 96.5578C277.921 96.9578 277.937 97.5908 278.337 97.9716L284.13 103.489L278.613 109.282C278.232 109.682 278.248 110.315 278.648 110.696C279.048 111.077 279.681 111.061 280.062 110.661L286.268 104.144ZM4.24143 6.34573C4.59786 6.7676 5.2288 6.82065 5.65067 6.46422C6.07254 6.10779 6.12559 5.47685 5.76916 5.05498L4.24143 6.34573ZM13.7194 14.2146C13.3516 13.8026 12.7194 13.7669 12.3075 14.1347C11.8955 14.5025 11.8597 15.1347 12.2276 15.5467L13.7194 14.2146ZM20.4937 24.5194C20.8745 24.9194 21.5075 24.935 21.9075 24.5542C22.3075 24.1734 22.3231 23.5404 21.9423 23.1404L20.4937 24.5194ZM30.4758 31.7871C30.0805 31.4014 29.4474 31.4092 29.0617 31.8045C28.676 32.1998 28.6837 32.8329 29.079 33.2186L30.4758 31.7871ZM37.9859 41.5597C38.397 41.9285 39.0293 41.8942 39.3981 41.4831C39.7669 41.072 39.7326 40.4397 39.3215 40.0709L37.9859 41.5597ZM48.5301 47.9563C48.1021 47.6072 47.4722 47.6711 47.1231 48.0991C46.774 48.5271 46.838 49.157 47.2659 49.5061L48.5301 47.9563ZM56.9316 56.9893C57.377 57.3158 58.0028 57.2195 58.3293 56.7741C58.6559 56.3287 58.5596 55.7029 58.1142 55.3764L56.9316 56.9893ZM68.0713 62.2666C67.6086 61.9651 66.9891 62.0958 66.6876 62.5585C66.3861 63.0213 66.5168 63.6408 66.9795 63.9423L68.0713 62.2666ZM77.412 70.3213C77.8913 70.5956 78.5023 70.4295 78.7767 69.9501C79.051 69.4708 78.8849 68.8598 78.4055 68.5855L77.412 70.3213ZM89.0897 74.2937C88.5952 74.0478 87.995 74.2493 87.7491 74.7438C87.5031 75.2383 87.7046 75.8385 88.1991 76.0845L89.0897 74.2937ZM99.2914 81.2081C99.7992 81.4253 100.387 81.1897 100.604 80.6819C100.821 80.1741 100.586 79.5864 100.078 79.3692L99.2914 81.2081ZM111.353 83.8264C110.834 83.6374 110.26 83.9049 110.071 84.4238C109.882 84.9428 110.15 85.5167 110.669 85.7057L111.353 83.8264ZM122.246 89.5851C122.774 89.7473 123.333 89.4508 123.495 88.9229C123.657 88.3949 123.361 87.8355 122.833 87.6733L122.246 89.5851ZM134.5 90.9561C133.966 90.8188 133.421 91.1412 133.283 91.6761C133.146 92.2111 133.468 92.756 134.003 92.8933L134.5 90.9561ZM145.918 95.6798C146.458 95.7944 146.989 95.4493 147.104 94.9091C147.218 94.3688 146.873 93.8379 146.333 93.7233L145.918 95.6798ZM158.228 96.0107C157.684 95.9163 157.167 96.281 157.072 96.8251C156.978 97.3693 157.343 97.8869 157.887 97.9813L158.228 96.0107ZM169.933 99.8615C170.48 99.9379 170.985 99.5564 171.062 99.0094C171.138 98.4624 170.756 97.9571 170.209 97.8807L169.933 99.8615ZM182.259 99.3823C181.71 99.3218 181.216 99.7177 181.156 100.267C181.095 100.816 181.491 101.31 182.04 101.37L182.259 99.3823ZM194.187 102.552C194.737 102.599 195.221 102.191 195.268 101.64C195.315 101.09 194.906 100.606 194.356 100.559L194.187 102.552ZM206.482 101.452C205.931 101.417 205.456 101.836 205.422 102.387C205.387 102.938 205.806 103.413 206.357 103.448L206.482 101.452ZM218.537 104.095C219.089 104.119 219.556 103.691 219.58 103.139C219.604 102.587 219.177 102.121 218.625 102.096L218.537 104.095ZM230.774 102.525C230.222 102.51 229.762 102.945 229.747 103.497C229.732 104.05 230.167 104.509 230.72 104.524L230.774 102.525ZM242.899 104.766C243.451 104.773 243.904 104.331 243.911 103.779C243.918 103.226 243.476 102.773 242.924 102.766L242.899 104.766ZM255.073 102.844C254.521 102.843 254.073 103.291 254.073 103.843C254.073 104.396 254.521 104.843 255.073 104.844L255.073 102.844ZM267.244 104.779C267.796 104.773 268.239 104.321 268.233 103.769C268.227 103.216 267.775 102.773 267.222 102.779L267.244 104.779ZM279.374 102.591C278.822 102.602 278.383 103.059 278.394 103.611C278.406 104.163 278.862 104.602 279.414 104.591L279.374 102.591ZM0.311934 1.63601C1.62387 3.22781 2.93348 4.79764 4.24143 6.34573L5.76916 5.05498C4.46663 3.51331 3.16223 1.94973 1.8553 0.363994L0.311934 1.63601ZM12.2276 15.5467C14.9821 18.6317 17.7354 21.6219 20.4937 24.5194L21.9423 23.1404C19.1995 20.2592 16.4606 17.2847 13.7194 14.2146L12.2276 15.5467ZM29.079 33.2186C32.0324 36.1004 34.9988 38.8799 37.9859 41.5597L39.3215 40.0709C36.3562 37.4107 33.4101 34.6503 30.4758 31.7871L29.079 33.2186ZM47.2659 49.5061C50.4536 52.1063 53.6726 54.5997 56.9316 56.9893L58.1142 55.3764C54.8838 53.0078 51.692 50.5355 48.5301 47.9563L47.2659 49.5061ZM66.9795 63.9423C70.4031 66.1729 73.8775 68.2982 77.412 70.3213L78.4055 68.5855C74.9047 66.5817 71.4631 64.4765 68.0713 62.2666L66.9795 63.9423ZM88.1991 76.0845C91.8259 77.8882 95.5203 79.595 99.2914 81.2081L100.078 79.3692C96.3417 77.7711 92.682 76.0803 89.0897 74.2937L88.1991 76.0845ZM110.669 85.7057C114.446 87.0815 118.303 88.3736 122.246 89.5851L122.833 87.6733C118.922 86.4716 115.098 85.1902 111.353 83.8264L110.669 85.7057ZM134.003 92.8933C137.889 93.8906 141.858 94.8186 145.918 95.6798L146.333 93.7233C142.299 92.8677 138.357 91.9461 134.5 90.9561L134.003 92.8933ZM157.887 97.9813C161.817 98.6626 165.831 99.2887 169.933 99.8615L170.209 97.8807C166.128 97.3108 162.136 96.6881 158.228 96.0107L157.887 97.9813ZM182.04 101.37C186.007 101.808 190.054 102.201 194.187 102.552L194.356 100.559C190.239 100.21 186.208 99.818 182.259 99.3823L182.04 101.37ZM206.357 103.448C210.339 103.698 214.398 103.913 218.537 104.095L218.625 102.096C214.498 101.916 210.452 101.701 206.482 101.452L206.357 103.448ZM230.72 104.524C234.707 104.633 238.765 104.713 242.899 104.766L242.924 102.766C238.8 102.713 234.751 102.633 230.774 102.525L230.72 104.524ZM255.073 104.844C259.062 104.845 263.118 104.823 267.244 104.779L267.222 102.779C263.104 102.823 259.055 102.845 255.073 102.844L255.073 104.844ZM279.414 104.591C281.449 104.55 283.501 104.504 285.568 104.454L285.52 102.454C283.455 102.505 281.406 102.55 279.374 102.591L279.414 104.591Z" fill="url(#paint0_linear_72_173)"/>
<defs>
<linearGradient id="paint0_linear_72_173" x1="-3.28338" y1="6.36783" x2="301.514" y2="118.874" gradientUnits="userSpaceOnUse">
<stop stop-color="#AC5CFD"/>
<stop offset="1" stop-color="#C0FF59"/>
</linearGradient>
</defs>
</svg>
