<svg width="32" height="111" viewBox="0 0 32 111" fill="none" xmlns="http://www.w3.org/2000/svg">
<path d="M4.50901 109.776C4.40821 109.877 4.24477 109.877 4.14396 109.776L2.50123 108.134C2.40042 108.033 2.40042 107.869 2.50123 107.769C2.60203 107.668 2.76547 107.668 2.86628 107.769L4.32648 109.229L5.78668 107.769C5.88749 107.668 6.05093 107.668 6.15174 107.769C6.25254 107.869 6.25254 108.033 6.15174 108.134L4.50901 109.776ZM28.3361 3.71862C28.3826 3.85338 28.3111 4.00033 28.1764 4.04686C28.0416 4.09338 27.8946 4.02185 27.8481 3.88709L28.3361 3.71862ZM29.5281 9.95092C29.4989 9.81139 29.5883 9.67457 29.7278 9.64532C29.8673 9.61607 30.0041 9.70547 30.0334 9.845L29.5281 9.95092ZM30.929 16.132C30.9399 16.2741 30.8335 16.3982 30.6913 16.409C30.5492 16.4199 30.4251 16.3135 30.4142 16.1714L30.929 16.132ZM30.4958 22.4571C30.5028 22.3147 30.6238 22.2049 30.7662 22.2118C30.9086 22.2188 31.0184 22.3399 31.0115 22.4822L30.4958 22.4571ZM30.3405 28.7974C30.3178 28.9382 30.1853 29.0338 30.0445 29.0111C29.9038 28.9884 29.8081 28.8559 29.8308 28.7151L30.3405 28.7974ZM28.5306 34.8805C28.5662 34.7425 28.7069 34.6594 28.845 34.695C28.983 34.7306 29.0661 34.8713 29.0305 35.0094L28.5306 34.8805ZM27.2192 41.0871C27.1738 41.2222 27.0275 41.295 26.8923 41.2497C26.7572 41.2044 26.6844 41.058 26.7297 40.9229L27.2192 41.0871ZM24.5592 46.8488C24.6114 46.7162 24.7613 46.6511 24.8939 46.7033C25.0266 46.7556 25.0917 46.9055 25.0395 47.0381L24.5592 46.8488ZM22.6101 52.8885C22.5534 53.0193 22.4014 53.0794 22.2706 53.0227C22.1398 52.966 22.0797 52.814 22.1364 52.6832L22.6101 52.8885ZM19.5647 58.4596C19.6236 58.3298 19.7766 58.2724 19.9064 58.3313C20.0362 58.3902 20.0937 58.5432 20.0348 58.673L19.5647 58.4596ZM17.4058 64.4295C17.3466 64.5592 17.1935 64.6163 17.0638 64.5571C16.9341 64.4979 16.877 64.3448 16.9362 64.2151L17.4058 64.4295ZM14.3371 69.9855C14.3947 69.8551 14.5471 69.796 14.6775 69.8536C14.8079 69.9112 14.867 70.0636 14.8094 70.194L14.3371 69.9855ZM12.3266 76.0055C12.2725 76.1374 12.1217 76.2005 11.9898 76.1463C11.8579 76.0922 11.7949 75.9415 11.849 75.8096L12.3266 76.0055ZM9.55699 81.7171C9.60568 81.5831 9.75377 81.5139 9.88776 81.5626C10.0218 81.6113 10.0909 81.7594 10.0422 81.8934L9.55699 81.7171ZM8.04386 87.8801C8.00263 88.0165 7.85857 88.0937 7.72211 88.0525C7.58564 88.0113 7.50843 87.8672 7.54967 87.7308L8.04386 87.8801ZM5.91946 93.8598C5.95116 93.7208 6.08953 93.6338 6.22852 93.6655C6.36751 93.6972 6.45449 93.8356 6.42279 93.9746L5.91946 93.8598ZM5.269 100.17C5.24882 100.311 5.11805 100.409 4.97693 100.389C4.8358 100.368 4.73776 100.238 4.75794 100.096L5.269 100.17ZM4.14701 106.415C4.15403 106.273 4.27514 106.163 4.41753 106.17C4.55992 106.177 4.66966 106.298 4.66264 106.441L4.14701 106.415ZM27.2061 0.73615C27.6187 1.7359 27.9948 2.72995 28.3361 3.71862L27.8481 3.88709C27.5101 2.90812 27.1376 1.92356 26.7289 0.933074L27.2061 0.73615ZM30.0334 9.845C30.4773 11.9625 30.7702 14.0571 30.929 16.132L30.4142 16.1714C30.2571 14.1184 29.9673 12.0461 29.5281 9.95092L30.0334 9.845ZM31.0115 22.4822C30.9079 24.604 30.6779 26.7078 30.3405 28.7974L29.8308 28.7151C30.1654 26.6429 30.3933 24.5582 30.4958 22.4571L31.0115 22.4822ZM29.0305 35.0094C28.5062 37.044 27.8963 39.0686 27.2192 41.0871L26.7297 40.9229C27.4035 38.9145 28.0098 36.9016 28.5306 34.8805L29.0305 35.0094ZM25.0395 47.0381C24.2706 48.9893 23.4553 50.9383 22.6101 52.8885L22.1364 52.6832C22.9799 50.7369 23.7929 48.7934 24.5592 46.8488L25.0395 47.0381ZM20.0348 58.673C19.1664 60.5858 18.2845 62.5046 17.4058 64.4295L16.9362 64.2151C17.8157 62.2884 18.6965 60.372 19.5647 58.4596L20.0348 58.673ZM14.8094 70.194C13.9591 72.1195 13.1265 74.0556 12.3266 76.0055L11.849 75.8096C12.6511 73.8543 13.4855 71.914 14.3371 69.9855L14.8094 70.194ZM10.0422 81.8934C9.32358 83.8711 8.65251 85.8656 8.04386 87.8801L7.54967 87.7308C8.1614 85.7061 8.83556 83.7025 9.55699 81.7171L10.0422 81.8934ZM6.42279 93.9746C5.95726 96.0158 5.56783 98.0798 5.269 100.17L4.75794 100.096C5.05892 97.9917 5.45103 95.9138 5.91946 93.8598L6.42279 93.9746ZM4.66264 106.441C4.61118 107.485 4.58461 108.536 4.58461 109.594L4.06836 109.594C4.06835 108.527 4.09514 107.468 4.14701 106.415L4.66264 106.441ZM4.69154 109.959C4.48993 110.16 4.16305 110.16 3.96144 109.959L0.675971 106.673C0.474359 106.472 0.474358 106.145 0.675969 105.943C0.87758 105.742 1.20446 105.742 1.40607 105.943L4.32648 108.864L7.24688 105.943C7.4485 105.742 7.77537 105.742 7.97698 105.943C8.1786 106.145 8.1786 106.472 7.97699 106.673L4.69154 109.959ZM28.5801 3.63439C28.6732 3.9039 28.5301 4.19781 28.2606 4.29086C27.9911 4.3839 27.6972 4.24084 27.6041 3.97133L28.5801 3.63439ZM29.2755 10.0039C29.217 9.72482 29.3958 9.45118 29.6748 9.39268C29.9539 9.33418 30.2275 9.51298 30.286 9.79204L29.2755 10.0039ZM31.1864 16.1123C31.2081 16.3966 30.9953 16.6447 30.711 16.6664C30.4267 16.6882 30.1786 16.4754 30.1569 16.1911L31.1864 16.1123ZM30.238 22.4445C30.2519 22.1597 30.494 21.9401 30.7788 21.954C31.0636 21.9679 31.2832 22.21 31.2693 22.4948L30.238 22.4445ZM30.5953 28.8386C30.5499 29.12 30.2849 29.3114 30.0034 29.2659C29.7219 29.2205 29.5306 28.9555 29.576 28.674L30.5953 28.8386ZM28.2806 34.8161C28.3518 34.54 28.6333 34.3739 28.9094 34.445C29.1855 34.5162 29.3516 34.7977 29.2805 35.0738L28.2806 34.8161ZM27.4639 41.1692C27.3732 41.4395 27.0806 41.5851 26.8102 41.4944C26.5399 41.4037 26.3943 41.1111 26.485 40.8408L27.4639 41.1692ZM24.319 46.7542C24.4235 46.4889 24.7233 46.3586 24.9886 46.4632C25.2539 46.5677 25.3842 46.8675 25.2796 47.1327L24.319 46.7542ZM22.8469 52.9911C22.7336 53.2527 22.4296 53.3729 22.168 53.2595C21.9064 53.1461 21.7862 52.8421 21.8996 52.5805L22.8469 52.9911ZM19.3296 58.3529C19.4475 58.0933 19.7535 57.9784 20.0131 58.0962C20.2728 58.2141 20.3877 58.5201 20.2698 58.7797L19.3296 58.3529ZM17.6407 64.5367C17.5223 64.7961 17.216 64.9104 16.9566 64.792C16.6973 64.6736 16.583 64.3673 16.7014 64.108L17.6407 64.5367ZM14.101 69.8812C14.2161 69.6204 14.521 69.5023 14.7818 69.6175C15.0426 69.7327 15.1607 70.0375 15.0455 70.2983L14.101 69.8812ZM12.5654 76.1035C12.4572 76.3673 12.1557 76.4934 11.8919 76.3852C11.6281 76.2769 11.502 75.9754 11.6102 75.7116L12.5654 76.1035ZM9.31438 81.6289C9.41176 81.3609 9.70794 81.2226 9.97591 81.32C10.2439 81.4174 10.3822 81.7136 10.2848 81.9815L9.31438 81.6289ZM8.29096 87.9547C8.20849 88.2277 7.92038 88.3821 7.64745 88.2996C7.37451 88.2171 7.2201 87.929 7.30257 87.6561L8.29096 87.9547ZM5.66779 93.8024C5.73119 93.5244 6.00793 93.3504 6.28591 93.4138C6.5639 93.4772 6.73786 93.754 6.67446 94.0319L5.66779 93.8024ZM5.52453 100.206C5.48417 100.488 5.22264 100.684 4.94039 100.644C4.65813 100.604 4.46204 100.342 4.50241 100.06L5.52453 100.206ZM3.88919 106.403C3.90323 106.118 4.14546 105.898 4.43024 105.912C4.71502 105.927 4.93449 106.169 4.92046 106.454L3.88919 106.403ZM27.4447 0.637687C27.8592 1.64207 28.2371 2.64086 28.5801 3.63439L27.6041 3.97133C27.2678 2.9972 26.8971 2.01739 26.4903 1.03154L27.4447 0.637687ZM30.286 9.79204C30.7323 11.9208 31.0267 14.0264 31.1864 16.1123L30.1569 16.1911C30.0006 14.149 29.7123 12.0878 29.2755 10.0039L30.286 9.79204ZM31.2693 22.4948C31.1652 24.6269 30.9341 26.7402 30.5953 28.8386L29.576 28.674C29.9092 26.6104 30.1359 24.5353 30.238 22.4445L31.2693 22.4948ZM29.2805 35.0738C28.7544 37.1151 28.1427 39.1457 27.4639 41.1692L26.485 40.8408C27.1571 38.8374 27.7615 36.8305 28.2806 34.8161L29.2805 35.0738ZM25.2796 47.1327C24.5095 49.0872 23.693 51.039 22.8469 52.9911L21.8996 52.5805C22.7422 50.6362 23.5541 48.6954 24.319 46.7542L25.2796 47.1327ZM20.2698 58.7797C19.4014 60.6927 18.5189 62.6127 17.6407 64.5367L16.7014 64.108C17.5813 62.1802 18.4616 60.265 19.3296 58.3529L20.2698 58.7797ZM15.0455 70.2983C14.1959 72.2223 13.3643 74.1562 12.5654 76.1035L11.6102 75.7116C12.4133 73.7537 13.2487 71.8112 14.101 69.8812L15.0455 70.2983ZM10.2848 81.9815C9.5676 83.9554 8.89806 85.9454 8.29096 87.9547L7.30257 87.6561C7.91585 85.6263 8.59155 83.6182 9.31438 81.6289L10.2848 81.9815ZM6.67446 94.0319C6.21038 96.0669 5.82228 98.1239 5.52453 100.206L4.50241 100.06C4.80447 97.9476 5.19792 95.8627 5.66779 93.8024L6.67446 94.0319ZM4.92046 106.454C4.8692 107.493 4.84274 108.54 4.84275 109.594L3.81023 109.594C3.81022 108.523 3.83712 107.459 3.88919 106.403L4.92046 106.454Z" fill="url(#paint0_linear_132_316)"/>
<defs>
<linearGradient id="paint0_linear_132_316" x1="30.4333" y1="0.654901" x2="9.2025" y2="115.718" gradientUnits="userSpaceOnUse">
<stop stop-color="#AC5CFD"/>
<stop offset="1" stop-color="#C0FF59"/>
</linearGradient>
</defs>
</svg>
