<svg width="274" height="140" viewBox="0 0 274 140" fill="none" xmlns="http://www.w3.org/2000/svg">
<path d="M0.676308 133.302C0.465834 133.123 0.440113 132.807 0.618844 132.597L3.53173 129.167C3.71049 128.956 4.02602 128.931 4.23649 129.109C4.44699 129.288 4.47271 129.604 4.29395 129.814L1.70473 132.863L4.75366 135.452C4.96414 135.631 4.98989 135.947 4.81113 136.157C4.63237 136.367 4.31684 136.393 4.10637 136.214L0.676308 133.302ZM270.061 6.36876C269.906 6.59733 269.595 6.65702 269.367 6.50208C269.138 6.34714 269.078 6.03623 269.233 5.80766L270.061 6.36876ZM262.287 15.7668C262.448 15.5426 262.76 15.4914 262.985 15.6526C263.209 15.8137 263.26 16.1261 263.099 16.3504L262.287 15.7668ZM255.836 26.133C255.668 26.352 255.354 26.3932 255.135 26.225C254.916 26.0568 254.875 25.7429 255.043 25.5239L255.836 26.133ZM247.459 35.0378C247.635 34.8252 247.95 34.7956 248.163 34.9718C248.376 35.148 248.405 35.4632 248.229 35.6758L247.459 35.0378ZM240.266 44.895C240.081 45.1 239.765 45.1164 239.56 44.9315C239.355 44.7465 239.339 44.4304 239.524 44.2253L240.266 44.895ZM231.183 53.0561C231.378 52.8599 231.694 52.8584 231.89 53.0528C232.086 53.2471 232.088 53.5637 231.894 53.7599L231.183 53.0561ZM223.091 62.2041C222.887 62.39 222.57 62.3751 222.384 62.1709C222.199 61.9667 222.213 61.6505 222.418 61.4646L223.091 62.2041ZM213.223 69.3858C213.437 69.2114 213.752 69.2437 213.926 69.4579C214.101 69.672 214.068 69.987 213.854 70.1613L213.223 69.3858ZM204.177 77.5887C203.953 77.7505 203.64 77.7001 203.478 77.4763C203.317 77.2524 203.367 76.9399 203.591 76.7782L204.177 77.5887ZM193.545 83.5991C193.778 83.4507 194.087 83.5192 194.235 83.7521C194.384 83.985 194.315 84.2941 194.082 84.4425L193.545 83.5991ZM183.618 90.6941C183.377 90.8289 183.072 90.7428 182.937 90.5018C182.803 90.2608 182.889 89.9562 183.13 89.8213L183.618 90.6941ZM172.364 95.457C172.612 95.3356 172.912 95.4383 173.033 95.6864C173.154 95.9344 173.052 96.2339 172.804 96.3552L172.364 95.457ZM161.724 101.425C161.47 101.533 161.176 101.416 161.068 101.162C160.959 100.908 161.077 100.614 161.331 100.505L161.724 101.425ZM150.054 105.011C150.313 104.914 150.601 105.046 150.697 105.304C150.794 105.563 150.662 105.851 150.403 105.948L150.054 105.011ZM138.87 109.97C138.607 110.055 138.325 109.912 138.239 109.649C138.154 109.386 138.297 109.104 138.56 109.019L138.87 109.97ZM126.955 112.555C127.22 112.479 127.497 112.633 127.572 112.899C127.648 113.164 127.494 113.441 127.229 113.517L126.955 112.555ZM115.464 116.654C115.196 116.721 114.925 116.558 114.858 116.29C114.791 116.022 114.954 115.751 115.222 115.684L115.464 116.654ZM103.384 118.453C103.654 118.394 103.921 118.565 103.98 118.834C104.039 119.104 103.868 119.371 103.598 119.43L103.384 118.453ZM91.6564 121.885C91.3852 121.938 91.123 121.76 91.0708 121.489C91.0185 121.218 91.1959 120.956 91.467 120.903L91.6564 121.885ZM79.492 123.074C79.7642 123.027 80.0225 123.21 80.0688 123.483C80.1151 123.755 79.932 124.013 79.6598 124.059L79.492 123.074ZM67.6251 125.987C67.3521 126.028 67.0974 125.84 67.0562 125.567C67.0151 125.294 67.2031 125.039 67.4762 124.998L67.6251 125.987ZM55.432 126.709C55.7057 126.672 55.9573 126.864 55.9939 127.138C56.0305 127.412 55.8383 127.663 55.5646 127.7L55.432 126.709ZM43.4863 129.225C43.2121 129.258 42.9633 129.062 42.9306 128.788C42.8979 128.513 43.0938 128.265 43.368 128.232L43.4863 129.225ZM31.2886 129.593C31.5632 129.564 31.8095 129.763 31.8388 130.037C31.868 130.312 31.6691 130.558 31.3945 130.587L31.2886 129.593ZM19.2905 131.808C19.0156 131.834 18.7715 131.633 18.7452 131.358C18.719 131.083 18.9205 130.839 19.1954 130.813L19.2905 131.808ZM7.08702 131.909C7.36215 131.886 7.60435 132.09 7.62797 132.365C7.6516 132.64 7.44772 132.882 7.17259 132.906L7.08702 131.909ZM273.468 1.27548C272.332 2.99529 271.197 4.69294 270.061 6.36876L269.233 5.80766C270.367 4.13532 271.5 2.44104 272.633 0.72452L273.468 1.27548ZM263.099 16.3504C260.689 19.705 258.27 22.9649 255.836 26.133L255.043 25.5239C257.47 22.3646 259.882 19.1133 262.287 15.7668L263.099 16.3504ZM248.229 35.6758C245.601 38.8482 242.949 41.9201 240.266 44.895L239.524 44.2253C242.196 41.2613 244.839 38.2 247.459 35.0378L248.229 35.6758ZM231.894 53.7599C229.004 56.6763 226.073 59.4897 223.091 62.2041L222.418 61.4646C225.386 58.7621 228.305 55.9607 231.183 53.0561L231.894 53.7599ZM213.854 70.1613C210.693 72.735 207.47 75.2094 204.177 77.5887L203.591 76.7782C206.868 74.4102 210.076 71.9475 213.223 69.3858L213.854 70.1613ZM194.082 84.4425C190.675 86.614 187.189 88.6964 183.618 90.6941L183.13 89.8213C186.685 87.8329 190.154 85.7602 193.545 83.5991L194.082 84.4425ZM172.804 96.3552C169.2 98.1184 165.51 99.807 161.724 101.425L161.331 100.505C165.101 98.894 168.777 97.2125 172.364 95.457L172.804 96.3552ZM150.403 105.948C146.652 107.347 142.81 108.687 138.87 109.97L138.56 109.019C142.487 107.74 146.316 106.405 150.054 105.011L150.403 105.948ZM127.229 113.517C123.398 114.608 119.478 115.653 115.464 116.654L115.222 115.684C119.226 114.685 123.135 113.643 126.955 112.555L127.229 113.517ZM103.598 119.43C99.7042 120.283 95.7249 121.101 91.6564 121.885L91.467 120.903C95.5278 120.12 99.4988 119.304 103.384 118.453L103.598 119.43ZM79.6598 124.059C75.7293 124.728 71.7188 125.37 67.6251 125.987L67.4762 124.998C71.5639 124.382 75.5681 123.741 79.492 123.074L79.6598 124.059ZM55.5646 127.7C51.6138 128.228 47.5885 128.736 43.4863 129.225L43.368 128.232C47.4657 127.744 51.4862 127.236 55.432 126.709L55.5646 127.7ZM31.3945 130.587C27.4296 131.01 23.3956 131.416 19.2905 131.808L19.1954 130.813C23.2972 130.421 27.3275 130.015 31.2886 129.593L31.3945 130.587ZM7.17259 132.906C5.14537 133.08 3.10145 133.251 1.0406 133.419L0.959338 132.422C3.01881 132.254 5.06127 132.083 7.08702 131.909L7.17259 132.906ZM0.352672 133.683C-0.0683031 133.325 -0.119744 132.694 0.237745 132.273L6.06348 125.413C6.42097 124.992 7.05206 124.941 7.47301 125.298C7.89398 125.656 7.94545 126.287 7.58794 126.708L2.40949 132.806L8.50736 137.984C8.92833 138.341 8.97977 138.973 8.62229 139.394C8.2648 139.814 7.63371 139.866 7.21273 139.508L0.352672 133.683ZM270.475 6.64931C270.165 7.10646 269.543 7.22584 269.086 6.91595C268.629 6.60606 268.51 5.98426 268.819 5.5271L270.475 6.64931ZM261.881 15.4751C262.203 15.0266 262.828 14.9242 263.276 15.2465C263.725 15.5688 263.827 16.1936 263.505 16.6421L261.881 15.4751ZM256.233 26.4376C255.896 26.8756 255.268 26.9579 254.83 26.6215C254.392 26.2851 254.31 25.6573 254.647 25.2193L256.233 26.4376ZM247.074 34.7188C247.426 34.2936 248.057 34.2344 248.482 34.5868C248.907 34.9391 248.966 35.5695 248.614 35.9948L247.074 34.7188ZM240.638 45.2298C240.268 45.64 239.636 45.6726 239.225 45.3028C238.815 44.9329 238.783 44.3006 239.152 43.8905L240.638 45.2298ZM230.828 52.7041C231.217 52.3118 231.85 52.3089 232.242 52.6976C232.635 53.0863 232.637 53.7194 232.249 54.1118L230.828 52.7041ZM223.427 62.5738C223.019 62.9456 222.386 62.9159 222.015 62.5075C221.643 62.0991 221.673 61.4666 222.081 61.0948L223.427 62.5738ZM212.907 68.998C213.336 68.6493 213.965 68.7139 214.314 69.1422C214.663 69.5705 214.598 70.2004 214.17 70.549L212.907 68.998ZM204.469 77.994C204.022 78.3175 203.397 78.2168 203.073 77.7691C202.75 77.3214 202.85 76.6963 203.298 76.3729L204.469 77.994ZM193.276 83.1775C193.742 82.8807 194.36 83.0177 194.657 83.4834C194.954 83.9492 194.817 84.5674 194.351 84.8642L193.276 83.1775ZM183.862 91.1305C183.38 91.4001 182.771 91.2279 182.501 90.7459C182.231 90.2639 182.404 89.6546 182.886 89.385L183.862 91.1305ZM172.144 95.0079C172.64 94.7652 173.239 94.9705 173.482 95.4666C173.725 95.9627 173.519 96.5616 173.023 96.8044L172.144 95.0079ZM161.921 101.885C161.413 102.102 160.825 101.866 160.608 101.358C160.391 100.85 160.627 100.263 161.135 100.046L161.921 101.885ZM149.879 104.542C150.397 104.349 150.973 104.612 151.166 105.13C151.359 105.647 151.096 106.223 150.578 106.416L149.879 104.542ZM139.025 110.445C138.499 110.616 137.935 110.329 137.764 109.804C137.593 109.279 137.88 108.714 138.405 108.543L139.025 110.445ZM126.818 112.074C127.349 111.923 127.902 112.231 128.053 112.762C128.205 113.293 127.897 113.846 127.365 113.998L126.818 112.074ZM115.585 117.139C115.049 117.273 114.507 116.947 114.373 116.411C114.239 115.875 114.565 115.333 115.101 115.199L115.585 117.139ZM103.277 117.965C103.817 117.846 104.35 118.188 104.468 118.727C104.586 119.267 104.245 119.8 103.705 119.918L103.277 117.965ZM91.7511 122.376C91.2088 122.481 90.6844 122.126 90.5798 121.584C90.4752 121.041 90.8301 120.517 91.3724 120.412L91.7511 122.376ZM79.4081 122.581C79.9526 122.488 80.4691 122.854 80.5617 123.399C80.6544 123.943 80.2881 124.46 79.7437 124.552L79.4081 122.581ZM67.6996 126.481C67.1535 126.564 66.6441 126.188 66.5618 125.642C66.4795 125.095 66.8556 124.586 67.4017 124.504L67.6996 126.481ZM55.3657 126.213C55.9132 126.14 56.4163 126.524 56.4895 127.072C56.5627 127.619 56.1783 128.122 55.6309 128.195L55.3657 126.213ZM43.5454 129.721C42.997 129.787 42.4995 129.395 42.4341 128.847C42.3688 128.298 42.7604 127.801 43.3088 127.736L43.5454 129.721ZM31.2357 129.096C31.7849 129.037 32.2775 129.435 32.336 129.984C32.3944 130.533 31.9967 131.026 31.4475 131.085L31.2357 129.096ZM19.338 132.306C18.7882 132.358 18.3 131.955 18.2475 131.405C18.195 130.856 18.5981 130.367 19.1479 130.315L19.338 132.306ZM7.04424 131.411C7.5945 131.364 8.07889 131.772 8.12614 132.322C8.1734 132.872 7.76564 133.357 7.2154 133.404L7.04424 131.411ZM273.885 1.55096C272.749 3.27241 271.612 4.97176 270.475 6.64931L268.819 5.5271C269.952 3.8565 271.084 2.16392 272.216 0.449041L273.885 1.55096ZM263.505 16.6421C261.092 20.0008 258.67 23.265 256.233 26.4376L254.647 25.2193C257.07 22.0645 259.479 18.8174 261.881 15.4751L263.505 16.6421ZM248.614 35.9948C245.981 39.1724 243.325 42.2496 240.638 45.2298L239.152 43.8905C241.82 40.9319 244.458 37.8759 247.074 34.7188L248.614 35.9948ZM232.249 54.1118C229.353 57.0341 226.416 59.8535 223.427 62.5738L222.081 61.0948C225.043 58.3984 227.956 55.6028 230.828 52.7041L232.249 54.1118ZM214.17 70.549C211.001 73.1288 207.77 75.609 204.469 77.994L203.298 76.3729C206.568 74.0106 209.768 71.5538 212.907 68.998L214.17 70.549ZM194.351 84.8642C190.935 87.0408 187.442 89.1282 183.862 91.1305L182.886 89.385C186.432 87.4012 189.893 85.3334 193.276 83.1775L194.351 84.8642ZM173.023 96.8044C169.412 98.5714 165.714 100.264 161.921 101.885L161.135 100.046C164.897 98.4375 168.565 96.7595 172.144 95.0079L173.023 96.8044ZM150.578 106.416C146.82 107.818 142.971 109.16 139.025 110.445L138.405 108.543C142.326 107.267 146.148 105.934 149.879 104.542L150.578 106.416ZM127.365 113.998C123.529 115.09 119.604 116.137 115.585 117.139L115.101 115.199C119.1 114.201 123.004 113.16 126.818 112.074L127.365 113.998ZM103.705 119.918C99.8069 120.772 95.8235 121.591 91.7511 122.376L91.3724 120.412C95.4292 119.63 99.3961 118.815 103.277 117.965L103.705 119.918ZM79.7437 124.552C75.8099 125.222 71.7963 125.864 67.6996 126.481L67.4017 124.504C71.4864 123.888 75.4875 123.248 79.4081 122.581L79.7437 124.552ZM55.6309 128.195C51.6776 128.724 47.6499 129.232 43.5454 129.721L43.3088 127.736C47.4043 127.248 51.4224 126.74 55.3657 126.213L55.6309 128.195ZM31.4475 131.085C27.4807 131.507 23.4449 131.914 19.338 132.306L19.1479 130.315C23.2479 129.923 27.2765 129.517 31.2357 129.096L31.4475 131.085ZM7.2154 133.404C5.18743 133.578 3.14279 133.749 1.08124 133.917L0.918706 131.924C2.97746 131.756 5.01923 131.585 7.04424 131.411L7.2154 133.404Z" fill="url(#paint0_linear_72_160)"/>
<defs>
<linearGradient id="paint0_linear_72_160" x1="277.96" y1="5.87665" x2="-13.2522" y2="149.94" gradientUnits="userSpaceOnUse">
<stop stop-color="#C0FF59"/>
<stop offset="1" stop-color="#C0FF59"/>
</linearGradient>
</defs>
</svg>
