<svg width="239" height="94" viewBox="0 0 239 94" fill="none" xmlns="http://www.w3.org/2000/svg">
<path d="M237.468 86.3197C237.645 86.1073 237.616 85.7921 237.403 85.6155L233.943 82.7386C233.731 82.562 233.415 82.5911 233.239 82.8034C233.062 83.0157 233.091 83.331 233.304 83.5075L236.379 86.0648L233.822 89.1406C233.646 89.3529 233.675 89.6682 233.887 89.8447C234.099 90.0212 234.415 89.9922 234.591 89.7799L237.468 86.3197ZM4.18535 6.29581C4.34559 6.5207 4.6578 6.57311 4.8827 6.41287C5.10759 6.25263 5.16 5.94042 4.99976 5.71552L4.18535 6.29581ZM12.2042 15.4738C12.0362 15.2547 11.7224 15.2132 11.5032 15.3812C11.2841 15.5492 11.2426 15.863 11.4106 16.0822L12.2042 15.4738ZM19.0298 25.6104C19.2069 25.8222 19.5222 25.8504 19.7341 25.6732C19.9459 25.4961 19.9741 25.1808 19.7969 24.9689L19.0298 25.6104ZM27.8006 34.0764C27.613 33.8738 27.2966 33.8617 27.094 34.0493C26.8914 34.2369 26.8793 34.5533 27.0669 34.7559L27.8006 34.0764ZM35.6092 43.4576C35.8086 43.6486 36.1251 43.6418 36.3161 43.4424C36.5072 43.243 36.5004 42.9265 36.301 42.7355L35.6092 43.4576ZM45.3365 50.8275C45.1245 50.6506 44.8092 50.6791 44.6323 50.8911C44.4554 51.1032 44.4839 51.4185 44.6959 51.5953L45.3365 50.8275ZM54.3451 59.0473C54.57 59.2074 54.8822 59.1549 55.0424 58.93C55.2026 58.7051 55.1501 58.3929 54.9252 58.2327L54.3451 59.0473ZM65.0733 64.8555C64.8361 64.7142 64.5292 64.7921 64.3879 65.0293C64.2467 65.2666 64.3245 65.5735 64.5618 65.7147L65.0733 64.8555ZM75.2953 71.512C75.5436 71.633 75.8429 71.5298 75.9638 71.2816C76.0848 71.0334 75.9816 70.7341 75.7334 70.6131L75.2953 71.512ZM86.8314 75.4697C86.5742 75.3693 86.2842 75.4964 86.1838 75.7536C86.0834 76.0109 86.2105 76.3008 86.4677 76.4012L86.8314 75.4697ZM98 80.3997C98.2641 80.4803 98.5436 80.3316 98.6242 80.0675C98.7049 79.8035 98.5562 79.524 98.2921 79.4433L98 80.3997ZM109.998 82.5793C109.729 82.5167 109.46 82.6841 109.398 82.953C109.335 83.222 109.502 83.4907 109.771 83.5533L109.998 82.5793ZM121.72 85.9511C121.992 85.9976 122.25 85.8146 122.297 85.5424C122.343 85.2702 122.16 85.0119 121.888 84.9654L121.72 85.9511ZM133.906 86.6947C133.632 86.6622 133.384 86.8581 133.351 87.1323C133.319 87.4065 133.514 87.6552 133.789 87.6877L133.906 86.6947ZM145.914 88.8541C146.189 88.8747 146.429 88.6682 146.45 88.3929C146.47 88.1175 146.264 87.8775 145.989 87.8569L145.914 88.8541ZM158.101 88.5384C157.825 88.5278 157.593 88.7428 157.582 89.0188C157.572 89.2947 157.787 89.527 158.063 89.5377L158.101 88.5384ZM170.26 89.8157C170.536 89.8179 170.762 89.5958 170.764 89.3197C170.766 89.0435 170.544 88.8179 170.268 88.8157L170.26 89.8157ZM182.424 88.7512C182.148 88.7561 181.928 88.9839 181.933 89.26C181.938 89.5361 182.166 89.7559 182.442 89.751L182.424 88.7512ZM194.589 89.4001C194.865 89.3892 195.08 89.1567 195.069 88.8808C195.058 88.6049 194.826 88.39 194.55 88.4009L194.589 89.4001ZM206.68 87.8094C206.404 87.8253 206.194 88.0617 206.21 88.3373C206.226 88.613 206.462 88.8236 206.738 88.8078L206.68 87.8094ZM218.88 88.0116C219.155 87.9915 219.362 87.7519 219.342 87.4765C219.322 87.2011 219.082 86.9942 218.807 87.0143L218.88 88.0116ZM230.924 86.0472C230.649 86.0709 230.445 86.3131 230.469 86.5883C230.493 86.8634 230.735 87.0672 231.01 87.0435L230.924 86.0472ZM0.672071 1.28395C1.84394 2.9824 3.01476 4.65293 4.18535 6.29581L4.99976 5.71552C3.83221 4.07691 2.66429 2.41051 1.49516 0.716047L0.672071 1.28395ZM11.4106 16.0822C13.9407 19.383 16.4777 22.5581 19.0298 25.6104L19.7969 24.9689C17.2545 21.9283 14.7264 18.7642 12.2042 15.4738L11.4106 16.0822ZM27.0669 34.7559C29.8828 37.7965 32.7267 40.6958 35.6092 43.4576L36.301 42.7355C33.4337 39.9883 30.6038 37.1033 27.8006 34.0764L27.0669 34.7559ZM44.6959 51.5953C47.8524 54.2287 51.0646 56.7111 54.3451 59.0473L54.9252 58.2327C51.6661 55.9119 48.4741 53.445 45.3365 50.8275L44.6959 51.5953ZM64.5618 65.7147C68.0517 67.7925 71.6251 69.7233 75.2953 71.512L75.7334 70.6131C72.0883 68.8366 68.5393 66.919 65.0733 64.8555L64.5618 65.7147ZM86.4677 76.4012C90.206 77.8607 94.0461 79.192 98 80.3997L98.2921 79.4433C94.3616 78.2428 90.5454 76.9197 86.8314 75.4697L86.4677 76.4012ZM109.771 83.5533C113.644 84.4538 117.623 85.2519 121.72 85.9511L121.888 84.9654C117.81 84.2693 113.85 83.4751 109.998 82.5793L109.771 83.5533ZM133.789 87.6877C137.724 88.1547 141.764 88.5426 145.914 88.8541L145.989 87.8569C141.852 87.5464 137.827 87.1598 133.906 86.6947L133.789 87.6877ZM158.063 89.5377C162.03 89.6907 166.094 89.7827 170.26 89.8157L170.268 88.8157C166.111 88.7828 162.057 88.691 158.101 88.5384L158.063 89.5377ZM182.442 89.751C186.401 89.6806 190.449 89.5631 194.589 89.4001L194.55 88.4009C190.416 88.5637 186.376 88.6809 182.424 88.7512L182.442 89.751ZM206.738 88.8078C210.703 88.5792 214.749 88.3135 218.88 88.0116L218.807 87.0143C214.681 87.3158 210.64 87.5812 206.68 87.8094L206.738 88.8078ZM231.01 87.0435C233.03 86.8693 235.07 86.6874 237.129 86.4979L237.038 85.5021C234.98 85.6915 232.943 85.8732 230.924 86.0472L231.01 87.0435ZM237.853 86.6393C238.206 86.2147 238.148 85.5841 237.723 85.2311L230.802 79.4772C230.378 79.1241 229.747 79.1821 229.394 79.6068C229.041 80.0315 229.099 80.662 229.524 81.015L235.675 86.1296L230.561 92.2811C230.208 92.7058 230.266 93.3363 230.69 93.6894C231.115 94.0425 231.746 93.9844 232.099 93.5598L237.853 86.6393ZM3.77814 6.58595C4.09863 7.03574 4.72305 7.14056 5.17284 6.82008C5.62263 6.4996 5.72745 5.87517 5.40697 5.42538L3.77814 6.58595ZM12.6011 15.1697C12.2651 14.7313 11.6374 14.6484 11.199 14.9844C10.7607 15.3203 10.6778 15.9481 11.0137 16.3864L12.6011 15.1697ZM18.6462 25.9311C19.0004 26.3548 19.6311 26.4111 20.0548 26.0568C20.4785 25.7026 20.5348 25.0719 20.1805 24.6482L18.6462 25.9311ZM28.1675 33.7367C27.7922 33.3315 27.1595 33.3072 26.7543 33.6825C26.3491 34.0577 26.3248 34.6904 26.7001 35.0956L28.1675 33.7367ZM35.2633 43.8186C35.6621 44.2007 36.2951 44.1871 36.6772 43.7883C37.0592 43.3896 37.0457 42.7565 36.6469 42.3745L35.2633 43.8186ZM45.6568 50.4435C45.2327 50.0897 44.6021 50.1467 44.2483 50.5708C43.8945 50.9949 43.9515 51.6255 44.3756 51.9793L45.6568 50.4435ZM54.0551 59.4545C54.5049 59.7749 55.1293 59.6699 55.4497 59.22C55.7701 58.7702 55.6651 58.1458 55.2152 57.8254L54.0551 59.4545ZM65.3291 64.4259C64.8546 64.1433 64.2408 64.299 63.9583 64.7736C63.6758 65.2481 63.8314 65.8618 64.306 66.1444L65.3291 64.4259ZM75.0763 71.9615C75.5727 72.2034 76.1713 71.9971 76.4133 71.5006C76.6553 71.0042 76.4489 70.4056 75.9525 70.1636L75.0763 71.9615ZM87.0133 75.004C86.4988 74.8031 85.9189 75.0573 85.7181 75.5718C85.5172 76.0863 85.7714 76.6662 86.2859 76.867L87.0133 75.004ZM97.8539 80.8779C98.3821 81.0392 98.9411 80.7418 99.1024 80.2136C99.2638 79.6854 98.9664 79.1264 98.4382 78.9651L97.8539 80.8779ZM110.111 82.0923C109.573 81.9672 109.036 82.3019 108.911 82.8398C108.785 83.3777 109.12 83.9152 109.658 84.0403L110.111 82.0923ZM121.635 86.444C122.18 86.537 122.696 86.171 122.789 85.6266C122.882 85.0821 122.516 84.5655 121.972 84.4725L121.635 86.444ZM133.965 86.1982C133.417 86.1331 132.92 86.525 132.855 87.0734C132.789 87.6218 133.181 88.1192 133.73 88.1842L133.965 86.1982ZM145.876 89.3527C146.427 89.394 146.907 88.981 146.948 88.4303C146.99 87.8796 146.577 87.3996 146.026 87.3583L145.876 89.3527ZM158.121 88.0388C157.569 88.0175 157.104 88.4476 157.083 88.9995C157.062 89.5514 157.492 90.016 158.044 90.0373L158.121 88.0388ZM170.256 90.3157C170.808 90.32 171.26 89.8759 171.264 89.3236C171.268 88.7714 170.824 88.3201 170.272 88.3157L170.256 90.3157ZM182.415 88.2513C181.863 88.2611 181.423 88.7167 181.433 89.2689C181.443 89.8211 181.899 90.2608 182.451 90.251L182.415 88.2513ZM194.609 89.8997C195.16 89.878 195.59 89.413 195.568 88.8611C195.547 88.3093 195.082 87.8795 194.53 87.9013L194.609 89.8997ZM206.651 87.3102C206.1 87.342 205.679 87.8147 205.71 88.3661C205.742 88.9175 206.215 89.3387 206.766 89.3069L206.651 87.3102ZM218.916 88.5103C219.467 88.4701 219.881 87.9909 219.84 87.4401C219.8 86.8893 219.321 86.4754 218.77 86.5156L218.916 88.5103ZM230.881 85.549C230.331 85.5964 229.923 86.0809 229.971 86.6312C230.018 87.1814 230.503 87.5891 231.053 87.5416L230.881 85.549ZM0.260525 1.56791C1.43377 3.26835 2.60604 4.94094 3.77814 6.58595L5.40697 5.42538C4.24094 3.78889 3.07446 2.12457 1.90671 0.432094L0.260525 1.56791ZM11.0137 16.3864C13.5478 19.6924 16.0892 22.873 18.6462 25.9311L20.1805 24.6482C17.643 21.6133 15.1192 18.4549 12.6011 15.1697L11.0137 16.3864ZM26.7001 35.0956C29.5223 38.1431 32.3732 41.0496 35.2633 43.8186L36.6469 42.3745C33.7872 39.6346 30.9642 36.7567 28.1675 33.7367L26.7001 35.0956ZM44.3756 51.9793C47.5415 54.6205 50.7638 57.1108 54.0551 59.4545L55.2152 57.8254C51.9669 55.5122 48.7849 53.0532 45.6568 50.4435L44.3756 51.9793ZM64.306 66.1444C67.8078 68.2292 71.3935 70.1667 75.0763 71.9615L75.9525 70.1636C72.3198 68.3932 68.7831 66.4823 65.3291 64.4259L64.306 66.1444ZM86.2859 76.867C90.0363 78.3312 93.8883 79.6667 97.8539 80.8779L98.4382 78.9651C94.5194 77.7682 90.7151 76.4492 87.0133 75.004L86.2859 76.867ZM109.658 84.0403C113.541 84.9432 117.53 85.7432 121.635 86.444L121.972 84.4725C117.904 83.7781 113.953 82.9857 110.111 82.0923L109.658 84.0403ZM133.73 88.1842C137.673 88.6521 141.719 89.0407 145.876 89.3527L146.026 87.3583C141.896 87.0483 137.878 86.6624 133.965 86.1982L133.73 88.1842ZM158.044 90.0373C162.016 90.1905 166.085 90.2827 170.256 90.3157L170.272 88.3157C166.12 88.2829 162.071 88.1912 158.121 88.0388L158.044 90.0373ZM182.451 90.251C186.414 90.1805 190.465 90.0629 194.609 89.8997L194.53 87.9013C190.4 88.0639 186.363 88.181 182.415 88.2513L182.451 90.251ZM206.766 89.3069C210.734 89.0783 214.783 88.8123 218.916 88.5103L218.77 86.5156C214.647 86.817 210.608 87.0822 206.651 87.3102L206.766 89.3069ZM231.053 87.5416C233.074 87.3674 235.115 87.1854 237.175 86.9958L236.992 85.0042C234.935 85.1935 232.899 85.3751 230.881 85.549L231.053 87.5416Z" fill="url(#paint0_linear_72_203)"/>
<defs>
<linearGradient id="paint0_linear_72_203" x1="-2.91639" y1="6.50001" x2="250.084" y2="99.5" gradientUnits="userSpaceOnUse">
<stop stop-color="#C0FF59"/>
<stop offset="1" stop-color="#AC5CFD"/>
</linearGradient>
</defs>
</svg>
