<svg width="29" height="115" viewBox="0 0 29 115" fill="none" xmlns="http://www.w3.org/2000/svg">
<path d="M1.10737 114.621C0.957576 114.628 0.830596 114.512 0.823751 114.363L0.712195 111.922C0.70535 111.772 0.821233 111.645 0.971027 111.638C1.12082 111.631 1.2478 111.747 1.25465 111.897L1.35381 114.067L3.52362 113.967C3.67341 113.961 3.80039 114.076 3.80724 114.226C3.81408 114.376 3.6982 114.503 3.54841 114.51L1.10737 114.621ZM17.1034 4.09638C17.1553 4.23705 17.0834 4.39318 16.9427 4.4451C16.802 4.49701 16.6459 4.42506 16.594 4.28439L17.1034 4.09638ZM18.9017 10.6831C18.852 10.5416 18.9265 10.3866 19.068 10.337C19.2095 10.2873 19.3644 10.3618 19.4141 10.5033L18.9017 10.6831ZM21.5955 16.9556C21.6416 17.0983 21.5634 17.2514 21.4208 17.2976C21.2781 17.3438 21.125 17.2656 21.0788 17.1229L21.5955 16.9556ZM23.0688 23.6191C23.0274 23.475 23.1106 23.3246 23.2547 23.2832C23.3989 23.2418 23.5493 23.3251 23.5907 23.4692L23.0688 23.6191ZM25.335 30.0566C25.37 30.2023 25.2803 30.349 25.1345 30.3841C24.9887 30.4192 24.8421 30.3294 24.807 30.1836L25.335 30.0566ZM26.2216 36.8222C26.1945 36.6747 26.2921 36.5332 26.4395 36.506C26.587 36.4789 26.7286 36.5765 26.7557 36.724L26.2216 36.8222ZM27.7744 43.4674C27.7918 43.6164 27.6852 43.7512 27.5362 43.7686C27.3873 43.786 27.2524 43.6793 27.2351 43.5304L27.7744 43.4674ZM27.7696 50.2904C27.7636 50.1406 27.8802 50.0143 28.03 50.0083C28.1799 50.0023 28.3062 50.1189 28.3122 50.2687L27.7696 50.2904ZM28.2981 57.0933C28.2913 57.2431 28.1644 57.359 28.0146 57.3522C27.8648 57.3455 27.7489 57.2185 27.7557 57.0687L28.2981 57.0933ZM27.1428 63.8177C27.1632 63.6692 27.3002 63.5653 27.4488 63.5857C27.5973 63.6061 27.7012 63.7431 27.6808 63.8916L27.1428 63.8177ZM26.4375 70.6059C26.4034 70.7519 26.2573 70.8426 26.1113 70.8084C25.9653 70.7743 25.8746 70.6282 25.9088 70.4822L26.4375 70.6059ZM24.0651 77.002C24.1124 76.8597 24.2661 76.7826 24.4084 76.8299C24.5507 76.8772 24.6277 77.0309 24.5804 77.1732L24.0651 77.002ZM22.1516 83.5439C22.0923 83.6816 21.9326 83.7452 21.7949 83.6859C21.6572 83.6266 21.5936 83.4669 21.6529 83.3292L22.1516 83.5439ZM18.7272 89.4422C18.797 89.3095 18.9612 89.2587 19.0939 89.3285C19.2266 89.3984 19.2775 89.5626 19.2076 89.6953L18.7272 89.4422ZM15.8061 95.6264C15.7271 95.7538 15.5597 95.7931 15.4323 95.714C15.3049 95.635 15.2656 95.4676 15.3447 95.3402L15.8061 95.6264ZM11.5994 100.975C11.6862 100.853 11.8556 100.824 11.978 100.911C12.1003 100.997 12.1291 101.167 12.0424 101.289L11.5994 100.975ZM7.9336 106.756C7.84036 106.874 7.66957 106.893 7.55213 106.8C7.4347 106.707 7.41508 106.536 7.50833 106.419L7.9336 106.756ZM3.17309 111.616C3.27176 111.503 3.44328 111.492 3.5562 111.591C3.6691 111.689 3.68065 111.861 3.58197 111.974L3.17309 111.616ZM15.9153 0.904651C16.3159 1.97263 16.7122 3.03645 17.1034 4.09638L16.594 4.28439C16.2032 3.2255 15.8072 2.16259 15.4069 1.09535L15.9153 0.904651ZM19.4141 10.5033C20.1733 12.6672 20.903 14.8171 21.5955 16.9556L21.0788 17.1229C20.388 14.9893 19.6597 12.8435 18.9017 10.6831L19.4141 10.5033ZM23.5907 23.4692C24.2238 25.6733 24.8082 27.8682 25.335 30.0566L24.807 30.1836C24.2823 28.0037 23.7 25.8166 23.0688 23.6191L23.5907 23.4692ZM26.7557 36.724C27.1694 38.9743 27.5122 41.2211 27.7744 43.4674L27.2351 43.5304C26.9743 41.2967 26.6333 39.0618 26.2216 36.8222L26.7557 36.724ZM28.3122 50.2687C28.4029 52.5396 28.4015 54.8134 28.2981 57.0933L27.7557 57.0687C27.8583 54.8049 27.8597 52.5466 27.7696 50.2904L28.3122 50.2687ZM27.6808 63.8916C27.3748 66.12 26.9633 68.3571 26.4375 70.6059L25.9088 70.4822C26.4307 68.2501 26.8391 66.0296 27.1428 63.8177L27.6808 63.8916ZM24.5804 77.1732C23.8792 79.2835 23.0719 81.4063 22.1516 83.5439L21.6529 83.3292C22.5671 81.2056 23.3688 79.0973 24.0651 77.002L24.5804 77.1732ZM19.2076 89.6953C18.1737 91.6577 17.0417 93.6341 15.8061 95.6264L15.3447 95.3402C16.5737 93.3584 17.6994 91.393 18.7272 89.4422L19.2076 89.6953ZM12.0424 101.289C10.7606 103.097 9.39226 104.919 7.9336 106.756L7.50833 106.419C8.96111 104.589 10.3235 102.775 11.5994 100.975L12.0424 101.289ZM3.58197 111.974C2.83939 112.823 2.07736 113.677 1.29553 114.533L0.894426 114.167C1.67368 113.313 2.43311 112.463 3.17309 111.616L3.58197 111.974ZM1.11977 114.893C0.820178 114.906 0.566213 114.675 0.552525 114.375L0.329417 109.493C0.315726 109.193 0.54749 108.939 0.847079 108.926C1.14667 108.912 1.40063 109.144 1.41432 109.443L1.61264 113.783L5.95226 113.585C6.25185 113.571 6.50581 113.803 6.5195 114.102C6.53319 114.402 6.30142 114.656 6.00183 114.67L1.11977 114.893ZM17.3581 4.00237C17.462 4.28372 17.318 4.59598 17.0367 4.69981C16.7553 4.80365 16.4431 4.65974 16.3393 4.37839L17.3581 4.00237ZM18.6455 10.773C18.5462 10.49 18.6951 10.1801 18.9781 10.0808C19.2611 9.9815 19.571 10.1304 19.6703 10.4134L18.6455 10.773ZM21.8538 16.872C21.9461 17.1573 21.7897 17.4635 21.5044 17.5559C21.2191 17.6483 20.9129 17.4919 20.8205 17.2065L21.8538 16.872ZM22.8078 23.6941C22.725 23.4058 22.8915 23.105 23.1798 23.0222C23.468 22.9394 23.7688 23.106 23.8516 23.3942L22.8078 23.6941ZM25.5989 29.993C25.6691 30.2846 25.4896 30.5779 25.1981 30.648C24.9065 30.7182 24.6132 30.5388 24.543 30.2472L25.5989 29.993ZM25.9546 36.8713C25.9003 36.5763 26.0955 36.2932 26.3904 36.239C26.6854 36.1848 26.9685 36.3799 27.0227 36.6749L25.9546 36.8713ZM28.0441 43.436C28.0789 43.7338 27.8656 44.0035 27.5677 44.0383C27.2698 44.073 27.0001 43.8598 26.9654 43.5619L28.0441 43.436ZM27.4983 50.3013C27.4863 50.0016 27.7195 49.749 28.0192 49.737C28.3189 49.725 28.5715 49.9582 28.5835 50.2579L27.4983 50.3013ZM28.5694 57.1056C28.5558 57.4052 28.3019 57.6371 28.0023 57.6235C27.7027 57.6099 27.4709 57.356 27.4844 57.0564L28.5694 57.1056ZM26.8738 63.7808C26.9147 63.4837 27.1886 63.2759 27.4857 63.3167C27.7828 63.3575 27.9906 63.6314 27.9498 63.9286L26.8738 63.7808ZM26.7019 70.6677C26.6336 70.9597 26.3415 71.1411 26.0495 71.0728C25.7575 71.0045 25.5761 70.7124 25.6444 70.4204L26.7019 70.6677ZM23.8075 76.9164C23.902 76.6318 24.2094 76.4777 24.494 76.5723C24.7786 76.6669 24.9327 76.9742 24.8381 77.2588L23.8075 76.9164ZM22.401 83.6513C22.2824 83.9267 21.963 84.0539 21.6875 83.9353C21.4121 83.8167 21.2849 83.4973 21.4035 83.2218L22.401 83.6513ZM18.4869 89.3157C18.6267 89.0503 18.9551 88.9486 19.2205 89.0883C19.4858 89.2281 19.5876 89.5565 19.4478 89.8219L18.4869 89.3157ZM16.0369 95.7695C15.8788 96.0244 15.5441 96.1028 15.2892 95.9448C15.0343 95.7867 14.9559 95.452 15.1139 95.1971L16.0369 95.7695ZM11.378 100.818C11.5514 100.573 11.8904 100.516 12.135 100.689C12.3796 100.863 12.4374 101.202 12.2639 101.446L11.378 100.818ZM8.14624 106.925C7.95975 107.16 7.61818 107.199 7.38331 107.013C7.14843 106.826 7.10921 106.485 7.29569 106.25L8.14624 106.925ZM2.96865 111.438C3.16599 111.212 3.50903 111.189 3.73486 111.386C3.96068 111.583 3.98376 111.926 3.78642 112.152L2.96865 111.438ZM16.1696 0.809302C16.5703 1.87766 16.9668 2.94193 17.3581 4.00237L16.3393 4.37839C15.9487 3.32002 15.5529 2.25756 15.1527 1.1907L16.1696 0.809302ZM19.6703 10.4134C20.4301 12.579 21.1605 14.731 21.8538 16.872L20.8205 17.2065C20.1304 15.0753 19.4029 12.9317 18.6455 10.773L19.6703 10.4134ZM23.8516 23.3942C24.4858 25.6017 25.0711 27.8004 25.5989 29.993L24.543 30.2472C24.0193 28.0715 23.4381 25.8882 22.8078 23.6941L23.8516 23.3942ZM27.0227 36.6749C27.4374 38.9306 27.7811 41.1832 28.0441 43.436L26.9654 43.5619C26.7054 41.3346 26.3653 39.1055 25.9546 36.8713L27.0227 36.6749ZM28.5835 50.2579C28.6745 52.5361 28.6731 54.8176 28.5694 57.1056L27.4844 57.0564C27.5867 54.8007 27.5881 52.5501 27.4983 50.3013L28.5835 50.2579ZM27.9498 63.9286C27.6426 66.1652 27.2297 68.4105 26.7019 70.6677L25.6444 70.4204C26.1644 68.1966 26.5712 65.9844 26.8738 63.7808L27.9498 63.9286ZM24.8381 77.2588C24.1343 79.3766 23.3243 81.5066 22.401 83.6513L21.4035 83.2218C22.3147 81.1052 23.1136 79.0042 23.8075 76.9164L24.8381 77.2588ZM19.4478 89.8219C18.4109 91.7901 17.2756 93.772 16.0369 95.7695L15.1139 95.1971C16.3397 93.2205 17.4623 91.2607 18.4869 89.3157L19.4478 89.8219ZM12.2639 101.446C10.9791 103.258 9.60783 105.084 8.14624 106.925L7.29569 106.25C8.74554 104.424 10.105 102.614 11.378 100.818L12.2639 101.446ZM3.78642 112.152C3.04252 113.004 2.27919 113.858 1.49608 114.716L0.693876 113.984C1.47184 113.132 2.22998 112.283 2.96865 111.438L3.78642 112.152Z" fill="url(#paint0_linear_132_314)"/>
<defs>
<linearGradient id="paint0_linear_132_314" x1="18.6897" y1="1.04035" x2="-12.8824" y2="111.657" gradientUnits="userSpaceOnUse">
<stop stop-color="#AC5CFD"/>
<stop offset="1" stop-color="#AC5CFD"/>
</linearGradient>
</defs>
</svg>
