<svg width="223" height="62" viewBox="0 0 223 62" fill="none" xmlns="http://www.w3.org/2000/svg">
<path d="M24.3034 30.3974C23.9947 35.3569 21.3676 40.1875 20.2573 45.1148C19.8508 46.9142 19.6702 48.8062 21.0101 50.4748C22.35 52.1434 25.5793 53.494 28.914 53.2202C31.6992 52.9847 33.8069 51.7268 35.1355 50.4024C45.0643 40.6324 25.3986 28.4289 31.7293 17.8377C33.0729 15.5935 36.562 13.2426 41.2629 14.0497C42.7728 14.3199 44.0708 14.8519 44.9514 15.5613C49.5319 19.14 47.3301 23.5902 46.0429 27.6902C45.4745 29.5118 45.2299 31.5145 45.7945 33.3461C46.6789 36.2304 54.5528 36.0996 55.042 33.1871C55.4184 30.9972 54.6882 28.598 53.8866 26.4363C52.2681 22.0766 51.6283 16.6059 59.4569 14.4241C60.0932 14.2404 60.7957 14.132 61.5171 14.1059C62.2384 14.0799 62.9618 14.1369 63.6385 14.2731C67.9141 15.1849 66.4763 18.6388 67.9931 20.4523C68.1889 20.6871 68.51 20.8857 68.9161 21.0232C69.3222 21.1607 69.7952 21.231 70.2758 21.2252C70.7563 21.2194 71.223 21.1377 71.6171 20.9906C72.0112 20.8434 72.3151 20.6372 72.4908 20.398C73.7592 18.6831 72.679 15.7082 76.1266 15.1909C79.164 14.7361 81.0572 16.9199 81.3959 18.5986C83.2778 28.3685 78.2268 38.1546 78.4527 47.985C78.5769 53.3329 81.426 59.5202 90.5569 61.7C91.5355 61.9335 92.6609 62.1127 93.6658 61.9154C94.6707 61.7182 95.352 61.1526 95.7848 60.6051C98.5286 57.1492 95.8751 53.2283 93.7147 49.6576C87.9419 40.1098 85.716 30.0504 87.162 20.0457C87.4217 18.2604 89.1493 15.9014 92.4313 16.2557C95.4423 16.5777 95.7208 18.7737 95.5063 20.406C95.2917 22.0384 96.4133 24.2826 99.462 24.1417C101.882 24.031 102.902 22.3705 102.537 21.0863C102.172 19.8022 101.031 18.5301 101.509 17.2621C101.987 15.994 105.428 15.048 106.816 16.1068L110.603 24.0109C110.753 24.3437 111.048 24.6527 111.465 24.9126C113.633 26.2169 116.869 24.7536 117.283 23.3024C117.66 21.9881 116.828 20.6355 117.283 19.3292C117.298 19.2836 117.317 19.2373 117.34 19.1903C118.126 17.5519 122.609 17.6646 123.211 19.3232C125.673 25.9626 128.704 32.5363 132.305 39.0443C132.623 39.6453 133.247 40.1874 134.107 40.6102C138.225 42.5848 143.14 39.5253 142.516 37.0416C141.962 34.7853 139.004 32.9255 137.532 30.7899C136.989 29.9753 136.789 29.1066 136.945 28.2458C137.228 26.6899 140.709 25.8969 142.949 26.8932C144.729 27.6822 147.491 27.9177 149.347 27.1267C150.22 26.7523 150.852 26.2189 151.861 25.9432C155.572 24.9126 158.339 27.9962 158.67 30.2263C159.4 35.1093 160.572 39.9648 162.185 44.7928C162.723 46.403 164.409 48.4399 167.413 48.1662C169.671 47.9649 170.657 46.5177 170.928 45.296C172.773 36.9309 162.132 27.9861 169.11 20.4362C170.992 18.4094 175.26 16.5516 179.137 17.4533C180.827 17.8558 182.001 18.6811 182.935 19.5305C191.189 27.0643 185.332 36.5001 182.205 45.0685C181.113 48.0655 181.29 52.0085 186.586 53.1498C191.881 54.291 197.444 51.2316 197.907 48.2084C198.37 45.1852 195.675 42.3231 193.97 39.4307C191.271 34.8477 191.034 29.9707 190.82 25.1642C190.729 23.0951 190.82 20.7764 193.564 19.3272C196.405 17.8216 198.405 13.502 202.766 12.5C218 9 221.3 11.5498 222 10C223.923 5.74098 210.339 2.05157 202.766 0.380975C195.747 -1.17087 188.78 2.44004 181.538 3.66179C169.08 5.76514 156.434 0.578225 143.381 0.338706C131.695 0.125352 121.111 3.86911 109.647 5.10092C92.4538 6.94864 74.8846 3.03783 57.3605 3.39409C46.0429 3.62355 35.079 5.65846 23.7275 5.60814C16.4672 5.57594 7.77669 3.54907 5.55983 8.55886C-9.85917 6.39175 11.1716 14.8568 16.0231 17.4352C22.4064 20.8287 24.5969 25.6855 24.3034 30.3974Z" fill="#C0FF59"/>
</svg>
