<svg width="86" height="203" viewBox="0 0 86 203" fill="none" xmlns="http://www.w3.org/2000/svg">
<path d="M42.1526 5.41283C48.9403 6.7285 55.9463 6.37044 62.5645 4.36963C67.9673 2.72839 73.4381 -0.0273916 78.9633 1.10075C84.4884 2.22889 88.5661 10.1055 84.0875 13.5375C81.4405 15.5763 77.1555 14.9714 75.1133 17.6151C74.5167 18.4681 74.1249 19.4471 73.9682 20.4762C73.2886 23.7927 73.6012 27.2722 72.5818 30.5037C71.5624 33.7352 68.5042 36.7595 65.1912 36.0289C59.4146 34.7513 59.3092 24.2208 53.4136 23.8165C48.9317 23.5106 47.0526 29.3654 46.672 33.8372C44.1677 63.0601 41.6667 92.5276 45.0205 121.669C47.3074 141.571 52.3195 161.256 52.1054 181.29C52.0273 188.807 50.5763 197.407 43.9706 201.206C43.2901 201.614 42.5475 201.908 41.7721 202.076C37.4498 202.932 34.9285 198.821 33.8649 195.103C30.4091 183.051 34.2352 170.298 36.3114 157.933C42.2817 122.359 33.5183 85.82 36.9367 49.9098C37.6163 42.638 38.673 34.7003 34.3134 28.6756C33.8489 28.0204 33.1636 27.5546 32.3834 27.364C29.3727 26.6844 28.1018 30.9251 28.1562 33.9595L28.6455 60.4878C28.7033 63.5868 28.7237 66.8421 27.2625 69.5741C25.8014 72.3061 22.3219 74.2293 19.5287 72.8905C16.3312 71.358 16.0185 67.0086 16.1612 63.4645C16.4467 56.4781 16.7298 49.4896 17.0108 42.4987C17.1773 38.4619 17.1603 33.9255 14.3399 31.0338C13.7392 30.4526 12.9489 30.1075 12.1142 30.062C4.06432 29.2567 -1.29656 23.0912 1.5 15.5C2.93521 11.5154 5.6708 5.85795 8.9099 3.12936C17.6564 -4.2919 32.7537 3.5745 42.1526 5.41283Z" fill="#C0FF59"/>
</svg>
