<svg width="95" height="114" viewBox="0 0 95 114" fill="none" xmlns="http://www.w3.org/2000/svg">
<path d="M2.04756 26.8225C4.24249 30.294 9.63643 31.673 12.649 28.8823C14.4989 27.172 15.495 24.1423 17.9939 23.8114C21.6448 23.319 23.2803 29.0973 26.9224 29.6277C30.7691 30.1967 33.8616 24.5231 37.7436 26.7318C38.3193 27.0701 38.8201 27.5222 39.2152 28.0606C46.4189 37.4876 43.3322 50.7243 38.6327 61.4288C34.0651 71.8324 28.0443 82.431 29.1991 93.7321C29.8214 99.6505 32.3919 105.195 36.5068 109.494C38.0025 111.043 39.7736 112.456 41.8761 112.907C47.744 114.166 52.5004 107.284 52.2772 101.288C52.0541 95.2931 48.8632 89.8451 47.4289 84.0198C43.6033 68.5033 52.4747 51.9069 48.4499 36.4457C47.866 34.1973 47.0096 31.8621 47.6115 29.6202C48.2133 27.3784 51.1443 25.6524 52.9007 27.1758C53.3567 27.6121 53.7099 28.1444 53.9345 28.7342C57.0532 35.7996 54.0782 43.8768 51.9449 51.2972C50.8414 55.1283 50.1149 59.4522 50.4878 63.4155C50.956 68.4317 58.3706 68.1947 58.4559 63.1584C58.4951 60.8559 58.2998 58.4883 58.186 56.2609C57.7599 47.9267 59.1893 39.6207 60.6136 31.4076C61.0398 28.9404 62.961 25.6873 65.1265 26.9438C66.6997 27.8573 66.3046 30.2711 67.2452 31.8271C68.4427 33.8152 71.6353 33.7 73.2946 32.0697C75.2873 30.1208 75.4799 26.8822 75.1794 24.2445C75.0701 23.3726 75.2562 22.4891 75.7078 21.7353C77.0354 19.5811 79.5033 20.5379 80.8243 22.0086C81.8873 23.1883 82.5866 24.6973 83.8191 25.6994C86.2169 27.6472 90.0525 26.9544 92.1963 24.7304C94.3401 22.5063 95.0029 19.1927 94.7288 16.1147C93.8449 6.12392 82.6901 -1.58577 73.0311 1.12004C66.938 2.82243 62.3505 7.66644 57.3259 11.5273C52.3013 15.3882 45.5892 18.4274 39.7976 15.882C34.9337 13.748 30.9056 7.89096 25.821 9.42498C21.7864 10.6449 20.7574 12.2296 16.3379 11.2446C13.703 10.6576 11.4172 8.1381 8.52389 8.72095C1.8708 10.0137 -1.18722 21.7066 2.04756 26.8225Z" fill="#AC5CFD"/>
</svg>
