<svg viewBox="0 0 69 19" fill="none" xmlns="http://www.w3.org/2000/svg">
    <mask id="mask0_275_510" style="mask-type:alpha" maskUnits="userSpaceOnUse" x="0" y="0" width="70" height="19">
        <path d="M34.5416 3.79325V14.3857C34.5416 14.4664 34.481 14.5471 34.3802 14.5471H33.2705C32.7661 14.5471 32.2818 14.2848 31.9994 13.8611L26.9957 6.13368L27.1571 9.98732V14.4059C27.1571 14.4866 27.0966 14.5673 26.9957 14.5673H25.543C25.4623 14.5673 25.3816 14.5068 25.3816 14.4059V3.79325C25.3816 3.71254 25.4421 3.63184 25.543 3.63184H26.6325C27.1369 3.63184 27.6211 3.89413 27.9036 4.31783L32.9073 12.0251L32.7459 8.17147V3.79325C32.7459 3.71254 32.8064 3.63184 32.9073 3.63184H34.36C34.481 3.63184 34.5416 3.69237 34.5416 3.79325Z" fill="white"/>
        <path d="M49.4316 14.527H47.8982C47.7973 14.527 47.7166 14.4261 47.757 14.3252L51.8325 3.77307C51.8729 3.69236 51.9536 3.63184 52.0343 3.63184H53.9712C54.0721 3.63184 54.1528 3.69236 54.173 3.77307L58.2687 14.3252C58.3091 14.4261 58.2284 14.527 58.1275 14.527H56.5941C56.5336 14.527 56.473 14.4866 56.4529 14.4261L53.1642 5.75033C53.1238 5.62927 52.922 5.62927 52.8817 5.75033L49.593 14.4261C49.5526 14.4866 49.4921 14.527 49.4316 14.527Z" fill="white"/>
        <path d="M68.962 14.2848L65.8952 10.3707C67.6304 10.0478 68.6392 8.87763 68.6392 7.08196C68.6392 5.02399 67.3076 3.63184 64.9268 3.63184H60.6494C60.5284 3.63184 60.4275 3.73272 60.4275 3.85377C60.4275 4.66082 61.0731 5.30646 61.8802 5.30646H64.7654C66.1979 5.30646 66.8839 6.0328 66.8839 7.10213C66.8839 8.17147 66.218 8.89781 64.7654 8.89781H60.6898C60.5687 8.89781 60.4678 8.99869 60.4678 9.11975V14.3655C60.4678 14.4462 60.5284 14.527 60.6293 14.527H62.0819C62.1626 14.527 62.2433 14.4664 62.2433 14.3655V10.4715H63.918L66.5812 13.9418C66.8637 14.3252 67.3076 14.527 67.7918 14.527H68.9015C68.9822 14.527 69.0427 14.3857 68.962 14.2848Z" fill="white"/>
        <path d="M44.8314 3.63184H38.0724C37.9513 3.63184 37.8706 3.71254 37.8706 3.8336C37.8706 4.64064 38.5364 5.30646 39.3435 5.30646H44.8314C44.9121 5.30646 44.9928 5.24593 44.9928 5.14505V3.77307C44.9726 3.69236 44.9121 3.63184 44.8314 3.63184ZM44.8314 12.8523H39.7873C39.7066 12.8523 39.6259 12.7918 39.6259 12.6909V9.96715C39.6259 9.88644 39.6865 9.80574 39.7873 9.80574H44.448C44.5287 9.80574 44.6094 9.74521 44.6094 9.64433V8.27235C44.6094 8.19165 44.5489 8.11094 44.448 8.11094H38.0925C37.9715 8.11094 37.8706 8.21182 37.8706 8.33288V14.2848C37.8706 14.4059 37.9715 14.5068 38.0925 14.5068H44.8314C44.9121 14.5068 44.9928 14.4463 44.9928 14.3454V12.9734C44.9726 12.9129 44.9121 12.8523 44.8314 12.8523Z" fill="white"/>
        <path d="M14.5672 0.928102L10.7741 6.55725C10.5118 6.9406 11.0162 7.40465 11.3793 7.08183L15.1119 3.83347C15.2128 3.75276 15.3541 3.81329 15.3541 3.95452V14.1031C15.3541 14.2444 15.1725 14.3049 15.0918 14.204L3.79312 0.685989C3.42995 0.242114 2.90537 0 2.32026 0H1.91673C0.867574 0 0 0.867574 0 1.93691V16.2216C0 17.291 0.867574 18.1585 1.93691 18.1585C2.60272 18.1585 3.22818 17.8155 3.59136 17.2304L7.38447 11.6013C7.64676 11.2179 7.14236 10.7539 6.77919 11.0767L3.0466 14.3049C2.94572 14.3856 2.80448 14.3251 2.80448 14.1838V4.05541C2.80448 3.91417 2.98607 3.85364 3.06677 3.95452L14.3654 17.4725C14.7286 17.9164 15.2733 18.1585 15.8383 18.1585H16.2418C17.3111 18.1585 18.1787 17.291 18.1787 16.2216V1.93691C18.1585 0.867574 17.291 0 16.2216 0C15.5558 0 14.9303 0.342994 14.5672 0.928102Z" fill="white"/>
    </mask>
    <g mask="url(#mask0_275_510)">
        <rect x="-1" width="70" height="22" fill="url(#paint0_linear_275_510)"/>
    </g>
    <defs>
        <linearGradient id="paint0_linear_275_510" x1="-0.668104" y1="0.289474" x2="56.0691" y2="41.9879" gradientUnits="userSpaceOnUse">
            <stop stop-color="#886FD1"/>
            <stop offset="0.46875" stop-color="#457AE4"/>
            <stop offset="1" stop-color="#0EC4D6"/>
        </linearGradient>
    </defs>
</svg>
