<svg width="33" height="113" viewBox="0 0 33 113" fill="none" xmlns="http://www.w3.org/2000/svg">
<path d="M1.88553 112.292C1.76275 112.314 1.64546 112.232 1.62356 112.11L1.26667 110.109C1.24477 109.986 1.32654 109.869 1.44932 109.847C1.5721 109.825 1.68939 109.907 1.71129 110.03L2.02853 111.808L3.80703 111.491C3.92981 111.469 4.04709 111.551 4.069 111.673C4.0909 111.796 4.00912 111.914 3.88634 111.935L1.88553 112.292ZM22.5545 2.83983C22.607 2.95295 22.5579 3.08723 22.4448 3.13974C22.3317 3.19226 22.1974 3.14313 22.1449 3.03L22.5545 2.83983ZM24.3674 8.03721C24.3188 7.92232 24.3726 7.78984 24.4875 7.74131C24.6024 7.69278 24.7349 7.74657 24.7834 7.86145L24.3674 8.03721ZM26.8229 12.9801C26.8666 13.0969 26.8072 13.227 26.6904 13.2706C26.5735 13.3142 26.4435 13.2549 26.3998 13.1381L26.8229 12.9801ZM28.1884 18.3137C28.1507 18.1948 28.2166 18.0679 28.3355 18.0303C28.4544 17.9926 28.5813 18.0585 28.6189 18.1774L28.1884 18.3137ZM30.1279 23.4739C30.1584 23.5948 30.085 23.7175 29.9641 23.748C29.8432 23.7785 29.7204 23.7052 29.6899 23.5842L30.1279 23.4739ZM30.8494 28.9383C30.8273 28.8155 30.9089 28.6981 31.0316 28.676C31.1544 28.6539 31.2718 28.7355 31.2939 28.8582L30.8494 28.9383ZM32.0651 34.3102C32.0777 34.4343 31.9874 34.5452 31.8633 34.5578C31.7393 34.5705 31.6284 34.4802 31.6158 34.3561L32.0651 34.3102ZM31.95 39.8189C31.9475 39.6942 32.0466 39.5911 32.1713 39.5886C32.296 39.5861 32.3991 39.6852 32.4016 39.8099L31.95 39.8189ZM32.281 45.3182C32.2731 45.4427 32.1658 45.5372 32.0413 45.5292C31.9168 45.5213 31.8224 45.414 31.8303 45.2895L32.281 45.3182ZM31.2591 50.7309C31.2771 50.6075 31.3917 50.522 31.5151 50.54C31.6386 50.558 31.724 50.6727 31.706 50.7961L31.2591 50.7309ZM30.7009 56.2163C30.6736 56.338 30.5528 56.4145 30.4311 56.3872C30.3094 56.3599 30.2329 56.2391 30.2602 56.1175L30.7009 56.2163ZM28.8778 61.4132C28.9133 61.2936 29.039 61.2255 29.1586 61.261C29.2781 61.2965 29.3463 61.4222 29.3108 61.5418L28.8778 61.4132ZM27.5844 66.7679C27.5419 66.8852 27.4124 66.9457 27.2951 66.9032C27.1779 66.8607 27.1173 66.7312 27.1599 66.6139L27.5844 66.7679ZM25.1553 71.7185C25.2038 71.6036 25.3362 71.5497 25.4511 71.5981C25.5661 71.6466 25.6199 71.779 25.5715 71.8939L25.1553 71.7185ZM23.3222 76.9146C23.2688 77.0273 23.1342 77.0754 23.0214 77.0221C22.9087 76.9687 22.8606 76.8341 22.914 76.7213L23.3222 76.9146ZM20.4771 81.6289C20.5345 81.5182 20.6708 81.475 20.7815 81.5324C20.8922 81.5898 20.9354 81.7262 20.878 81.8369L20.4771 81.6289ZM18.2638 86.6875C18.203 86.7964 18.0654 86.8354 17.9566 86.7746C17.8477 86.7138 17.8087 86.5762 17.8695 86.4673L18.2638 86.6875ZM15.13 91.2254C15.1936 91.1181 15.3321 91.0826 15.4394 91.1462C15.5467 91.2098 15.5821 91.3483 15.5185 91.4556L15.13 91.2254ZM12.6687 96.1461C12.6028 96.252 12.4635 96.2844 12.3576 96.2185C12.2517 96.1527 12.2193 96.0134 12.2852 95.9075L12.6687 96.1461ZM9.34454 100.538C9.41234 100.433 9.55215 100.403 9.65684 100.471C9.76152 100.539 9.79143 100.679 9.72364 100.783L9.34454 100.538ZM6.70012 105.372C6.63073 105.476 6.49047 105.504 6.38684 105.434C6.28321 105.365 6.25545 105.225 6.32485 105.121L6.70012 105.372ZM3.23963 109.662C3.31037 109.56 3.45098 109.534 3.5537 109.605C3.65642 109.675 3.68234 109.816 3.6116 109.919L3.23963 109.662ZM21.3713 0.341526C21.7765 1.18081 22.1709 2.01345 22.5545 2.83983L22.1449 3.03C21.7623 2.20577 21.3688 1.37519 20.9646 0.537869L21.3713 0.341526ZM24.7834 7.86145C25.5144 9.59174 26.1945 11.2967 26.8229 12.9801L26.3998 13.1381C25.7737 11.461 25.096 9.76205 24.3674 8.03721L24.7834 7.86145ZM28.6189 18.1774C29.1839 19.9618 29.6872 21.7256 30.1279 23.4739L29.6899 23.5842C29.2516 21.8452 28.7508 20.09 28.1884 18.3137L28.6189 18.1774ZM31.2939 28.8582C31.623 30.6854 31.8804 32.5007 32.0651 34.3102L31.6158 34.3561C31.4323 32.5584 31.1765 30.7545 30.8494 28.9383L31.2939 28.8582ZM32.4016 39.8099C32.4381 41.6439 32.3983 43.4779 32.281 45.3182L31.8303 45.2895C31.9467 43.4618 31.9863 41.6403 31.95 39.8189L32.4016 39.8099ZM31.706 50.7961C31.4443 52.5895 31.1096 54.3944 30.7009 56.2163L30.2602 56.1175C30.6665 54.3063 30.9991 52.5127 31.2591 50.7309L31.706 50.7961ZM29.3108 61.5418C28.7997 63.2631 28.2245 65.0037 27.5844 66.7679L27.1599 66.6139C27.797 64.8577 28.3694 63.1256 28.8778 61.4132L29.3108 61.5418ZM25.5715 71.8939C24.8761 73.5433 24.1265 75.2157 23.3222 76.9146L22.914 76.7213C23.7157 75.028 24.4626 73.3615 25.1553 71.7185L25.5715 71.8939ZM20.878 81.8369C20.0524 83.4284 19.1811 85.0444 18.2638 86.6875L17.8695 86.4673C18.7846 84.8281 19.6537 83.2161 20.4771 81.6289L20.878 81.8369ZM15.5185 91.4556C14.6069 92.9942 13.657 94.5571 12.6687 96.1461L12.2852 95.9075C13.2719 94.3211 14.2201 92.7611 15.13 91.2254L15.5185 91.4556ZM9.72364 100.783C8.7486 102.289 7.74084 103.818 6.70012 105.372L6.32485 105.121C7.36435 103.569 8.37083 102.041 9.34454 100.538L9.72364 100.783ZM3.6116 109.919C3.09213 110.673 2.56531 111.433 2.03111 112.199L1.66063 111.941C2.19435 111.175 2.72067 110.416 3.23963 109.662L3.6116 109.919ZM1.92518 112.515C1.67962 112.558 1.44505 112.395 1.40125 112.149L0.687458 108.148C0.643656 107.902 0.807213 107.668 1.05277 107.624C1.29833 107.58 1.5329 107.744 1.57671 107.989L2.21119 111.546L5.76818 110.912C6.01374 110.868 6.24831 111.031 6.29212 111.277C6.33592 111.523 6.17236 111.757 5.9268 111.801L1.92518 112.515ZM22.7594 2.74475C22.8644 2.97099 22.7661 3.23954 22.5399 3.34457C22.3136 3.4496 22.0451 3.35133 21.9401 3.12509L22.7594 2.74475ZM24.1593 8.12509C24.0623 7.89531 24.1699 7.63036 24.3996 7.53329C24.6294 7.43622 24.8944 7.5438 24.9914 7.77357L24.1593 8.12509ZM27.0345 12.9011C27.1218 13.1348 27.003 13.3949 26.7694 13.4822C26.5357 13.5694 26.2755 13.4507 26.1883 13.217L27.0345 12.9011ZM27.9731 18.3819C27.8978 18.1441 28.0295 17.8903 28.2673 17.815C28.5051 17.7397 28.7589 17.8714 28.8342 18.1092L27.9731 18.3819ZM30.3469 23.4187C30.4078 23.6605 30.2612 23.906 30.0193 23.967C29.7774 24.028 29.5319 23.8813 29.471 23.6394L30.3469 23.4187ZM30.6272 28.9783C30.583 28.7328 30.7461 28.498 30.9916 28.4537C31.2371 28.4095 31.4719 28.5727 31.5162 28.8182L30.6272 28.9783ZM32.2897 34.2873C32.3151 34.5355 32.1344 34.7572 31.8863 34.7825C31.6381 34.8078 31.4164 34.6272 31.3911 34.379L32.2897 34.2873ZM31.7242 39.8234C31.7193 39.574 31.9174 39.3678 32.1668 39.3629C32.4162 39.3579 32.6224 39.556 32.6274 39.8054L31.7242 39.8234ZM32.5064 45.3326C32.4905 45.5815 32.2759 45.7704 32.0269 45.7546C31.778 45.7387 31.5891 45.5241 31.6049 45.2751L32.5064 45.3326ZM31.0356 50.6983C31.0716 50.4514 31.3009 50.2805 31.5478 50.3166C31.7946 50.3526 31.9655 50.5819 31.9295 50.8287L31.0356 50.6983ZM30.9213 56.2657C30.8667 56.5091 30.6251 56.6622 30.3817 56.6076C30.1383 56.553 29.9853 56.3114 30.0399 56.068L30.9213 56.2657ZM28.6613 61.3489C28.7323 61.1098 28.9837 60.9735 29.2229 61.0445C29.462 61.1155 29.5983 61.3669 29.5273 61.606L28.6613 61.3489ZM27.7967 66.845C27.7117 67.0794 27.4526 67.2006 27.2181 67.1155C26.9836 67.0304 26.8625 66.7714 26.9476 66.5369L27.7967 66.845ZM24.9472 71.6308C25.0441 71.4009 25.309 71.2931 25.5389 71.3901C25.7687 71.487 25.8765 71.7518 25.7796 71.9817L24.9472 71.6308ZM23.5263 77.0112C23.4195 77.2367 23.1502 77.3329 22.9248 77.2262C22.6994 77.1194 22.6031 76.8501 22.7099 76.6247L23.5263 77.0112ZM20.2766 81.5249C20.3915 81.3035 20.6641 81.2171 20.8855 81.332C21.1069 81.4468 21.1933 81.7194 21.0784 81.9408L20.2766 81.5249ZM18.461 86.7976C18.3394 87.0154 18.0643 87.0934 17.8465 86.9718C17.6287 86.8502 17.5507 86.5751 17.6723 86.3573L18.461 86.7976ZM14.9357 91.1102C15.0628 90.8957 15.3399 90.8248 15.5545 90.9519C15.7691 91.0791 15.84 91.3561 15.7128 91.5707L14.9357 91.1102ZM12.8604 96.2653C12.7287 96.4771 12.4502 96.542 12.2384 96.4103C12.0266 96.2785 11.9617 96 12.0934 95.7882L12.8604 96.2653ZM9.155 100.415C9.29058 100.206 9.57022 100.146 9.77958 100.281C9.98895 100.417 10.0488 100.697 9.91319 100.906L9.155 100.415ZM6.88776 105.498C6.74897 105.705 6.46845 105.761 6.26119 105.622C6.05393 105.483 5.99842 105.203 6.13721 104.995L6.88776 105.498ZM3.05365 109.534C3.19512 109.329 3.47635 109.277 3.68178 109.419C3.88721 109.56 3.93906 109.841 3.79759 110.047L3.05365 109.534ZM21.5747 0.243354C21.9803 1.08363 22.3752 1.9173 22.7594 2.74475L21.9401 3.12509C21.5579 2.30193 21.165 1.47238 20.7612 0.63604L21.5747 0.243354ZM24.9914 7.77357C25.7235 9.50659 26.4048 11.2145 27.0345 12.9011L26.1883 13.217C25.5634 11.5432 24.8869 9.8472 24.1593 8.12509L24.9914 7.77357ZM28.8342 18.1092C29.4005 19.8976 29.905 21.6658 30.3469 23.4187L29.471 23.6394C29.0338 21.905 28.5343 20.1542 27.9731 18.3819L28.8342 18.1092ZM31.5162 28.8182C31.8462 30.6508 32.1044 32.4719 32.2897 34.2873L31.3911 34.379C31.2082 32.5873 30.9533 30.789 30.6272 28.9783L31.5162 28.8182ZM32.6274 39.8054C32.664 41.6457 32.624 43.486 32.5064 45.3326L31.6049 45.2751C31.721 43.4537 31.7604 41.6386 31.7242 39.8234L32.6274 39.8054ZM31.9295 50.8287C31.6669 52.628 31.3312 54.4384 30.9213 56.2657L30.0399 56.068C30.4449 54.2623 30.7765 52.4743 31.0356 50.6983L31.9295 50.8287ZM29.5273 61.606C29.0148 63.3319 28.4382 65.0767 27.7967 66.845L26.9476 66.5369C27.5833 64.7846 28.1543 63.0568 28.6613 61.3489L29.5273 61.606ZM25.7796 71.9817C25.0828 73.6342 24.3319 75.3096 23.5263 77.0112L22.7099 76.6247C23.5103 74.9341 24.2559 73.2706 24.9472 71.6308L25.7796 71.9817ZM21.0784 81.9408C20.2517 83.5346 19.3793 85.1526 18.461 86.7976L17.6723 86.3573C18.5864 84.7199 19.4544 83.1099 20.2766 81.5249L21.0784 81.9408ZM15.7128 91.5707C14.8003 93.1108 13.8496 94.6751 12.8604 96.2653L12.0934 95.7882C13.0794 94.2032 14.0267 92.6445 14.9357 91.1102L15.7128 91.5707ZM9.91319 100.906C8.93748 102.413 7.92908 103.943 6.88776 105.498L6.13721 104.995C7.17611 103.444 8.18195 101.918 9.155 100.415L9.91319 100.906ZM3.79759 110.047C3.27786 110.801 2.75079 111.562 2.21635 112.328L1.4754 111.812C2.00887 111.047 2.53494 110.288 3.05365 109.534L3.79759 110.047Z" fill="url(#paint0_linear_132_302)"/>
<defs>
<linearGradient id="paint0_linear_132_302" x1="24.2203" y1="0.0973265" x2="4.24333" y2="120.188" gradientUnits="userSpaceOnUse">
<stop stop-color="#C0FF59"/>
<stop offset="1" stop-color="#AC5CFD"/>
</linearGradient>
</defs>
</svg>
