<svg width="32" height="99" viewBox="0 0 32 99" fill="none" xmlns="http://www.w3.org/2000/svg">
<path d="M4.73902 98.4824C4.84483 98.5588 4.99256 98.535 5.069 98.4292L6.3147 96.7051C6.39114 96.5992 6.36734 96.4515 6.26153 96.3751C6.15573 96.2986 6.00799 96.3224 5.93155 96.4282L4.82427 97.9608L3.2917 96.8535C3.1859 96.7771 3.03816 96.8009 2.96172 96.9067C2.88527 97.0125 2.90908 97.1602 3.01488 97.2367L4.73902 98.4824ZM30.3821 3.62962C30.3711 3.75968 30.4676 3.87404 30.5976 3.88504C30.7277 3.89604 30.8421 3.79952 30.8531 3.66946L30.3821 3.62962ZM30.0253 9.34879C30.0516 9.22096 29.9694 9.09594 29.8416 9.06956C29.7137 9.04318 29.5887 9.12543 29.5623 9.25326L30.0253 9.34879ZM28.1149 14.7531C28.0753 14.8775 28.1441 15.0104 28.2685 15.05C28.3928 15.0896 28.5258 15.0208 28.5653 14.8964L28.1149 14.7531ZM26.5931 20.2785C26.6428 20.1578 26.5852 20.0197 26.4645 19.97C26.3438 19.9203 26.2057 19.9779 26.156 20.0986L26.5931 20.2785ZM23.824 25.2991C23.7674 25.4167 23.8169 25.5579 23.9345 25.6145C24.0521 25.6711 24.1934 25.6216 24.25 25.504L23.824 25.2991ZM21.6729 30.6127C21.7335 30.4971 21.6888 30.3542 21.5731 30.2937C21.4575 30.2332 21.3146 30.2779 21.2541 30.3936L21.6729 30.6127ZM18.5682 35.4346C18.5064 35.5496 18.5495 35.6929 18.6644 35.7547C18.7794 35.8165 18.9227 35.7735 18.9845 35.6585L18.5682 35.4346ZM16.2928 40.6967C16.3536 40.5812 16.3093 40.4383 16.1938 40.3774C16.0783 40.3166 15.9354 40.3609 15.8745 40.4764L16.2928 40.6967ZM13.27 45.5677C13.2122 45.6847 13.2603 45.8264 13.3774 45.8842C13.4944 45.9419 13.6361 45.8938 13.6939 45.7767L13.27 45.5677ZM11.2739 50.9396C11.3267 50.8202 11.2727 50.6807 11.1533 50.6279C11.0339 50.5752 10.8943 50.6292 10.8416 50.7486L11.2739 50.9396ZM8.66852 56.0448C8.62245 56.167 8.68411 56.3033 8.80623 56.3494C8.92836 56.3955 9.06471 56.3338 9.11078 56.2117L8.66852 56.0448ZM7.27125 61.6045C7.30923 61.4796 7.23879 61.3476 7.11391 61.3096C6.98904 61.2717 6.85701 61.3421 6.81902 61.467L7.27125 61.6045ZM5.34701 67.0102C5.31814 67.1375 5.39793 67.2641 5.52523 67.2929C5.65252 67.3218 5.77912 67.242 5.80799 67.1147L5.34701 67.0102ZM4.75961 72.7019C4.77882 72.5728 4.68973 72.4526 4.56062 72.4334C4.43152 72.4141 4.31128 72.5032 4.29207 72.6323L4.75961 72.7019ZM3.66307 78.3328C3.65364 78.463 3.75153 78.5762 3.88172 78.5856C4.0119 78.595 4.12509 78.4971 4.13452 78.3669L3.66307 78.3328ZM3.93099 84.0508C3.93097 83.9203 3.82515 83.8145 3.69462 83.8145C3.56409 83.8145 3.45829 83.9203 3.45831 84.0508L3.93099 84.0508ZM3.65713 89.791C3.66603 89.9212 3.77882 90.0196 3.90904 90.0107C4.03927 90.0018 4.13761 89.889 4.12871 89.7588L3.65713 89.791ZM4.69486 95.4096C4.67788 95.2802 4.5592 95.189 4.42978 95.206C4.30036 95.223 4.20921 95.3417 4.22619 95.4711L4.69486 95.4096ZM30.5341 0.790335C30.5125 1.74925 30.4611 2.69526 30.3821 3.62962L30.8531 3.66946C30.9329 2.72553 30.9848 1.7698 31.0067 0.801021L30.5341 0.790335ZM29.5623 9.25326C29.1767 11.122 28.688 12.9514 28.1149 14.7531L28.5653 14.8964C29.143 13.0805 29.636 11.2352 30.0253 9.34879L29.5623 9.25326ZM26.156 20.0986C25.4374 21.8442 24.654 23.5739 23.824 25.2991L24.25 25.504C25.083 23.7724 25.8703 22.0343 26.5931 20.2785L26.156 20.0986ZM21.2541 30.3936C20.3797 32.0647 19.479 33.7413 18.5682 35.4346L18.9845 35.6585C19.8952 33.9654 20.7971 32.2865 21.6729 30.6127L21.2541 30.3936ZM15.8745 40.4764C14.9951 42.1461 14.1219 43.8403 13.27 45.5677L13.6939 45.7767C14.5434 44.0542 15.4146 42.364 16.2928 40.6967L15.8745 40.4764ZM10.8416 50.7486C10.0799 52.4726 9.35114 54.2354 8.66852 56.0448L9.11078 56.2117C9.78997 54.4113 10.5154 52.6566 11.2739 50.9396L10.8416 50.7486ZM6.81902 61.467C6.27233 63.2642 5.77799 65.1097 5.34701 67.0102L5.80799 67.1147C6.23631 65.226 6.72769 63.3915 7.27125 61.6045L6.81902 61.467ZM4.29207 72.6323C4.01725 74.4792 3.80475 76.3777 3.66307 78.3328L4.13452 78.3669C4.27533 76.4238 4.48651 74.5372 4.75961 72.7019L4.29207 72.6323ZM3.45831 84.0508C3.45852 85.9131 3.52273 87.8252 3.65713 89.791L4.12871 89.7588C3.99503 87.8036 3.9312 85.9022 3.93099 84.0508L3.45831 84.0508ZM4.22619 95.4711C4.34962 96.4116 4.48872 97.3639 4.6441 98.3284L5.11076 98.2532C4.95611 97.2932 4.81767 96.3455 4.69486 95.4096L4.22619 95.4711ZM4.60061 98.6739C4.81222 98.8268 5.10769 98.7792 5.26058 98.5676L7.75196 95.1193C7.90484 94.9077 7.85724 94.6122 7.64564 94.4593C7.43403 94.3065 7.13856 94.3541 6.98567 94.5657L4.77111 97.6308L1.70596 95.4163C1.49436 95.2634 1.19888 95.311 1.046 95.5226C0.893117 95.7342 0.940718 96.0297 1.15232 96.1825L4.60061 98.6739ZM30.1466 3.6097C30.1246 3.86983 30.3176 4.09854 30.5777 4.12054C30.8378 4.14254 31.0666 3.9495 31.0886 3.68937L30.1466 3.6097ZM30.2567 9.39656C30.3095 9.14089 30.145 8.89086 29.8893 8.8381C29.6336 8.78534 29.3836 8.94983 29.3309 9.2055L30.2567 9.39656ZM27.8897 14.6815C27.8105 14.9303 27.948 15.1961 28.1968 15.2752C28.4456 15.3544 28.7114 15.2168 28.7905 14.9681L27.8897 14.6815ZM26.8117 20.3685C26.911 20.1271 26.7959 19.8508 26.5545 19.7514C26.3131 19.6521 26.0368 19.7672 25.9375 20.0086L26.8117 20.3685ZM23.611 25.1966C23.4979 25.4319 23.5968 25.7143 23.8321 25.8275C24.0673 25.9407 24.3498 25.8417 24.4629 25.6065L23.611 25.1966ZM21.8823 30.7223C22.0034 30.491 21.914 30.2054 21.6827 30.0843C21.4514 29.9633 21.1658 30.0527 21.0447 30.284L21.8823 30.7223ZM18.3601 35.3227C18.2364 35.5526 18.3226 35.8392 18.5525 35.9628C18.7824 36.0865 19.069 36.0004 19.1927 35.7705L18.3601 35.3227ZM16.5019 40.8068C16.6235 40.5758 16.5349 40.29 16.3039 40.1683C16.0729 40.0467 15.7871 40.1353 15.6654 40.3663L16.5019 40.8068ZM13.058 45.4631C12.9425 45.6972 13.0387 45.9806 13.2728 46.0961C13.507 46.2116 13.7904 46.1154 13.9058 45.8813L13.058 45.4631ZM11.4901 51.0351C11.5956 50.7964 11.4876 50.5173 11.2488 50.4118C11.01 50.3063 10.7309 50.4143 10.6254 50.6531L11.4901 51.0351ZM8.44739 55.9614C8.35525 56.2057 8.47856 56.4784 8.72281 56.5705C8.96706 56.6627 9.23976 56.5393 9.33191 56.2951L8.44739 55.9614ZM7.49736 61.6733C7.57333 61.4235 7.43245 61.1595 7.18269 61.0835C6.93294 61.0076 6.66888 61.1484 6.59291 61.3982L7.49736 61.6733ZM5.11652 66.9579C5.05879 67.2125 5.21837 67.4657 5.47296 67.5234C5.72755 67.5812 5.98074 67.4216 6.03848 67.167L5.11652 66.9579ZM4.99337 72.7367C5.0318 72.4785 4.85362 72.238 4.59541 72.1996C4.3372 72.1612 4.09673 72.3393 4.05831 72.5975L4.99337 72.7367ZM3.42735 78.3157C3.40848 78.5761 3.60426 78.8024 3.86463 78.8213C4.12501 78.8402 4.35138 78.6444 4.37024 78.384L3.42735 78.3157ZM4.16733 84.0508C4.1673 83.7897 3.95565 83.5781 3.69459 83.5781C3.43354 83.5782 3.22194 83.7898 3.22197 84.0509L4.16733 84.0508ZM3.42134 89.8071C3.43915 90.0676 3.66472 90.2643 3.92516 90.2464C4.18561 90.2286 4.38231 90.0031 4.3645 89.7426L3.42134 89.8071ZM4.92919 95.3789C4.89523 95.12 4.65786 94.9377 4.39903 94.9717C4.14019 95.0057 3.9579 95.243 3.99187 95.5019L4.92919 95.3789ZM30.2979 0.784992C30.2763 1.73898 30.2252 2.68013 30.1466 3.6097L31.0886 3.68937C31.1688 2.74066 31.221 1.78007 31.243 0.806364L30.2979 0.784992ZM29.3309 9.2055C28.9471 11.0654 28.4605 12.8868 27.8897 14.6815L28.7905 14.9681C29.3704 13.1451 29.8656 11.2917 30.2567 9.39656L29.3309 9.2055ZM25.9375 20.0086C25.2209 21.7492 24.4395 23.4746 23.611 25.1966L24.4629 25.6065C25.2975 23.8716 26.0868 22.1293 26.8117 20.3685L25.9375 20.0086ZM21.0447 30.284C20.171 31.9537 19.2709 33.6292 18.3601 35.3227L19.1927 35.7705C20.1033 34.0774 21.0058 32.3975 21.8823 30.7223L21.0447 30.284ZM15.6654 40.3663C14.7854 42.0372 13.9111 43.7333 13.058 45.4631L13.9058 45.8813C14.7542 44.1612 15.6244 42.4729 16.5019 40.8068L15.6654 40.3663ZM10.6254 50.6531C9.86217 52.3806 9.13173 54.1474 8.44739 55.9614L9.33191 56.2951C10.0094 54.4993 10.7331 52.7487 11.4901 51.0351L10.6254 50.6531ZM6.59291 61.3982C6.04465 63.2006 5.54882 65.0516 5.11652 66.9579L6.03848 67.167C6.46548 65.2841 6.95537 63.4551 7.49736 61.6733L6.59291 61.3982ZM4.05831 72.5975C3.78262 74.4503 3.56947 76.3546 3.42735 78.3157L4.37024 78.384C4.51062 76.4469 4.72114 74.5662 4.99337 72.7367L4.05831 72.5975ZM3.22197 84.0509C3.22218 85.9186 3.28658 87.8361 3.42134 89.8071L4.3645 89.7426C4.23119 87.7928 4.16754 85.8968 4.16733 84.0508L3.22197 84.0509ZM3.99187 95.5019C4.11559 96.4447 4.25503 97.3993 4.41077 98.366L5.3441 98.2156C5.18981 97.2579 5.0517 96.3124 4.92919 95.3789L3.99187 95.5019Z" fill="url(#paint0_linear_132_317)"/>
<defs>
<linearGradient id="paint0_linear_132_317" x1="36.8005" y1="16.423" x2="-0.68334" y2="102.255" gradientUnits="userSpaceOnUse">
<stop stop-color="#C0FF59"/>
<stop offset="1" stop-color="#C0FF59"/>
</linearGradient>
</defs>
</svg>
