<svg width="98" height="80" viewBox="0 0 98 80" fill="none" xmlns="http://www.w3.org/2000/svg">
<path d="M30.6668 30.353C28.3385 30.4354 26.0558 29.7634 23.8337 29.0523C20.298 27.9359 16.6929 26.6829 13.8746 24.27C11.7436 22.4425 10.1221 19.9994 7.70926 18.5664C5.29644 17.1335 1.54388 17.2527 0.338558 19.7848C-0.617465 21.7835 0.572705 24.2701 2.38937 25.5404C4.20603 26.8108 6.47791 27.1815 8.65444 27.5977C14.3433 28.6931 19.9178 30.3159 25.3057 32.445C27.6904 33.3794 30.3482 34.8188 30.7015 37.3487C30.8019 37.8733 30.6972 38.4165 30.4089 38.8662C29.8712 39.6011 28.8046 39.6488 27.8985 39.5642C21.9889 39.0071 15.9341 35.7488 10.4278 37.9687C9.52593 38.3329 8.63276 38.8879 8.22304 39.7702C7.67891 40.9495 8.19053 42.4193 9.15305 43.293C10.1156 44.1666 11.4293 44.5438 12.7148 44.7281C17.8548 45.463 22.9905 43.5379 28.1803 43.358C29.4225 43.3146 30.6993 43.3797 31.8375 43.8739C33.9771 44.8039 35.2583 47.1647 35.3862 49.493C35.5141 51.8213 34.647 54.1062 33.4677 56.1201C30.0512 61.9386 24.1459 65.8191 19.8297 71.0003C18.9171 72.0972 18.0543 73.2895 17.7031 74.6726C17.3519 76.0557 17.6077 77.6729 18.6634 78.6333C20.1137 79.9557 22.533 79.5546 24.057 78.3146C25.581 77.0746 26.4417 75.2276 27.3413 73.4803C29.9505 68.3873 33.2045 63.6514 37.023 59.3893C38.3367 57.9238 39.7805 56.4757 41.6253 55.795C43.4702 55.1142 45.818 55.4199 46.9929 56.9938C48.2546 58.6847 47.769 61.0347 47.8015 63.1418C47.8341 65.249 49.1781 67.846 51.2549 67.4775C53.2927 67.1242 53.7306 64.397 53.4878 62.3441C53.245 60.2911 53.0282 57.7287 54.7885 56.6469C56.0654 55.8643 57.8127 56.3955 58.8749 57.4512C59.9372 58.5069 60.4748 59.9637 61.0016 61.3533C62.7771 66.0706 64.8148 70.8138 68.2032 74.5447C70.2605 76.8101 73.005 78.7287 76.066 78.759C79.127 78.7894 82.2964 76.279 82.0709 73.2267C81.9019 70.9548 80.07 69.201 78.3054 67.7572C72.966 63.3933 66.9892 59.58 63.0047 53.9501C62.0573 52.6104 61.2184 50.8371 62.0031 49.3976C62.7098 48.0969 64.3878 47.737 65.8511 47.6373C71.3974 47.2797 76.9092 48.7402 81.5507 51.7974C83.9483 53.3843 86.0685 55.3766 88.5268 56.8702C90.9852 58.3639 93.9464 59.3437 96.7386 58.624C97.1285 58.5555 97.4864 58.3641 97.7597 58.0777C98.5206 57.1325 97.3261 55.8708 96.2422 55.2877C89.0864 51.3675 81.4279 48.4449 73.4798 46.6011C71.3986 46.1177 69.2611 45.6949 67.4098 44.6349C65.5584 43.5748 64.0019 41.7191 63.9412 39.5838C63.8458 36.4621 66.8223 34.1186 69.7381 33.0043C74.4488 31.2072 79.6581 31.1638 84.4556 29.6116C85.3639 29.3168 86.3048 28.9353 86.8879 28.1787C87.4711 27.4221 87.5383 26.1864 86.7817 25.5968C86.2506 25.1827 85.5092 25.2022 84.8306 25.2564C76.5549 25.9491 68.6384 28.9446 61.9771 33.904C60.4596 35.0291 58.9876 36.2756 57.1883 36.8197C55.389 37.3639 53.1431 36.9823 52.1372 35.3933C51.0316 33.6417 51.8489 31.3524 52.7551 29.4881C56.4468 21.8855 61.2532 14.8768 67.0152 8.69403C68.1382 7.4887 69.3326 6.2617 69.8572 4.69868C70.3819 3.13566 70.0068 1.13039 68.5565 0.336959C67.3881 -0.313396 65.8749 0.0442897 64.8084 0.842059C63.7418 1.63983 63.0264 2.81047 62.35 3.95943C58.4243 10.6232 54.927 17.5303 51.8793 24.6386C50.8409 27.0579 49.4209 29.8544 46.813 30.2121C44.4739 30.533 42.3884 28.6166 41.2806 26.5268C38.7941 21.8442 39.3924 16.0539 37.2484 11.2044C36.2751 9.00187 34.1506 6.81883 31.8115 7.39115C24.5145 9.17963 32.8954 17.3286 34.9809 19.2341C39.5789 23.4593 37.0425 30.1276 30.6668 30.353Z" fill="#AC5CFD"/>
</svg>
