<svg width="60" height="17" viewBox="0 0 60 17" fill="none" xmlns="http://www.w3.org/2000/svg">
<mask id="mask0_72_364" style="mask-type:alpha" maskUnits="userSpaceOnUse" x="0" y="0" width="60" height="17">
<path d="M30.1293 3.81131V12.9934C30.1293 13.0634 30.0769 13.1334 29.9894 13.1334H29.0275C28.5902 13.1334 28.1705 12.906 27.9256 12.5387L23.5881 5.84012L23.7281 9.18067V13.0109C23.7281 13.0809 23.6756 13.1509 23.5881 13.1509H22.3289C22.2589 13.1509 22.189 13.0984 22.189 13.0109V3.81131C22.189 3.74135 22.2414 3.67139 22.3289 3.67139H23.2733C23.7106 3.67139 24.1303 3.89875 24.3752 4.26604L28.7127 10.9471L28.5727 7.60659V3.81131C28.5727 3.74135 28.6252 3.67139 28.7127 3.67139H29.9719C30.0769 3.67139 30.1293 3.72386 30.1293 3.81131Z" fill="white"/>
<path d="M43.0369 13.1159H41.7076C41.6202 13.1159 41.5502 13.0284 41.5852 12.941L45.1182 3.79381C45.1531 3.72386 45.2231 3.67139 45.2931 3.67139H46.9721C47.0595 3.67139 47.1295 3.72386 47.147 3.79381L50.6974 12.941C50.7324 13.0284 50.6624 13.1159 50.575 13.1159H49.2457C49.1933 13.1159 49.1408 13.0809 49.1233 13.0284L46.2725 5.50782C46.2375 5.40288 46.0626 5.40288 46.0276 5.50782L43.1768 13.0284C43.1418 13.0809 43.0893 13.1159 43.0369 13.1159Z" fill="white"/>
<path d="M59.9668 12.906L57.3084 9.51298C58.8125 9.23314 59.687 8.21873 59.687 6.66214C59.687 4.87818 58.5327 3.67139 56.4689 3.67139H52.761C52.6561 3.67139 52.5686 3.75884 52.5686 3.86377C52.5686 4.56337 53.1283 5.12304 53.8279 5.12304H56.3289C57.5707 5.12304 58.1654 5.75267 58.1654 6.67963C58.1654 7.60659 57.5882 8.23622 56.3289 8.23622H52.796C52.6911 8.23622 52.6036 8.32367 52.6036 8.42861V12.976C52.6036 13.0459 52.6561 13.1159 52.7435 13.1159H54.0028C54.0728 13.1159 54.1427 13.0634 54.1427 12.976V9.60043H55.5944L57.903 12.6087C58.1479 12.941 58.5327 13.1159 58.9524 13.1159H59.9143C59.9843 13.1159 60.0368 12.9934 59.9668 12.906Z" fill="white"/>
<path d="M39.0491 3.67139H33.19C33.0851 3.67139 33.0151 3.74135 33.0151 3.84628C33.0151 4.54588 33.5923 5.12304 34.2919 5.12304H39.0491C39.119 5.12304 39.189 5.07057 39.189 4.98312V3.79381C39.1715 3.72386 39.119 3.67139 39.0491 3.67139ZM39.0491 11.6642H34.6766C34.6067 11.6642 34.5367 11.6118 34.5367 11.5243V9.16318C34.5367 9.09322 34.5892 9.02326 34.6766 9.02326H38.7168C38.7867 9.02326 38.8567 8.97079 38.8567 8.88335V7.69404C38.8567 7.62408 38.8042 7.55412 38.7168 7.55412H33.2075C33.1026 7.55412 33.0151 7.64157 33.0151 7.74651V12.906C33.0151 13.0109 33.1026 13.0984 33.2075 13.0984H39.0491C39.119 13.0984 39.189 13.0459 39.189 12.9585V11.7692C39.1715 11.7167 39.119 11.6642 39.0491 11.6642Z" fill="white"/>
<path d="M12.8146 1.32797L9.52656 6.20762C9.2992 6.53993 9.73644 6.94219 10.0513 6.66235L13.2869 3.8465C13.3743 3.77654 13.4967 3.82901 13.4967 3.95144V12.7488C13.4967 12.8712 13.3393 12.9237 13.2694 12.8363L3.47509 1.11809C3.16028 0.733315 2.70554 0.523438 2.19834 0.523438H1.84854C0.939073 0.523438 0.187012 1.2755 0.187012 2.20246V14.5852C0.187012 15.5122 0.939073 16.2643 1.86603 16.2643C2.4432 16.2643 2.98538 15.9669 3.3002 15.4597L6.58828 10.5801C6.81564 10.2478 6.3784 9.8455 6.06358 10.1253L2.82797 12.9237C2.74052 12.9937 2.61809 12.9412 2.61809 12.8188V4.03889C2.61809 3.91646 2.7755 3.86399 2.84546 3.95144L12.6397 15.6696C12.9546 16.0544 13.4268 16.2643 13.9165 16.2643H14.2663C15.1933 16.2643 15.9453 15.5122 15.9453 14.5852V2.20246C15.9278 1.2755 15.1758 0.523438 14.2488 0.523438C13.6716 0.523438 13.1295 0.820764 12.8146 1.32797Z" fill="white"/>
</mask>
<g mask="url(#mask0_72_364)">
<rect x="-0.679749" y="0.523438" width="60.6798" height="19.0708" fill="#C0FF59"/>
</g>
</svg>
