<svg width="68" height="109" viewBox="0 0 68 109" fill="none" xmlns="http://www.w3.org/2000/svg">
<path d="M23.243 92.9232C24.7708 92.6373 25.9348 91.2949 26.4174 89.8175C26.8999 88.3401 26.8199 86.7438 26.6461 85.2C25.8319 77.6895 23.2431 69.6485 26.6667 62.9247C27.5998 61.0951 29.9576 59.3364 31.5037 60.6903C32.5374 61.6051 32.3361 63.206 32.2332 64.5782C32.1303 65.9504 32.5168 67.7022 33.8684 67.9401C35.4099 68.2122 36.3269 66.234 36.3841 64.672C36.4413 63.11 36.3841 61.2072 37.706 60.3793C39.0279 59.5514 40.8437 60.5531 41.4933 61.9573C42.1428 63.3615 41.9712 64.9899 41.8546 66.5313C41.6259 69.5347 41.6511 72.552 41.9301 75.5512C42.0856 77.2161 42.8037 79.3293 44.4755 79.3179C45.8477 79.3179 46.6802 77.7764 46.9912 76.4317C48.2102 71.2791 46.7419 65.1774 50.1404 61.1088C50.6458 60.5028 51.4508 59.9379 52.1667 60.2649C52.6241 60.4776 52.8711 60.9991 53.054 61.4793C55.341 67.5604 55.2312 74.2865 54.3484 80.7267C53.4656 87.1668 51.8327 93.4926 51.2061 99.958C51.0186 101.858 50.9294 103.846 51.6406 105.609C52.3519 107.372 54.0831 108.875 55.9859 108.729C57.0905 108.644 58.0968 108.042 58.8858 107.256C62.4581 103.754 61.7606 97.9271 60.8023 93.017L55.5423 66.0556C55.1695 64.146 54.7967 62.202 55.0071 60.2695C55.2175 58.337 56.1094 56.3816 57.7515 55.3525C60.0728 53.9071 63.2403 54.6023 65.6073 53.221C67.9743 51.8396 68.7519 48.3085 67.1807 46.0536C66.4718 45.0359 65.3877 44.2834 64.8686 43.1559C63.039 39.2086 69.3328 34.9548 67.6496 30.9457C66.7599 28.8302 64.1733 28.1716 62.035 27.3414C59.6108 26.3969 57.2575 24.7251 56.4753 22.2437C55.4188 18.9024 57.4839 15.4696 59.2792 12.4599C61.0745 9.45024 62.6822 5.59896 60.8458 2.60986C59.1443 -0.157399 55.0757 -0.649103 52.1552 0.780268C49.2347 2.20964 47.2519 5.00204 45.635 7.8219C44.0181 10.6418 42.6047 13.6354 40.2926 15.9224C39.3023 16.8967 38.0605 17.752 36.67 17.7658C34.7969 17.7795 33.2692 16.2655 32.2607 14.6875C31.2521 13.1094 30.4882 11.3096 29.0589 10.1135C27.6295 8.91737 25.171 8.62465 24.0435 10.1249C23.2682 11.1632 23.4237 12.6017 23.1287 13.8619C22.454 16.6703 19.5473 18.3649 16.7366 19.0282C13.9258 19.6914 10.9596 19.6617 8.24495 20.6451C5.53029 21.6285 3.00545 24.1167 3.33021 26.9846C3.67783 30.0469 6.90477 31.8239 9.78638 32.9308C12.668 34.0377 15.9613 35.3207 16.9698 38.2389C17.9921 41.212 15.975 44.4572 13.4456 46.3372C10.9162 48.2171 7.84472 49.2805 5.3519 51.2107C2.90223 53.1188 1.13237 55.7651 0.30452 58.7578C0.0323678 59.755 -0.127724 60.8161 0.130706 61.8155C0.887701 64.7406 4.88537 65.6394 7.65492 64.4318C10.4245 63.2243 12.3364 60.6903 14.4701 58.552C15.1402 57.8796 15.8927 57.2118 16.8235 57.0174C18.3557 56.6949 19.904 57.8064 20.5856 59.2152C21.2671 60.624 21.2717 62.2546 21.2259 63.8189C21.0247 69.8909 19.6593 75.5855 18.6279 81.5271C18.0127 84.9416 17.242 94.0461 23.243 92.9232Z" fill="#C0FF59"/>
</svg>
