<svg width="35" height="21" viewBox="0 0 35 21" fill="none" xmlns="http://www.w3.org/2000/svg">
    <path d="M3.62077 16.483C1.89927 15.2641 1.49123 12.8767 2.71018 11.1552C3.92912 9.43365 6.31654 9.02562 8.03804 10.2446C9.75954 11.4635 10.1676 13.8509 8.94863 15.5724C7.72968 17.2939 5.34227 17.702 3.62077 16.483Z" fill="#FFC700"/>
    <path d="M14.1443 20.0221C12.2106 19.8353 10.7923 18.1135 10.9792 16.1798C11.1661 14.2462 12.8878 12.8279 14.8215 13.0148C16.7551 13.2016 18.1734 14.9233 17.9865 16.857C17.7997 18.7907 16.078 20.209 14.1443 20.0221Z" fill="#FFC700"/>
    <path d="M24.5364 17.4325C23.2095 18.0344 21.6435 17.4457 21.0417 16.1188C20.4398 14.7919 21.0285 13.2259 22.3554 12.624C23.6823 12.0222 25.2483 12.6109 25.8502 13.9378C26.452 15.2647 25.8633 16.8307 24.5364 17.4325Z" fill="#FFC700"/>
    <path d="M31.7811 10.458C31.2062 11.2409 30.1038 11.4099 29.3208 10.835C28.5379 10.2601 28.3689 9.15765 28.9438 8.37469C29.5187 7.59173 30.6211 7.42279 31.4041 7.99767C32.1871 8.57255 32.356 9.67501 31.7811 10.458Z" fill="#FFC700"/>
    <path d="M34.4616 1.67226C34.3914 2.15282 33.9442 2.48598 33.4636 2.41575C32.9831 2.34552 32.6499 1.89832 32.7201 1.41776C32.7904 0.937196 33.2376 0.604036 33.7181 0.674265C34.1987 0.744493 34.5318 1.19169 34.4616 1.67226Z" fill="#FFC700"/>
</svg>
