<svg width="24" height="24" viewBox="0 0 24 24" fill="none" xmlns="http://www.w3.org/2000/svg">
<circle cx="12" cy="12" r="12" fill="#999999"/>
<path d="M16.8287 7.60184C15.9098 7.18644 14.9531 6.88434 13.9587 6.7207C13.8328 6.94728 13.6944 7.2368 13.5937 7.47596C12.5363 7.31232 11.4664 7.31232 10.409 7.47596C10.2957 7.21162 10.1698 6.95987 10.0314 6.7207C9.03696 6.88434 8.06771 7.18644 7.16141 7.61442C5.34879 10.3208 4.85787 12.9516 5.09704 15.5572C6.16699 16.3502 7.35022 16.9544 8.62157 17.3321C8.91108 16.9418 9.16284 16.539 9.37683 16.1111C8.96143 15.96 8.57122 15.7712 8.19359 15.5446C8.29429 15.4691 8.38241 15.3936 8.48311 15.318C10.7111 16.3754 13.3042 16.3754 15.5322 15.318C15.6329 15.3936 15.721 15.4691 15.8217 15.5446C15.4441 15.7712 15.0412 15.96 14.6259 16.1111C14.8398 16.539 15.0916 16.9418 15.3811 17.3321C16.6525 16.9418 17.8483 16.3502 18.9056 15.5572C19.1826 12.5362 18.4021 9.91796 16.8287 7.60184ZM9.67893 13.946C8.98661 13.946 8.43276 13.3166 8.43276 12.5488C8.43276 11.7809 8.98661 11.139 9.67893 11.139C10.3838 11.139 10.9377 11.7683 10.9377 12.5488C10.9251 13.3166 10.3838 13.946 9.67893 13.946ZM14.3112 13.946C13.6188 13.946 13.065 13.3166 13.065 12.5488C13.065 11.7809 13.6188 11.139 14.3112 11.139C15.0161 11.139 15.5699 11.7683 15.5573 12.5488C15.5448 13.3292 15.0035 13.946 14.3112 13.946Z" fill="#1B1B1B"/>
</svg>
