<svg width="14" height="14" viewBox="0 0 14 14" fill="none" xmlns="http://www.w3.org/2000/svg">
    <path d="M13.5 7C13.501 6.14634 13.3339 5.30084 13.0081 4.51208C12.6823 3.7231 12.2042 3.00639 11.6011 2.40317C11.5073 2.30929 11.38 2.25658 11.2472 2.25666C11.1145 2.25675 10.9872 2.30962 10.8935 2.40363L9.9534 3.34644C9.75868 3.54174 9.75886 3.85784 9.95381 4.05291C10.34 4.43933 10.6463 4.89854 10.8551 5.4042C11.0639 5.90987 11.171 6.45197 11.1704 6.99937L11.1704 7.00069C11.1711 7.54808 11.064 8.09018 10.8552 8.59584C10.6464 9.10149 10.3401 9.56068 9.95385 9.94704C9.75886 10.1421 9.75866 10.4582 9.9534 10.6536L10.8935 11.5964C10.9872 11.6904 11.1145 11.7433 11.2472 11.7433C11.38 11.7434 11.5073 11.6907 11.6011 11.5968C12.2042 10.9936 12.6823 10.2769 13.0081 9.48792C13.3339 8.69916 13.501 7.85366 13.5 7ZM13.5 7C13.5 7.00022 13.5 7.00043 13.5 7.00065L13 7L13.5 6.99935C13.5 6.99957 13.5 6.99978 13.5 7ZM11.2475 2.75666L11.6016 3.1097L11.5862 3.12512C11.4787 2.99782 11.3657 2.87488 11.2475 2.75666ZM11.2475 2.75666L10.8939 3.11015C10.8941 3.11035 10.8943 3.11054 10.8945 3.11073L11.2475 2.75666ZM11.2475 11.2433L10.8945 10.8893C10.8943 10.8895 10.8941 10.8897 10.8939 10.8898L11.2475 11.2433ZM11.2475 11.2433L11.6016 10.8903L11.5862 10.8749C11.4787 11.0022 11.3657 11.1251 11.2475 11.2433ZM9.47784 1.66582L9.47784 1.66511C9.47753 1.44587 9.41555 1.23106 9.29889 1.04536C9.18222 0.85964 9.01554 0.710502 8.81784 0.61527C8.62013 0.520033 8.39954 0.482635 8.18146 0.507466C7.96338 0.532297 7.75686 0.618322 7.58561 0.755476L7.5853 0.755722L4.58047 3.16614H1.66482C1.35542 3.16614 1.05898 3.28942 0.84065 3.5084C0.622367 3.72732 0.5 4.02394 0.5 4.33291V9.66709C0.5 9.97606 0.622367 10.2727 0.84065 10.4916C1.05898 10.7106 1.35542 10.8339 1.66482 10.8339H4.58047L7.5853 13.2443L7.58561 13.2445C7.75686 13.3817 7.96338 13.4677 8.18146 13.4925C8.39953 13.5174 8.62013 13.48 8.81784 13.3847C9.01554 13.2895 9.18222 13.1404 9.29889 12.9546C9.41555 12.7689 9.47753 12.5541 9.47784 12.3349V12.3342L9.47784 1.66582Z" fill="#FFC700" stroke="#062C34" stroke-linejoin="round"/>
</svg>
