<svg width="18" height="14" viewBox="0 0 18 14" fill="none" xmlns="http://www.w3.org/2000/svg">
    <mask id="path-1-outside-1_221_164" maskUnits="userSpaceOnUse" x="0.5" y="0" width="18" height="14" fill="black">
        <rect fill="white" x="0.5" width="18" height="14"/>
        <path d="M16.5 7C16.5 5.94931 15.6482 5.09756 14.5976 5.09756H9.10896C8.36535 5.09756 7.75899 4.50151 7.74624 3.758C7.72441 2.48414 6.12229 1.93406 5.32256 2.92585L2.02909 7.01027C2.0194 7.02228 2 7.01543 2 7C2 6.98457 2.0194 6.97772 2.02909 6.98973L5.32256 11.0741C6.12228 12.0659 7.72441 11.5159 7.74624 10.242C7.75899 9.49849 8.36535 8.90244 9.10897 8.90244H14.5976C15.6483 8.90244 16.5 8.05069 16.5 7Z"/>
    </mask>
    <g filter="url(#filter0_ii_221_164)">
        <path d="M16.5 7C16.5 5.94931 15.6482 5.09756 14.5976 5.09756H9.10896C8.36535 5.09756 7.75899 4.50151 7.74624 3.758C7.72441 2.48414 6.12229 1.93406 5.32256 2.92585L2.02909 7.01027C2.0194 7.02228 2 7.01543 2 7C2 6.98457 2.0194 6.97772 2.02909 6.98973L5.32256 11.0741C6.12228 12.0659 7.72441 11.5159 7.74624 10.242C7.75899 9.49849 8.36535 8.90244 9.10897 8.90244H14.5976C15.6483 8.90244 16.5 8.05069 16.5 7Z" fill="#FFC700"/>
    </g>
    <path d="M5.32256 11.0741L4.15488 12.0157L5.32256 11.0741ZM5.32256 2.92585L6.49023 3.86741L5.32256 2.92585ZM2.02909 6.98973L3.19677 6.04818L2.02909 6.98973ZM2.02909 7.01027L3.19677 7.95182L2.02909 7.01027ZM14.5976 6.59756H9.10896V3.59756H14.5976V6.59756ZM6.49023 3.86741L3.19677 7.95182L0.861412 6.06871L4.15488 1.9843L6.49023 3.86741ZM9.10897 7.40244H14.5976V10.4024H9.10897V7.40244ZM3.19677 6.04818L6.49023 10.1326L4.15488 12.0157L0.861411 7.93129L3.19677 6.04818ZM6.49023 10.1326C6.4911 10.1337 6.48382 10.1247 6.46652 10.1136C6.44964 10.1028 6.43034 10.0944 6.41104 10.0894C6.37431 10.0799 6.35026 10.0851 6.33901 10.089C6.32776 10.0928 6.30559 10.1035 6.28244 10.1336C6.27028 10.1494 6.26017 10.1678 6.25351 10.1867C6.2467 10.2061 6.24644 10.2177 6.24646 10.2163L9.24602 10.2677C9.20015 12.9436 5.83477 14.099 4.15488 12.0157L6.49023 10.1326ZM9.10897 10.4024C9.18376 10.4024 9.24474 10.3425 9.24602 10.2677L6.24646 10.2163C6.27324 8.6545 7.54695 7.40244 9.10897 7.40244V10.4024ZM6.24646 3.78371C6.24644 3.78233 6.2467 3.79386 6.25351 3.81326C6.26017 3.8322 6.27028 3.85063 6.28244 3.86642C6.30559 3.89648 6.32776 3.90715 6.33901 3.91102C6.35026 3.91488 6.37431 3.92007 6.41104 3.91058C6.43034 3.90559 6.44964 3.89725 6.46652 3.88639C6.48382 3.87528 6.49111 3.86633 6.49023 3.86741L4.15488 1.9843C5.83477 -0.0990344 9.20015 1.05643 9.24602 3.73229L6.24646 3.78371ZM9.10896 6.59756C7.54695 6.59756 6.27324 5.3455 6.24646 3.78371L9.24602 3.73229C9.24474 3.65751 9.18376 3.59756 9.10896 3.59756V6.59756ZM18 7C18 8.87911 16.4767 10.4024 14.5976 10.4024V7.40244C14.8198 7.40244 15 7.22226 15 7H18ZM0.5 7C0.5 5.56955 2.29887 4.93464 3.19677 6.04818L0.861411 7.93129C1.73994 9.0208 3.5 8.39959 3.5 7H0.5ZM3.5 7C3.5 5.60028 1.73986 4.9793 0.861412 6.06871L3.19677 7.95182C2.29895 9.06526 0.5 8.43058 0.5 7H3.5ZM15 7C15 6.77774 14.8198 6.59756 14.5976 6.59756V3.59756C16.4767 3.59756 18 5.12088 18 7H15Z" fill="#062C34" mask="url(#path-1-outside-1_221_164)"/>
    <defs>
        <filter id="filter0_ii_221_164" x="0.5" y="0.913177" width="17.5" height="12.1736" filterUnits="userSpaceOnUse" color-interpolation-filters="sRGB">
            <feFlood flood-opacity="0" result="BackgroundImageFix"/>
            <feBlend mode="normal" in="SourceGraphic" in2="BackgroundImageFix" result="shape"/>
            <feColorMatrix in="SourceAlpha" type="matrix" values="0 0 0 0 0 0 0 0 0 0 0 0 0 0 0 0 0 0 127 0" result="hardAlpha"/>
            <feOffset dy="4"/>
            <feComposite in2="hardAlpha" operator="arithmetic" k2="-1" k3="1"/>
            <feColorMatrix type="matrix" values="0 0 0 0 1 0 0 0 0 0.85098 0 0 0 0 0.482353 0 0 0 1 0"/>
            <feBlend mode="normal" in2="shape" result="effect1_innerShadow_221_164"/>
            <feColorMatrix in="SourceAlpha" type="matrix" values="0 0 0 0 0 0 0 0 0 0 0 0 0 0 0 0 0 0 127 0" result="hardAlpha"/>
            <feOffset dy="-4"/>
            <feComposite in2="hardAlpha" operator="arithmetic" k2="-1" k3="1"/>
            <feColorMatrix type="matrix" values="0 0 0 0 0.905882 0 0 0 0 0.639216 0 0 0 0 0 0 0 0 1 0"/>
            <feBlend mode="normal" in2="effect1_innerShadow_221_164" result="effect2_innerShadow_221_164"/>
        </filter>
    </defs>
</svg>
